%TF.GenerationSoftware,KiCad,Pcbnew,7.0.7*%
%TF.CreationDate,2024-12-21T21:28:54+01:00*%
%TF.ProjectId,servo_board,73657276-6f5f-4626-9f61-72642e6b6963,1.0*%
%TF.SameCoordinates,Original*%
%TF.FileFunction,Copper,L2,Bot*%
%TF.FilePolarity,Positive*%
%FSLAX46Y46*%
G04 Gerber Fmt 4.6, Leading zero omitted, Abs format (unit mm)*
G04 Created by KiCad (PCBNEW 7.0.7) date 2024-12-21 21:28:54*
%MOMM*%
%LPD*%
G01*
G04 APERTURE LIST*
G04 Aperture macros list*
%AMRoundRect*
0 Rectangle with rounded corners*
0 $1 Rounding radius*
0 $2 $3 $4 $5 $6 $7 $8 $9 X,Y pos of 4 corners*
0 Add a 4 corners polygon primitive as box body*
4,1,4,$2,$3,$4,$5,$6,$7,$8,$9,$2,$3,0*
0 Add four circle primitives for the rounded corners*
1,1,$1+$1,$2,$3*
1,1,$1+$1,$4,$5*
1,1,$1+$1,$6,$7*
1,1,$1+$1,$8,$9*
0 Add four rect primitives between the rounded corners*
20,1,$1+$1,$2,$3,$4,$5,0*
20,1,$1+$1,$4,$5,$6,$7,0*
20,1,$1+$1,$6,$7,$8,$9,0*
20,1,$1+$1,$8,$9,$2,$3,0*%
G04 Aperture macros list end*
%TA.AperFunction,ComponentPad*%
%ADD10C,1.600000*%
%TD*%
%TA.AperFunction,ComponentPad*%
%ADD11O,1.600000X1.600000*%
%TD*%
%TA.AperFunction,ComponentPad*%
%ADD12RoundRect,0.250000X0.750000X-0.600000X0.750000X0.600000X-0.750000X0.600000X-0.750000X-0.600000X0*%
%TD*%
%TA.AperFunction,ComponentPad*%
%ADD13O,2.000000X1.700000*%
%TD*%
%TA.AperFunction,ComponentPad*%
%ADD14R,1.700000X1.700000*%
%TD*%
%TA.AperFunction,ComponentPad*%
%ADD15O,1.700000X1.700000*%
%TD*%
%TA.AperFunction,ComponentPad*%
%ADD16RoundRect,0.250000X0.600000X0.600000X-0.600000X0.600000X-0.600000X-0.600000X0.600000X-0.600000X0*%
%TD*%
%TA.AperFunction,ComponentPad*%
%ADD17C,1.700000*%
%TD*%
%TA.AperFunction,ComponentPad*%
%ADD18R,1.800000X1.800000*%
%TD*%
%TA.AperFunction,ComponentPad*%
%ADD19C,1.800000*%
%TD*%
G04 APERTURE END LIST*
D10*
%TO.P,R1 220R,1*%
%TO.N,VDD*%
X90170000Y-66040000D03*
D11*
%TO.P,R1 220R,2*%
%TO.N,Net-(D1-A)*%
X90170000Y-55880000D03*
%TD*%
D12*
%TO.P,J6 XH,1,Pin_1*%
%TO.N,VDD*%
X82550000Y-66040000D03*
D13*
%TO.P,J6 XH,2,Pin_2*%
%TO.N,GND*%
X82550000Y-63540000D03*
%TD*%
D14*
%TO.P,J5,1,Pin_1*%
%TO.N,/Data_BL*%
X100330000Y-58420000D03*
D15*
%TO.P,J5,2,Pin_2*%
%TO.N,VDD*%
X97790000Y-58420000D03*
%TO.P,J5,3,Pin_3*%
%TO.N,GND*%
X95250000Y-58420000D03*
%TD*%
D14*
%TO.P,J4,1,Pin_1*%
%TO.N,/Data_BR*%
X100330000Y-60960000D03*
D15*
%TO.P,J4,2,Pin_2*%
%TO.N,VDD*%
X97790000Y-60960000D03*
%TO.P,J4,3,Pin_3*%
%TO.N,GND*%
X95250000Y-60960000D03*
%TD*%
D14*
%TO.P,J3,1,Pin_1*%
%TO.N,/Data_TR*%
X100330000Y-63500000D03*
D15*
%TO.P,J3,2,Pin_2*%
%TO.N,VDD*%
X97790000Y-63500000D03*
%TO.P,J3,3,Pin_3*%
%TO.N,GND*%
X95250000Y-63500000D03*
%TD*%
%TO.P,J2,3,Pin_3*%
%TO.N,GND*%
X95250000Y-66040000D03*
%TO.P,J2,2,Pin_2*%
%TO.N,VDD*%
X97790000Y-66040000D03*
D14*
%TO.P,J2,1,Pin_1*%
%TO.N,/Data_TL*%
X100330000Y-66040000D03*
%TD*%
D16*
%TO.P,J1 box,1,Pin_1*%
%TO.N,GND*%
X111760000Y-63500000D03*
D17*
%TO.P,J1 box,2,Pin_2*%
%TO.N,/Data_TL*%
X109220000Y-63500000D03*
%TO.P,J1 box,3,Pin_3*%
%TO.N,/Data_TR*%
X111760000Y-60960000D03*
%TO.P,J1 box,4,Pin_4*%
%TO.N,/Data_BR*%
X109220000Y-60960000D03*
%TO.P,J1 box,5,Pin_5*%
%TO.N,/Data_BL*%
X111760000Y-58420000D03*
%TO.P,J1 box,6,Pin_6*%
%TO.N,unconnected-(J1-Pin_6-Pad6)*%
X109220000Y-58420000D03*
%TD*%
D18*
%TO.P,D1 led,1,K*%
%TO.N,GND*%
X82550000Y-55880000D03*
D19*
%TO.P,D1 led,2,A*%
%TO.N,Net-(D1-A)*%
X85090000Y-55880000D03*
%TD*%
%TA.AperFunction,Conductor*%
%TO.N,GND*%
G36*
X95427512Y-63999507D02*
G01*
X95480315Y-64045262D01*
X95500000Y-64112301D01*
X95500000Y-65427698D01*
X95480315Y-65494737D01*
X95427511Y-65540492D01*
X95358355Y-65550436D01*
X95285766Y-65540000D01*
X95285763Y-65540000D01*
X95214237Y-65540000D01*
X95214233Y-65540000D01*
X95141645Y-65550436D01*
X95072487Y-65540492D01*
X95019684Y-65494736D01*
X95000000Y-65427698D01*
X95000000Y-64112301D01*
X95019685Y-64045262D01*
X95072489Y-63999507D01*
X95141647Y-63989563D01*
X95214237Y-64000000D01*
X95214238Y-64000000D01*
X95285762Y-64000000D01*
X95285763Y-64000000D01*
X95358353Y-63989563D01*
X95427512Y-63999507D01*
G37*
%TD.AperFunction*%
%TA.AperFunction,Conductor*%
G36*
X95427512Y-61459507D02*
G01*
X95480315Y-61505262D01*
X95500000Y-61572301D01*
X95500000Y-62887698D01*
X95480315Y-62954737D01*
X95427511Y-63000492D01*
X95358355Y-63010436D01*
X95285766Y-63000000D01*
X95285763Y-63000000D01*
X95214237Y-63000000D01*
X95214233Y-63000000D01*
X95141645Y-63010436D01*
X95072487Y-63000492D01*
X95019684Y-62954736D01*
X95000000Y-62887698D01*
X95000000Y-61572301D01*
X95019685Y-61505262D01*
X95072489Y-61459507D01*
X95141647Y-61449563D01*
X95214237Y-61460000D01*
X95214238Y-61460000D01*
X95285762Y-61460000D01*
X95285763Y-61460000D01*
X95358353Y-61449563D01*
X95427512Y-61459507D01*
G37*
%TD.AperFunction*%
%TA.AperFunction,Conductor*%
G36*
X95427512Y-58919507D02*
G01*
X95480315Y-58965262D01*
X95500000Y-59032301D01*
X95500000Y-60347698D01*
X95480315Y-60414737D01*
X95427511Y-60460492D01*
X95358355Y-60470436D01*
X95285766Y-60460000D01*
X95285763Y-60460000D01*
X95214237Y-60460000D01*
X95214233Y-60460000D01*
X95141645Y-60470436D01*
X95072487Y-60460492D01*
X95019684Y-60414736D01*
X95000000Y-60347698D01*
X95000000Y-59032301D01*
X95019685Y-58965262D01*
X95072489Y-58919507D01*
X95141647Y-58909563D01*
X95214237Y-58920000D01*
X95214238Y-58920000D01*
X95285762Y-58920000D01*
X95285763Y-58920000D01*
X95358353Y-58909563D01*
X95427512Y-58919507D01*
G37*
%TD.AperFunction*%
%TA.AperFunction,Conductor*%
G36*
X118002208Y-51500657D02*
G01*
X118204561Y-51515130D01*
X118222063Y-51517647D01*
X118413797Y-51559355D01*
X118430755Y-51564334D01*
X118614609Y-51632909D01*
X118630701Y-51640259D01*
X118802904Y-51734288D01*
X118817784Y-51743849D01*
X118974867Y-51861441D01*
X118988237Y-51873027D01*
X119126972Y-52011762D01*
X119138558Y-52025132D01*
X119256146Y-52182210D01*
X119265711Y-52197095D01*
X119359740Y-52369298D01*
X119367090Y-52385390D01*
X119435662Y-52569236D01*
X119440646Y-52586212D01*
X119482351Y-52777931D01*
X119484869Y-52795442D01*
X119499342Y-52997788D01*
X119499500Y-53002212D01*
X119499500Y-68997786D01*
X119499342Y-69002210D01*
X119484869Y-69204557D01*
X119482351Y-69222068D01*
X119440646Y-69413787D01*
X119435662Y-69430763D01*
X119367090Y-69614609D01*
X119359740Y-69630701D01*
X119265711Y-69802904D01*
X119256146Y-69817789D01*
X119138558Y-69974867D01*
X119126972Y-69988237D01*
X118988237Y-70126972D01*
X118974867Y-70138558D01*
X118817789Y-70256146D01*
X118802904Y-70265711D01*
X118630701Y-70359740D01*
X118614609Y-70367090D01*
X118430763Y-70435662D01*
X118413787Y-70440646D01*
X118222068Y-70482351D01*
X118204557Y-70484869D01*
X118023733Y-70497802D01*
X118002208Y-70499342D01*
X117997786Y-70499500D01*
X77002214Y-70499500D01*
X76997791Y-70499342D01*
X76973413Y-70497598D01*
X76795442Y-70484869D01*
X76777931Y-70482351D01*
X76586212Y-70440646D01*
X76569236Y-70435662D01*
X76385390Y-70367090D01*
X76369298Y-70359740D01*
X76197095Y-70265711D01*
X76182210Y-70256146D01*
X76025132Y-70138558D01*
X76011762Y-70126972D01*
X75873027Y-69988237D01*
X75861441Y-69974867D01*
X75743849Y-69817784D01*
X75734288Y-69802904D01*
X75640259Y-69630701D01*
X75632909Y-69614609D01*
X75572091Y-69451551D01*
X75564334Y-69430755D01*
X75559355Y-69413797D01*
X75517647Y-69222063D01*
X75515130Y-69204556D01*
X75500658Y-69002210D01*
X75500500Y-68997786D01*
X75500500Y-66690001D01*
X81049500Y-66690001D01*
X81049501Y-66690018D01*
X81060000Y-66792796D01*
X81060001Y-66792799D01*
X81108078Y-66937883D01*
X81115186Y-66959334D01*
X81207288Y-67108656D01*
X81331344Y-67232712D01*
X81480666Y-67324814D01*
X81647203Y-67379999D01*
X81749991Y-67390500D01*
X83350008Y-67390499D01*
X83452797Y-67379999D01*
X83619334Y-67324814D01*
X83768656Y-67232712D01*
X83892712Y-67108656D01*
X83984814Y-66959334D01*
X84039999Y-66792797D01*
X84050500Y-66690009D01*
X84050500Y-66040001D01*
X88864532Y-66040001D01*
X88884364Y-66266686D01*
X88884366Y-66266697D01*
X88943258Y-66486488D01*
X88943261Y-66486497D01*
X89039431Y-66692732D01*
X89039432Y-66692734D01*
X89169954Y-66879141D01*
X89330858Y-67040045D01*
X89330861Y-67040047D01*
X89517266Y-67170568D01*
X89723504Y-67266739D01*
X89943308Y-67325635D01*
X90105230Y-67339801D01*
X90169998Y-67345468D01*
X90170000Y-67345468D01*
X90170002Y-67345468D01*
X90226673Y-67340509D01*
X90396692Y-67325635D01*
X90616496Y-67266739D01*
X90822734Y-67170568D01*
X91009139Y-67040047D01*
X91170047Y-66879139D01*
X91300568Y-66692734D01*
X91396739Y-66486496D01*
X91449390Y-66290000D01*
X93919364Y-66290000D01*
X93976567Y-66503486D01*
X93976570Y-66503492D01*
X94076399Y-66717578D01*
X94211894Y-66911082D01*
X94378917Y-67078105D01*
X94572421Y-67213600D01*
X94786507Y-67313429D01*
X94786516Y-67313433D01*
X95000000Y-67370634D01*
X95000000Y-66652301D01*
X95019685Y-66585262D01*
X95072489Y-66539507D01*
X95141647Y-66529563D01*
X95214237Y-66540000D01*
X95214238Y-66540000D01*
X95285762Y-66540000D01*
X95285763Y-66540000D01*
X95358353Y-66529563D01*
X95427512Y-66539507D01*
X95480315Y-66585262D01*
X95500000Y-66652301D01*
X95500000Y-67370633D01*
X95713483Y-67313433D01*
X95713492Y-67313429D01*
X95927578Y-67213600D01*
X96121082Y-67078105D01*
X96288105Y-66911082D01*
X96418119Y-66725405D01*
X96472696Y-66681781D01*
X96542195Y-66674588D01*
X96604549Y-66706110D01*
X96621269Y-66725405D01*
X96751505Y-66911401D01*
X96918599Y-67078495D01*
X97015384Y-67146265D01*
X97112165Y-67214032D01*
X97112167Y-67214033D01*
X97112170Y-67214035D01*
X97326337Y-67313903D01*
X97554592Y-67375063D01*
X97731034Y-67390500D01*
X97789999Y-67395659D01*
X97790000Y-67395659D01*
X97790001Y-67395659D01*
X97848966Y-67390500D01*
X98025408Y-67375063D01*
X98253663Y-67313903D01*
X98467830Y-67214035D01*
X98661401Y-67078495D01*
X98783329Y-66956566D01*
X98844648Y-66923084D01*
X98914340Y-66928068D01*
X98970274Y-66969939D01*
X98987189Y-67000917D01*
X99036202Y-67132328D01*
X99036206Y-67132335D01*
X99122452Y-67247544D01*
X99122455Y-67247547D01*
X99237664Y-67333793D01*
X99237671Y-67333797D01*
X99372517Y-67384091D01*
X99372516Y-67384091D01*
X99379444Y-67384835D01*
X99432127Y-67390500D01*
X101227872Y-67390499D01*
X101287483Y-67384091D01*
X101422331Y-67333796D01*
X101537546Y-67247546D01*
X101623796Y-67132331D01*
X101674091Y-66997483D01*
X101680500Y-66937873D01*
X101680499Y-65142128D01*
X101674091Y-65082517D01*
X101672810Y-65079083D01*
X101623797Y-64947671D01*
X101623793Y-64947664D01*
X101546422Y-64844310D01*
X101522004Y-64778846D01*
X101536855Y-64710573D01*
X101546411Y-64695702D01*
X101623796Y-64592331D01*
X101674091Y-64457483D01*
X101680500Y-64397873D01*
X101680499Y-63500000D01*
X107864341Y-63500000D01*
X107884936Y-63735403D01*
X107884938Y-63735413D01*
X107946094Y-63963655D01*
X107946096Y-63963659D01*
X107946097Y-63963663D01*
X108015408Y-64112301D01*
X108045965Y-64177830D01*
X108045967Y-64177834D01*
X108098387Y-64252697D01*
X108181505Y-64371401D01*
X108348599Y-64538495D01*
X108425483Y-64592330D01*
X108542165Y-64674032D01*
X108542167Y-64674033D01*
X108542170Y-64674035D01*
X108756337Y-64773903D01*
X108756343Y-64773904D01*
X108756344Y-64773905D01*
X108795356Y-64784358D01*
X108984592Y-64835063D01*
X109172918Y-64851539D01*
X109219999Y-64855659D01*
X109220000Y-64855659D01*
X109220001Y-64855659D01*
X109259234Y-64852226D01*
X109455408Y-64835063D01*
X109683663Y-64773903D01*
X109897830Y-64674035D01*
X110091401Y-64538495D01*
X110258495Y-64371401D01*
X110258505Y-64371385D01*
X110260015Y-64369588D01*
X110260890Y-64369005D01*
X110262323Y-64367573D01*
X110262610Y-64367860D01*
X110318185Y-64330884D01*
X110388046Y-64329772D01*
X110447418Y-64366607D01*
X110472713Y-64410283D01*
X110475640Y-64419117D01*
X110475643Y-64419124D01*
X110567684Y-64568345D01*
X110691654Y-64692315D01*
X110840875Y-64784356D01*
X110840880Y-64784358D01*
X111007302Y-64839505D01*
X111007309Y-64839506D01*
X111110019Y-64849999D01*
X111509999Y-64849999D01*
X111510000Y-64849998D01*
X111510000Y-64112301D01*
X111529685Y-64045262D01*
X111582489Y-63999507D01*
X111651647Y-63989563D01*
X111724237Y-64000000D01*
X111724238Y-64000000D01*
X111795762Y-64000000D01*
X111795763Y-64000000D01*
X111868353Y-63989563D01*
X111937512Y-63999507D01*
X111990315Y-64045262D01*
X112010000Y-64112301D01*
X112010000Y-64849999D01*
X112409972Y-64849999D01*
X112409986Y-64849998D01*
X112512697Y-64839505D01*
X112679119Y-64784358D01*
X112679124Y-64784356D01*
X112828345Y-64692315D01*
X112952315Y-64568345D01*
X113044356Y-64419124D01*
X113044358Y-64419119D01*
X113099505Y-64252697D01*
X113099506Y-64252690D01*
X113109999Y-64149986D01*
X113110000Y-64149973D01*
X113110000Y-63750000D01*
X112373347Y-63750000D01*
X112306308Y-63730315D01*
X112260553Y-63677511D01*
X112250609Y-63608353D01*
X112254369Y-63591067D01*
X112260000Y-63571888D01*
X112260000Y-63428111D01*
X112254369Y-63408933D01*
X112254370Y-63339064D01*
X112292145Y-63280286D01*
X112355701Y-63251262D01*
X112373347Y-63250000D01*
X113109999Y-63250000D01*
X113109999Y-62850028D01*
X113109998Y-62850013D01*
X113099505Y-62747302D01*
X113044358Y-62580880D01*
X113044356Y-62580875D01*
X112952315Y-62431654D01*
X112828345Y-62307684D01*
X112679124Y-62215643D01*
X112679117Y-62215640D01*
X112670283Y-62212713D01*
X112612839Y-62172939D01*
X112586018Y-62108422D01*
X112598335Y-62039647D01*
X112627682Y-62002432D01*
X112627573Y-62002323D01*
X112628495Y-62001400D01*
X112629588Y-62000015D01*
X112631385Y-61998505D01*
X112631401Y-61998495D01*
X112798495Y-61831401D01*
X112934035Y-61637830D01*
X113033903Y-61423663D01*
X113095063Y-61195408D01*
X113115659Y-60960000D01*
X113095063Y-60724592D01*
X113033903Y-60496337D01*
X112934035Y-60282171D01*
X112928731Y-60274595D01*
X112798494Y-60088597D01*
X112631402Y-59921506D01*
X112631396Y-59921501D01*
X112445842Y-59791575D01*
X112402217Y-59736998D01*
X112395023Y-59667500D01*
X112426546Y-59605145D01*
X112445842Y-59588425D01*
X112554515Y-59512331D01*
X112631401Y-59458495D01*
X112798495Y-59291401D01*
X112934035Y-59097830D01*
X113033903Y-58883663D01*
X113095063Y-58655408D01*
X113115659Y-58420000D01*
X113095063Y-58184592D01*
X113033903Y-57956337D01*
X112934035Y-57742171D01*
X112928731Y-57734595D01*
X112798494Y-57548597D01*
X112631402Y-57381506D01*
X112631395Y-57381501D01*
X112437834Y-57245967D01*
X112437830Y-57245965D01*
X112429964Y-57242297D01*
X112223663Y-57146097D01*
X112223659Y-57146096D01*
X112223655Y-57146094D01*
X111995413Y-57084938D01*
X111995403Y-57084936D01*
X111760001Y-57064341D01*
X111759999Y-57064341D01*
X111524596Y-57084936D01*
X111524586Y-57084938D01*
X111296344Y-57146094D01*
X111296335Y-57146098D01*
X111082171Y-57245964D01*
X111082169Y-57245965D01*
X110888597Y-57381505D01*
X110721505Y-57548597D01*
X110591575Y-57734158D01*
X110536998Y-57777783D01*
X110467500Y-57784977D01*
X110405145Y-57753454D01*
X110388425Y-57734158D01*
X110258494Y-57548597D01*
X110091402Y-57381506D01*
X110091395Y-57381501D01*
X109897834Y-57245967D01*
X109897830Y-57245965D01*
X109889964Y-57242297D01*
X109683663Y-57146097D01*
X109683659Y-57146096D01*
X109683655Y-57146094D01*
X109455413Y-57084938D01*
X109455403Y-57084936D01*
X109220001Y-57064341D01*
X109219999Y-57064341D01*
X108984596Y-57084936D01*
X108984586Y-57084938D01*
X108756344Y-57146094D01*
X108756335Y-57146098D01*
X108542171Y-57245964D01*
X108542169Y-57245965D01*
X108348597Y-57381505D01*
X108181505Y-57548597D01*
X108045965Y-57742169D01*
X108045964Y-57742171D01*
X107946098Y-57956335D01*
X107946094Y-57956344D01*
X107884938Y-58184586D01*
X107884936Y-58184596D01*
X107864341Y-58419999D01*
X107864341Y-58420000D01*
X107884936Y-58655403D01*
X107884938Y-58655413D01*
X107946094Y-58883655D01*
X107946096Y-58883659D01*
X107946097Y-58883663D01*
X108015408Y-59032301D01*
X108045965Y-59097830D01*
X108045967Y-59097834D01*
X108154281Y-59252521D01*
X108181504Y-59291400D01*
X108181506Y-59291402D01*
X108348597Y-59458493D01*
X108348603Y-59458498D01*
X108534158Y-59588425D01*
X108577783Y-59643002D01*
X108584977Y-59712500D01*
X108553454Y-59774855D01*
X108534158Y-59791575D01*
X108348597Y-59921505D01*
X108181505Y-60088597D01*
X108045965Y-60282169D01*
X108045964Y-60282171D01*
X107946098Y-60496335D01*
X107946094Y-60496344D01*
X107884938Y-60724586D01*
X107884936Y-60724596D01*
X107864341Y-60959999D01*
X107864341Y-60960000D01*
X107884936Y-61195403D01*
X107884938Y-61195413D01*
X107946094Y-61423655D01*
X107946096Y-61423659D01*
X107946097Y-61423663D01*
X108015408Y-61572301D01*
X108045965Y-61637830D01*
X108045967Y-61637834D01*
X108154281Y-61792521D01*
X108181504Y-61831400D01*
X108181506Y-61831402D01*
X108348597Y-61998493D01*
X108348603Y-61998498D01*
X108534158Y-62128425D01*
X108577783Y-62183002D01*
X108584977Y-62252500D01*
X108553454Y-62314855D01*
X108534158Y-62331575D01*
X108348597Y-62461505D01*
X108181505Y-62628597D01*
X108045965Y-62822169D01*
X108045964Y-62822171D01*
X107946098Y-63036335D01*
X107946094Y-63036344D01*
X107884938Y-63264586D01*
X107884936Y-63264596D01*
X107864341Y-63499999D01*
X107864341Y-63500000D01*
X101680499Y-63500000D01*
X101680499Y-62602128D01*
X101674091Y-62542517D01*
X101672810Y-62539083D01*
X101623797Y-62407671D01*
X101623793Y-62407664D01*
X101546422Y-62304310D01*
X101522004Y-62238846D01*
X101536855Y-62170573D01*
X101546411Y-62155702D01*
X101623796Y-62052331D01*
X101674091Y-61917483D01*
X101680500Y-61857873D01*
X101680499Y-60062128D01*
X101674091Y-60002517D01*
X101672810Y-59999083D01*
X101623797Y-59867671D01*
X101623795Y-59867668D01*
X101546421Y-59764309D01*
X101522004Y-59698848D01*
X101536855Y-59630575D01*
X101546416Y-59615696D01*
X101623796Y-59512331D01*
X101674091Y-59377483D01*
X101680500Y-59317873D01*
X101680499Y-57522128D01*
X101674091Y-57462517D01*
X101672810Y-57459083D01*
X101623797Y-57327671D01*
X101623793Y-57327664D01*
X101537547Y-57212455D01*
X101537544Y-57212452D01*
X101422335Y-57126206D01*
X101422328Y-57126202D01*
X101287482Y-57075908D01*
X101287483Y-57075908D01*
X101227883Y-57069501D01*
X101227881Y-57069500D01*
X101227873Y-57069500D01*
X101227864Y-57069500D01*
X99432129Y-57069500D01*
X99432123Y-57069501D01*
X99372516Y-57075908D01*
X99237671Y-57126202D01*
X99237664Y-57126206D01*
X99122455Y-57212452D01*
X99122452Y-57212455D01*
X99036206Y-57327664D01*
X99036203Y-57327669D01*
X98987189Y-57459083D01*
X98945317Y-57515016D01*
X98879853Y-57539433D01*
X98811580Y-57524581D01*
X98783326Y-57503430D01*
X98661402Y-57381506D01*
X98661395Y-57381501D01*
X98467834Y-57245967D01*
X98467830Y-57245965D01*
X98459964Y-57242297D01*
X98253663Y-57146097D01*
X98253659Y-57146096D01*
X98253655Y-57146094D01*
X98025413Y-57084938D01*
X98025403Y-57084936D01*
X97790001Y-57064341D01*
X97789999Y-57064341D01*
X97554596Y-57084936D01*
X97554586Y-57084938D01*
X97326344Y-57146094D01*
X97326335Y-57146098D01*
X97112171Y-57245964D01*
X97112169Y-57245965D01*
X96918597Y-57381505D01*
X96751508Y-57548594D01*
X96621269Y-57734595D01*
X96566692Y-57778219D01*
X96497193Y-57785412D01*
X96434839Y-57753890D01*
X96418119Y-57734594D01*
X96288113Y-57548926D01*
X96288108Y-57548920D01*
X96121082Y-57381894D01*
X95927578Y-57246399D01*
X95713492Y-57146570D01*
X95713486Y-57146567D01*
X95500000Y-57089364D01*
X95500000Y-57807698D01*
X95480315Y-57874737D01*
X95427511Y-57920492D01*
X95358355Y-57930436D01*
X95285766Y-57920000D01*
X95285763Y-57920000D01*
X95214237Y-57920000D01*
X95214233Y-57920000D01*
X95141645Y-57930436D01*
X95072487Y-57920492D01*
X95019684Y-57874736D01*
X95000000Y-57807698D01*
X95000000Y-57089364D01*
X94999999Y-57089364D01*
X94786513Y-57146567D01*
X94786507Y-57146570D01*
X94572422Y-57246399D01*
X94572420Y-57246400D01*
X94378926Y-57381886D01*
X94378920Y-57381891D01*
X94211891Y-57548920D01*
X94211886Y-57548926D01*
X94076400Y-57742420D01*
X94076399Y-57742422D01*
X93976570Y-57956507D01*
X93976567Y-57956513D01*
X93919364Y-58169999D01*
X93919364Y-58170000D01*
X94636653Y-58170000D01*
X94703692Y-58189685D01*
X94749447Y-58242489D01*
X94759391Y-58311647D01*
X94755631Y-58328933D01*
X94750000Y-58348111D01*
X94750000Y-58491888D01*
X94755631Y-58511067D01*
X94755630Y-58580936D01*
X94717855Y-58639714D01*
X94654299Y-58668738D01*
X94636653Y-58670000D01*
X93919364Y-58670000D01*
X93976567Y-58883486D01*
X93976570Y-58883492D01*
X94076399Y-59097578D01*
X94211894Y-59291082D01*
X94378917Y-59458105D01*
X94565031Y-59588425D01*
X94608656Y-59643003D01*
X94615848Y-59712501D01*
X94584326Y-59774856D01*
X94565031Y-59791575D01*
X94378922Y-59921890D01*
X94378920Y-59921891D01*
X94211891Y-60088920D01*
X94211886Y-60088926D01*
X94076400Y-60282420D01*
X94076399Y-60282422D01*
X93976570Y-60496507D01*
X93976567Y-60496513D01*
X93919364Y-60709999D01*
X93919364Y-60710000D01*
X94636653Y-60710000D01*
X94703692Y-60729685D01*
X94749447Y-60782489D01*
X94759391Y-60851647D01*
X94755631Y-60868933D01*
X94750000Y-60888111D01*
X94750000Y-61031888D01*
X94755631Y-61051067D01*
X94755630Y-61120936D01*
X94717855Y-61179714D01*
X94654299Y-61208738D01*
X94636653Y-61210000D01*
X93919364Y-61210000D01*
X93976567Y-61423486D01*
X93976570Y-61423492D01*
X94076399Y-61637578D01*
X94211894Y-61831082D01*
X94378917Y-61998105D01*
X94565031Y-62128425D01*
X94608656Y-62183003D01*
X94615848Y-62252501D01*
X94584326Y-62314856D01*
X94565031Y-62331575D01*
X94378922Y-62461890D01*
X94378920Y-62461891D01*
X94211891Y-62628920D01*
X94211886Y-62628926D01*
X94076400Y-62822420D01*
X94076399Y-62822422D01*
X93976570Y-63036507D01*
X93976567Y-63036513D01*
X93919364Y-63249999D01*
X93919364Y-63250000D01*
X94636653Y-63250000D01*
X94703692Y-63269685D01*
X94749447Y-63322489D01*
X94759391Y-63391647D01*
X94755631Y-63408933D01*
X94750000Y-63428111D01*
X94750000Y-63571888D01*
X94755631Y-63591067D01*
X94755630Y-63660936D01*
X94717855Y-63719714D01*
X94654299Y-63748738D01*
X94636653Y-63750000D01*
X93919364Y-63750000D01*
X93976567Y-63963486D01*
X93976570Y-63963492D01*
X94076399Y-64177578D01*
X94211894Y-64371082D01*
X94378917Y-64538105D01*
X94565031Y-64668425D01*
X94608656Y-64723003D01*
X94615848Y-64792501D01*
X94584326Y-64854856D01*
X94565031Y-64871575D01*
X94378922Y-65001890D01*
X94378920Y-65001891D01*
X94211891Y-65168920D01*
X94211886Y-65168926D01*
X94076400Y-65362420D01*
X94076399Y-65362422D01*
X93976570Y-65576507D01*
X93976567Y-65576513D01*
X93919364Y-65789999D01*
X93919364Y-65790000D01*
X94636653Y-65790000D01*
X94703692Y-65809685D01*
X94749447Y-65862489D01*
X94759391Y-65931647D01*
X94755631Y-65948933D01*
X94750000Y-65968111D01*
X94750000Y-66111888D01*
X94755631Y-66131067D01*
X94755630Y-66200936D01*
X94717855Y-66259714D01*
X94654299Y-66288738D01*
X94636653Y-66290000D01*
X93919364Y-66290000D01*
X91449390Y-66290000D01*
X91455635Y-66266692D01*
X91475468Y-66040000D01*
X91455635Y-65813308D01*
X91396739Y-65593504D01*
X91300568Y-65387266D01*
X91170047Y-65200861D01*
X91170045Y-65200858D01*
X91009141Y-65039954D01*
X90822734Y-64909432D01*
X90822732Y-64909431D01*
X90616497Y-64813261D01*
X90616488Y-64813258D01*
X90396697Y-64754366D01*
X90396693Y-64754365D01*
X90396692Y-64754365D01*
X90396691Y-64754364D01*
X90396686Y-64754364D01*
X90170002Y-64734532D01*
X90169998Y-64734532D01*
X89943313Y-64754364D01*
X89943302Y-64754366D01*
X89723511Y-64813258D01*
X89723502Y-64813261D01*
X89517267Y-64909431D01*
X89517265Y-64909432D01*
X89330858Y-65039954D01*
X89169954Y-65200858D01*
X89039432Y-65387265D01*
X89039431Y-65387267D01*
X88943261Y-65593502D01*
X88943258Y-65593511D01*
X88884366Y-65813302D01*
X88884364Y-65813313D01*
X88864532Y-66039998D01*
X88864532Y-66040001D01*
X84050500Y-66040001D01*
X84050499Y-65389992D01*
X84050220Y-65387265D01*
X84039999Y-65287203D01*
X84039998Y-65287200D01*
X84011387Y-65200858D01*
X83984814Y-65120666D01*
X83892712Y-64971344D01*
X83768656Y-64847288D01*
X83649676Y-64773901D01*
X83613441Y-64751551D01*
X83566717Y-64699603D01*
X83555494Y-64630640D01*
X83583338Y-64566558D01*
X83590857Y-64558331D01*
X83738105Y-64411082D01*
X83873600Y-64217578D01*
X83973429Y-64003492D01*
X83973432Y-64003486D01*
X84030636Y-63790000D01*
X83163347Y-63790000D01*
X83096308Y-63770315D01*
X83050553Y-63717511D01*
X83040609Y-63648353D01*
X83044369Y-63631067D01*
X83050000Y-63611888D01*
X83050000Y-63468111D01*
X83044369Y-63448933D01*
X83044370Y-63379064D01*
X83082145Y-63320286D01*
X83145701Y-63291262D01*
X83163347Y-63290000D01*
X84030636Y-63290000D01*
X84030635Y-63289999D01*
X83973432Y-63076513D01*
X83973429Y-63076507D01*
X83873600Y-62862422D01*
X83873599Y-62862420D01*
X83738113Y-62668926D01*
X83738108Y-62668920D01*
X83571079Y-62501891D01*
X83571073Y-62501886D01*
X83377579Y-62366400D01*
X83377577Y-62366399D01*
X83163492Y-62266570D01*
X83163483Y-62266566D01*
X82935326Y-62205432D01*
X82935316Y-62205430D01*
X82800000Y-62193590D01*
X82800000Y-62927698D01*
X82780315Y-62994737D01*
X82727511Y-63040492D01*
X82658355Y-63050436D01*
X82585766Y-63040000D01*
X82585763Y-63040000D01*
X82514237Y-63040000D01*
X82514233Y-63040000D01*
X82441644Y-63050436D01*
X82372486Y-63040492D01*
X82319683Y-62994736D01*
X82299999Y-62927698D01*
X82299999Y-62193590D01*
X82164683Y-62205430D01*
X82164673Y-62205432D01*
X81936516Y-62266566D01*
X81936507Y-62266570D01*
X81722422Y-62366399D01*
X81722420Y-62366400D01*
X81528926Y-62501886D01*
X81528920Y-62501891D01*
X81361894Y-62668917D01*
X81226399Y-62862421D01*
X81126570Y-63076507D01*
X81126567Y-63076513D01*
X81069364Y-63289999D01*
X81069364Y-63290000D01*
X81936653Y-63290000D01*
X82003692Y-63309685D01*
X82049447Y-63362489D01*
X82059391Y-63431647D01*
X82055631Y-63448933D01*
X82050000Y-63468111D01*
X82050000Y-63611888D01*
X82055631Y-63631067D01*
X82055630Y-63700936D01*
X82017855Y-63759714D01*
X81954299Y-63788738D01*
X81936653Y-63790000D01*
X81069364Y-63790000D01*
X81126567Y-64003486D01*
X81126570Y-64003492D01*
X81226399Y-64217577D01*
X81226400Y-64217579D01*
X81361886Y-64411073D01*
X81509143Y-64558331D01*
X81542627Y-64619654D01*
X81537643Y-64689346D01*
X81495771Y-64745279D01*
X81486558Y-64751550D01*
X81331347Y-64847285D01*
X81331343Y-64847288D01*
X81207289Y-64971342D01*
X81115187Y-65120663D01*
X81115185Y-65120668D01*
X81099196Y-65168920D01*
X81060001Y-65287203D01*
X81060001Y-65287204D01*
X81060000Y-65287204D01*
X81049500Y-65389983D01*
X81049500Y-66690001D01*
X75500500Y-66690001D01*
X75500500Y-56827844D01*
X81150000Y-56827844D01*
X81156401Y-56887372D01*
X81156403Y-56887379D01*
X81206645Y-57022086D01*
X81206649Y-57022093D01*
X81292809Y-57137187D01*
X81292812Y-57137190D01*
X81407906Y-57223350D01*
X81407913Y-57223354D01*
X81542620Y-57273596D01*
X81542627Y-57273598D01*
X81602155Y-57279999D01*
X81602172Y-57280000D01*
X82300000Y-57280000D01*
X82300000Y-56441821D01*
X82319685Y-56374782D01*
X82372489Y-56329027D01*
X82441647Y-56319083D01*
X82460547Y-56323329D01*
X82482173Y-56330000D01*
X82583723Y-56330000D01*
X82583724Y-56330000D01*
X82657519Y-56318877D01*
X82726742Y-56328350D01*
X82779857Y-56373744D01*
X82799997Y-56440648D01*
X82800000Y-56441492D01*
X82800000Y-57280000D01*
X83497828Y-57280000D01*
X83497844Y-57279999D01*
X83557372Y-57273598D01*
X83557379Y-57273596D01*
X83692086Y-57223354D01*
X83692093Y-57223350D01*
X83807187Y-57137190D01*
X83807190Y-57137187D01*
X83893350Y-57022093D01*
X83893355Y-57022084D01*
X83922075Y-56945081D01*
X83963945Y-56889147D01*
X84029409Y-56864729D01*
X84097682Y-56879580D01*
X84129484Y-56904428D01*
X84138216Y-56913913D01*
X84138219Y-56913915D01*
X84138222Y-56913918D01*
X84321365Y-57056464D01*
X84321371Y-57056468D01*
X84321374Y-57056470D01*
X84525497Y-57166936D01*
X84579479Y-57185468D01*
X84745015Y-57242297D01*
X84745017Y-57242297D01*
X84745019Y-57242298D01*
X84973951Y-57280500D01*
X84973952Y-57280500D01*
X85206048Y-57280500D01*
X85206049Y-57280500D01*
X85434981Y-57242298D01*
X85654503Y-57166936D01*
X85858626Y-57056470D01*
X86041784Y-56913913D01*
X86198979Y-56743153D01*
X86325924Y-56548849D01*
X86419157Y-56336300D01*
X86476134Y-56111305D01*
X86476516Y-56106697D01*
X86495300Y-55880006D01*
X86495300Y-55880001D01*
X88864532Y-55880001D01*
X88884364Y-56106686D01*
X88884366Y-56106697D01*
X88943258Y-56326488D01*
X88943261Y-56326497D01*
X89039431Y-56532732D01*
X89039432Y-56532734D01*
X89169954Y-56719141D01*
X89330858Y-56880045D01*
X89330861Y-56880047D01*
X89517266Y-57010568D01*
X89723504Y-57106739D01*
X89943308Y-57165635D01*
X90105230Y-57179801D01*
X90169998Y-57185468D01*
X90170000Y-57185468D01*
X90170002Y-57185468D01*
X90226673Y-57180509D01*
X90396692Y-57165635D01*
X90616496Y-57106739D01*
X90822734Y-57010568D01*
X91009139Y-56880047D01*
X91170047Y-56719139D01*
X91300568Y-56532734D01*
X91396739Y-56326496D01*
X91455635Y-56106692D01*
X91472634Y-55912384D01*
X91475468Y-55880001D01*
X91475468Y-55879998D01*
X91460922Y-55713740D01*
X91455635Y-55653308D01*
X91396739Y-55433504D01*
X91300568Y-55227266D01*
X91170047Y-55040861D01*
X91170045Y-55040858D01*
X91009141Y-54879954D01*
X90822734Y-54749432D01*
X90822732Y-54749431D01*
X90616497Y-54653261D01*
X90616488Y-54653258D01*
X90396697Y-54594366D01*
X90396693Y-54594365D01*
X90396692Y-54594365D01*
X90396691Y-54594364D01*
X90396686Y-54594364D01*
X90170002Y-54574532D01*
X90169998Y-54574532D01*
X89943313Y-54594364D01*
X89943302Y-54594366D01*
X89723511Y-54653258D01*
X89723502Y-54653261D01*
X89517267Y-54749431D01*
X89517265Y-54749432D01*
X89330858Y-54879954D01*
X89169954Y-55040858D01*
X89039432Y-55227265D01*
X89039431Y-55227267D01*
X88943261Y-55433502D01*
X88943258Y-55433511D01*
X88884366Y-55653302D01*
X88884364Y-55653313D01*
X88864532Y-55879998D01*
X88864532Y-55880001D01*
X86495300Y-55880001D01*
X86495300Y-55879993D01*
X86476135Y-55648702D01*
X86476133Y-55648691D01*
X86419157Y-55423699D01*
X86325924Y-55211151D01*
X86198983Y-55016852D01*
X86198980Y-55016849D01*
X86198979Y-55016847D01*
X86041784Y-54846087D01*
X86041779Y-54846083D01*
X86041777Y-54846081D01*
X85858634Y-54703535D01*
X85858628Y-54703531D01*
X85654504Y-54593064D01*
X85654495Y-54593061D01*
X85434984Y-54517702D01*
X85247404Y-54486401D01*
X85206049Y-54479500D01*
X84973951Y-54479500D01*
X84932596Y-54486401D01*
X84745015Y-54517702D01*
X84525504Y-54593061D01*
X84525495Y-54593064D01*
X84321371Y-54703531D01*
X84321365Y-54703535D01*
X84138222Y-54846081D01*
X84138215Y-54846087D01*
X84129484Y-54855572D01*
X84069595Y-54891561D01*
X83999757Y-54889458D01*
X83942143Y-54849932D01*
X83922075Y-54814918D01*
X83893355Y-54737915D01*
X83893350Y-54737906D01*
X83807190Y-54622812D01*
X83807187Y-54622809D01*
X83692093Y-54536649D01*
X83692086Y-54536645D01*
X83557379Y-54486403D01*
X83557372Y-54486401D01*
X83497844Y-54480000D01*
X82800000Y-54480000D01*
X82800000Y-55318178D01*
X82780315Y-55385217D01*
X82727511Y-55430972D01*
X82658353Y-55440916D01*
X82639454Y-55436670D01*
X82617829Y-55430000D01*
X82617827Y-55430000D01*
X82516276Y-55430000D01*
X82516268Y-55430000D01*
X82442481Y-55441122D01*
X82373256Y-55431649D01*
X82320143Y-55386254D01*
X82300003Y-55319350D01*
X82300000Y-55318507D01*
X82300000Y-54480000D01*
X81602155Y-54480000D01*
X81542627Y-54486401D01*
X81542620Y-54486403D01*
X81407913Y-54536645D01*
X81407906Y-54536649D01*
X81292812Y-54622809D01*
X81292809Y-54622812D01*
X81206649Y-54737906D01*
X81206645Y-54737913D01*
X81156403Y-54872620D01*
X81156401Y-54872627D01*
X81150000Y-54932155D01*
X81150000Y-55630000D01*
X81989997Y-55630000D01*
X82057036Y-55649685D01*
X82102791Y-55702489D01*
X82112735Y-55771647D01*
X82110888Y-55781592D01*
X82096189Y-55845992D01*
X82096189Y-55845993D01*
X82107021Y-55990532D01*
X82104920Y-55990689D01*
X82101405Y-56048139D01*
X82060110Y-56104499D01*
X81994899Y-56129587D01*
X81984784Y-56130000D01*
X81150000Y-56130000D01*
X81150000Y-56827844D01*
X75500500Y-56827844D01*
X75500500Y-53002212D01*
X75500658Y-52997788D01*
X75515130Y-52795443D01*
X75515131Y-52795442D01*
X75515130Y-52795436D01*
X75517646Y-52777938D01*
X75559356Y-52586199D01*
X75564333Y-52569248D01*
X75632911Y-52385385D01*
X75640259Y-52369298D01*
X75702815Y-52254734D01*
X75734291Y-52197089D01*
X75743845Y-52182221D01*
X75861448Y-52025123D01*
X75873020Y-52011769D01*
X76011769Y-51873020D01*
X76025123Y-51861448D01*
X76182221Y-51743845D01*
X76197089Y-51734291D01*
X76369298Y-51640258D01*
X76385385Y-51632911D01*
X76569248Y-51564333D01*
X76586199Y-51559356D01*
X76777938Y-51517646D01*
X76795436Y-51515130D01*
X76997791Y-51500657D01*
X77002214Y-51500500D01*
X77065892Y-51500500D01*
X117934108Y-51500500D01*
X117997786Y-51500500D01*
X118002208Y-51500657D01*
G37*
%TD.AperFunction*%
%TD*%
M02*
