%TF.GenerationSoftware,KiCad,Pcbnew,7.0.7*%
%TF.CreationDate,2024-12-21T21:28:54+01:00*%
%TF.ProjectId,servo_board,73657276-6f5f-4626-9f61-72642e6b6963,1.0*%
%TF.SameCoordinates,Original*%
%TF.FileFunction,Legend,Bot*%
%TF.FilePolarity,Positive*%
%FSLAX46Y46*%
G04 Gerber Fmt 4.6, Leading zero omitted, Abs format (unit mm)*
G04 Created by KiCad (PCBNEW 7.0.7) date 2024-12-21 21:28:54*
%MOMM*%
%LPD*%
G01*
G04 APERTURE LIST*
%ADD10C,0.150000*%
G04 APERTURE END LIST*
D10*
X115758458Y-52259819D02*
X115520363Y-53259819D01*
X115520363Y-53259819D02*
X115329887Y-52545533D01*
X115329887Y-52545533D02*
X115139411Y-53259819D01*
X115139411Y-53259819D02*
X114901316Y-52259819D01*
X114567982Y-53212200D02*
X114425125Y-53259819D01*
X114425125Y-53259819D02*
X114187030Y-53259819D01*
X114187030Y-53259819D02*
X114091792Y-53212200D01*
X114091792Y-53212200D02*
X114044173Y-53164580D01*
X114044173Y-53164580D02*
X113996554Y-53069342D01*
X113996554Y-53069342D02*
X113996554Y-52974104D01*
X113996554Y-52974104D02*
X114044173Y-52878866D01*
X114044173Y-52878866D02*
X114091792Y-52831247D01*
X114091792Y-52831247D02*
X114187030Y-52783628D01*
X114187030Y-52783628D02*
X114377506Y-52736009D01*
X114377506Y-52736009D02*
X114472744Y-52688390D01*
X114472744Y-52688390D02*
X114520363Y-52640771D01*
X114520363Y-52640771D02*
X114567982Y-52545533D01*
X114567982Y-52545533D02*
X114567982Y-52450295D01*
X114567982Y-52450295D02*
X114520363Y-52355057D01*
X114520363Y-52355057D02*
X114472744Y-52307438D01*
X114472744Y-52307438D02*
X114377506Y-52259819D01*
X114377506Y-52259819D02*
X114139411Y-52259819D01*
X114139411Y-52259819D02*
X113996554Y-52307438D01*
X113567982Y-53259819D02*
X113567982Y-52259819D01*
X113567982Y-52640771D02*
X113472744Y-52593152D01*
X113472744Y-52593152D02*
X113282268Y-52593152D01*
X113282268Y-52593152D02*
X113187030Y-52640771D01*
X113187030Y-52640771D02*
X113139411Y-52688390D01*
X113139411Y-52688390D02*
X113091792Y-52783628D01*
X113091792Y-52783628D02*
X113091792Y-53069342D01*
X113091792Y-53069342D02*
X113139411Y-53164580D01*
X113139411Y-53164580D02*
X113187030Y-53212200D01*
X113187030Y-53212200D02*
X113282268Y-53259819D01*
X113282268Y-53259819D02*
X113472744Y-53259819D01*
X113472744Y-53259819D02*
X113567982Y-53212200D01*
X112520363Y-53259819D02*
X112615601Y-53212200D01*
X112615601Y-53212200D02*
X112663220Y-53164580D01*
X112663220Y-53164580D02*
X112710839Y-53069342D01*
X112710839Y-53069342D02*
X112710839Y-52783628D01*
X112710839Y-52783628D02*
X112663220Y-52688390D01*
X112663220Y-52688390D02*
X112615601Y-52640771D01*
X112615601Y-52640771D02*
X112520363Y-52593152D01*
X112520363Y-52593152D02*
X112377506Y-52593152D01*
X112377506Y-52593152D02*
X112282268Y-52640771D01*
X112282268Y-52640771D02*
X112234649Y-52688390D01*
X112234649Y-52688390D02*
X112187030Y-52783628D01*
X112187030Y-52783628D02*
X112187030Y-53069342D01*
X112187030Y-53069342D02*
X112234649Y-53164580D01*
X112234649Y-53164580D02*
X112282268Y-53212200D01*
X112282268Y-53212200D02*
X112377506Y-53259819D01*
X112377506Y-53259819D02*
X112520363Y-53259819D01*
X111901315Y-52593152D02*
X111520363Y-52593152D01*
X111758458Y-52259819D02*
X111758458Y-53116961D01*
X111758458Y-53116961D02*
X111710839Y-53212200D01*
X111710839Y-53212200D02*
X111615601Y-53259819D01*
X111615601Y-53259819D02*
X111520363Y-53259819D01*
X110472743Y-53212200D02*
X110329886Y-53259819D01*
X110329886Y-53259819D02*
X110091791Y-53259819D01*
X110091791Y-53259819D02*
X109996553Y-53212200D01*
X109996553Y-53212200D02*
X109948934Y-53164580D01*
X109948934Y-53164580D02*
X109901315Y-53069342D01*
X109901315Y-53069342D02*
X109901315Y-52974104D01*
X109901315Y-52974104D02*
X109948934Y-52878866D01*
X109948934Y-52878866D02*
X109996553Y-52831247D01*
X109996553Y-52831247D02*
X110091791Y-52783628D01*
X110091791Y-52783628D02*
X110282267Y-52736009D01*
X110282267Y-52736009D02*
X110377505Y-52688390D01*
X110377505Y-52688390D02*
X110425124Y-52640771D01*
X110425124Y-52640771D02*
X110472743Y-52545533D01*
X110472743Y-52545533D02*
X110472743Y-52450295D01*
X110472743Y-52450295D02*
X110425124Y-52355057D01*
X110425124Y-52355057D02*
X110377505Y-52307438D01*
X110377505Y-52307438D02*
X110282267Y-52259819D01*
X110282267Y-52259819D02*
X110044172Y-52259819D01*
X110044172Y-52259819D02*
X109901315Y-52307438D01*
X109091791Y-53212200D02*
X109187029Y-53259819D01*
X109187029Y-53259819D02*
X109377505Y-53259819D01*
X109377505Y-53259819D02*
X109472743Y-53212200D01*
X109472743Y-53212200D02*
X109520362Y-53116961D01*
X109520362Y-53116961D02*
X109520362Y-52736009D01*
X109520362Y-52736009D02*
X109472743Y-52640771D01*
X109472743Y-52640771D02*
X109377505Y-52593152D01*
X109377505Y-52593152D02*
X109187029Y-52593152D01*
X109187029Y-52593152D02*
X109091791Y-52640771D01*
X109091791Y-52640771D02*
X109044172Y-52736009D01*
X109044172Y-52736009D02*
X109044172Y-52831247D01*
X109044172Y-52831247D02*
X109520362Y-52926485D01*
X108615600Y-53259819D02*
X108615600Y-52593152D01*
X108615600Y-52783628D02*
X108567981Y-52688390D01*
X108567981Y-52688390D02*
X108520362Y-52640771D01*
X108520362Y-52640771D02*
X108425124Y-52593152D01*
X108425124Y-52593152D02*
X108329886Y-52593152D01*
X108091790Y-52593152D02*
X107853695Y-53259819D01*
X107853695Y-53259819D02*
X107615600Y-52593152D01*
X107091790Y-53259819D02*
X107187028Y-53212200D01*
X107187028Y-53212200D02*
X107234647Y-53164580D01*
X107234647Y-53164580D02*
X107282266Y-53069342D01*
X107282266Y-53069342D02*
X107282266Y-52783628D01*
X107282266Y-52783628D02*
X107234647Y-52688390D01*
X107234647Y-52688390D02*
X107187028Y-52640771D01*
X107187028Y-52640771D02*
X107091790Y-52593152D01*
X107091790Y-52593152D02*
X106948933Y-52593152D01*
X106948933Y-52593152D02*
X106853695Y-52640771D01*
X106853695Y-52640771D02*
X106806076Y-52688390D01*
X106806076Y-52688390D02*
X106758457Y-52783628D01*
X106758457Y-52783628D02*
X106758457Y-53069342D01*
X106758457Y-53069342D02*
X106806076Y-53164580D01*
X106806076Y-53164580D02*
X106853695Y-53212200D01*
X106853695Y-53212200D02*
X106948933Y-53259819D01*
X106948933Y-53259819D02*
X107091790Y-53259819D01*
X105139409Y-53212200D02*
X105234647Y-53259819D01*
X105234647Y-53259819D02*
X105425123Y-53259819D01*
X105425123Y-53259819D02*
X105520361Y-53212200D01*
X105520361Y-53212200D02*
X105567980Y-53164580D01*
X105567980Y-53164580D02*
X105615599Y-53069342D01*
X105615599Y-53069342D02*
X105615599Y-52783628D01*
X105615599Y-52783628D02*
X105567980Y-52688390D01*
X105567980Y-52688390D02*
X105520361Y-52640771D01*
X105520361Y-52640771D02*
X105425123Y-52593152D01*
X105425123Y-52593152D02*
X105234647Y-52593152D01*
X105234647Y-52593152D02*
X105139409Y-52640771D01*
X104567980Y-53259819D02*
X104663218Y-53212200D01*
X104663218Y-53212200D02*
X104710837Y-53164580D01*
X104710837Y-53164580D02*
X104758456Y-53069342D01*
X104758456Y-53069342D02*
X104758456Y-52783628D01*
X104758456Y-52783628D02*
X104710837Y-52688390D01*
X104710837Y-52688390D02*
X104663218Y-52640771D01*
X104663218Y-52640771D02*
X104567980Y-52593152D01*
X104567980Y-52593152D02*
X104425123Y-52593152D01*
X104425123Y-52593152D02*
X104329885Y-52640771D01*
X104329885Y-52640771D02*
X104282266Y-52688390D01*
X104282266Y-52688390D02*
X104234647Y-52783628D01*
X104234647Y-52783628D02*
X104234647Y-53069342D01*
X104234647Y-53069342D02*
X104282266Y-53164580D01*
X104282266Y-53164580D02*
X104329885Y-53212200D01*
X104329885Y-53212200D02*
X104425123Y-53259819D01*
X104425123Y-53259819D02*
X104567980Y-53259819D01*
X103806075Y-52593152D02*
X103806075Y-53259819D01*
X103806075Y-52688390D02*
X103758456Y-52640771D01*
X103758456Y-52640771D02*
X103663218Y-52593152D01*
X103663218Y-52593152D02*
X103520361Y-52593152D01*
X103520361Y-52593152D02*
X103425123Y-52640771D01*
X103425123Y-52640771D02*
X103377504Y-52736009D01*
X103377504Y-52736009D02*
X103377504Y-53259819D01*
X102901313Y-52593152D02*
X102901313Y-53259819D01*
X102901313Y-52688390D02*
X102853694Y-52640771D01*
X102853694Y-52640771D02*
X102758456Y-52593152D01*
X102758456Y-52593152D02*
X102615599Y-52593152D01*
X102615599Y-52593152D02*
X102520361Y-52640771D01*
X102520361Y-52640771D02*
X102472742Y-52736009D01*
X102472742Y-52736009D02*
X102472742Y-53259819D01*
X101615599Y-53212200D02*
X101710837Y-53259819D01*
X101710837Y-53259819D02*
X101901313Y-53259819D01*
X101901313Y-53259819D02*
X101996551Y-53212200D01*
X101996551Y-53212200D02*
X102044170Y-53116961D01*
X102044170Y-53116961D02*
X102044170Y-52736009D01*
X102044170Y-52736009D02*
X101996551Y-52640771D01*
X101996551Y-52640771D02*
X101901313Y-52593152D01*
X101901313Y-52593152D02*
X101710837Y-52593152D01*
X101710837Y-52593152D02*
X101615599Y-52640771D01*
X101615599Y-52640771D02*
X101567980Y-52736009D01*
X101567980Y-52736009D02*
X101567980Y-52831247D01*
X101567980Y-52831247D02*
X102044170Y-52926485D01*
X100710837Y-53212200D02*
X100806075Y-53259819D01*
X100806075Y-53259819D02*
X100996551Y-53259819D01*
X100996551Y-53259819D02*
X101091789Y-53212200D01*
X101091789Y-53212200D02*
X101139408Y-53164580D01*
X101139408Y-53164580D02*
X101187027Y-53069342D01*
X101187027Y-53069342D02*
X101187027Y-52783628D01*
X101187027Y-52783628D02*
X101139408Y-52688390D01*
X101139408Y-52688390D02*
X101091789Y-52640771D01*
X101091789Y-52640771D02*
X100996551Y-52593152D01*
X100996551Y-52593152D02*
X100806075Y-52593152D01*
X100806075Y-52593152D02*
X100710837Y-52640771D01*
X100425122Y-52593152D02*
X100044170Y-52593152D01*
X100282265Y-52259819D02*
X100282265Y-53116961D01*
X100282265Y-53116961D02*
X100234646Y-53212200D01*
X100234646Y-53212200D02*
X100139408Y-53259819D01*
X100139408Y-53259819D02*
X100044170Y-53259819D01*
X99567979Y-53259819D02*
X99663217Y-53212200D01*
X99663217Y-53212200D02*
X99710836Y-53164580D01*
X99710836Y-53164580D02*
X99758455Y-53069342D01*
X99758455Y-53069342D02*
X99758455Y-52783628D01*
X99758455Y-52783628D02*
X99710836Y-52688390D01*
X99710836Y-52688390D02*
X99663217Y-52640771D01*
X99663217Y-52640771D02*
X99567979Y-52593152D01*
X99567979Y-52593152D02*
X99425122Y-52593152D01*
X99425122Y-52593152D02*
X99329884Y-52640771D01*
X99329884Y-52640771D02*
X99282265Y-52688390D01*
X99282265Y-52688390D02*
X99234646Y-52783628D01*
X99234646Y-52783628D02*
X99234646Y-53069342D01*
X99234646Y-53069342D02*
X99282265Y-53164580D01*
X99282265Y-53164580D02*
X99329884Y-53212200D01*
X99329884Y-53212200D02*
X99425122Y-53259819D01*
X99425122Y-53259819D02*
X99567979Y-53259819D01*
X98806074Y-53259819D02*
X98806074Y-52593152D01*
X98806074Y-52783628D02*
X98758455Y-52688390D01*
X98758455Y-52688390D02*
X98710836Y-52640771D01*
X98710836Y-52640771D02*
X98615598Y-52593152D01*
X98615598Y-52593152D02*
X98520360Y-52593152D01*
X97520359Y-52593152D02*
X97282264Y-53259819D01*
X97282264Y-53259819D02*
X97044169Y-52593152D01*
X96139407Y-53259819D02*
X96710835Y-53259819D01*
X96425121Y-53259819D02*
X96425121Y-52259819D01*
X96425121Y-52259819D02*
X96520359Y-52402676D01*
X96520359Y-52402676D02*
X96615597Y-52497914D01*
X96615597Y-52497914D02*
X96710835Y-52545533D01*
X95710835Y-53164580D02*
X95663216Y-53212200D01*
X95663216Y-53212200D02*
X95710835Y-53259819D01*
X95710835Y-53259819D02*
X95758454Y-53212200D01*
X95758454Y-53212200D02*
X95710835Y-53164580D01*
X95710835Y-53164580D02*
X95710835Y-53259819D01*
X95044169Y-52259819D02*
X94948931Y-52259819D01*
X94948931Y-52259819D02*
X94853693Y-52307438D01*
X94853693Y-52307438D02*
X94806074Y-52355057D01*
X94806074Y-52355057D02*
X94758455Y-52450295D01*
X94758455Y-52450295D02*
X94710836Y-52640771D01*
X94710836Y-52640771D02*
X94710836Y-52878866D01*
X94710836Y-52878866D02*
X94758455Y-53069342D01*
X94758455Y-53069342D02*
X94806074Y-53164580D01*
X94806074Y-53164580D02*
X94853693Y-53212200D01*
X94853693Y-53212200D02*
X94948931Y-53259819D01*
X94948931Y-53259819D02*
X95044169Y-53259819D01*
X95044169Y-53259819D02*
X95139407Y-53212200D01*
X95139407Y-53212200D02*
X95187026Y-53164580D01*
X95187026Y-53164580D02*
X95234645Y-53069342D01*
X95234645Y-53069342D02*
X95282264Y-52878866D01*
X95282264Y-52878866D02*
X95282264Y-52640771D01*
X95282264Y-52640771D02*
X95234645Y-52450295D01*
X95234645Y-52450295D02*
X95187026Y-52355057D01*
X95187026Y-52355057D02*
X95139407Y-52307438D01*
X95139407Y-52307438D02*
X95044169Y-52259819D01*
X115329887Y-54346009D02*
X115187030Y-54393628D01*
X115187030Y-54393628D02*
X115139411Y-54441247D01*
X115139411Y-54441247D02*
X115091792Y-54536485D01*
X115091792Y-54536485D02*
X115091792Y-54679342D01*
X115091792Y-54679342D02*
X115139411Y-54774580D01*
X115139411Y-54774580D02*
X115187030Y-54822200D01*
X115187030Y-54822200D02*
X115282268Y-54869819D01*
X115282268Y-54869819D02*
X115663220Y-54869819D01*
X115663220Y-54869819D02*
X115663220Y-53869819D01*
X115663220Y-53869819D02*
X115329887Y-53869819D01*
X115329887Y-53869819D02*
X115234649Y-53917438D01*
X115234649Y-53917438D02*
X115187030Y-53965057D01*
X115187030Y-53965057D02*
X115139411Y-54060295D01*
X115139411Y-54060295D02*
X115139411Y-54155533D01*
X115139411Y-54155533D02*
X115187030Y-54250771D01*
X115187030Y-54250771D02*
X115234649Y-54298390D01*
X115234649Y-54298390D02*
X115329887Y-54346009D01*
X115329887Y-54346009D02*
X115663220Y-54346009D01*
X114758458Y-54203152D02*
X114520363Y-54869819D01*
X114282268Y-54203152D02*
X114520363Y-54869819D01*
X114520363Y-54869819D02*
X114615601Y-55107914D01*
X114615601Y-55107914D02*
X114663220Y-55155533D01*
X114663220Y-55155533D02*
X114758458Y-55203152D01*
X113139410Y-54869819D02*
X113139410Y-53869819D01*
X113139410Y-53869819D02*
X112901315Y-53869819D01*
X112901315Y-53869819D02*
X112758458Y-53917438D01*
X112758458Y-53917438D02*
X112663220Y-54012676D01*
X112663220Y-54012676D02*
X112615601Y-54107914D01*
X112615601Y-54107914D02*
X112567982Y-54298390D01*
X112567982Y-54298390D02*
X112567982Y-54441247D01*
X112567982Y-54441247D02*
X112615601Y-54631723D01*
X112615601Y-54631723D02*
X112663220Y-54726961D01*
X112663220Y-54726961D02*
X112758458Y-54822200D01*
X112758458Y-54822200D02*
X112901315Y-54869819D01*
X112901315Y-54869819D02*
X113139410Y-54869819D01*
X111710839Y-54869819D02*
X111710839Y-54346009D01*
X111710839Y-54346009D02*
X111758458Y-54250771D01*
X111758458Y-54250771D02*
X111853696Y-54203152D01*
X111853696Y-54203152D02*
X112044172Y-54203152D01*
X112044172Y-54203152D02*
X112139410Y-54250771D01*
X111710839Y-54822200D02*
X111806077Y-54869819D01*
X111806077Y-54869819D02*
X112044172Y-54869819D01*
X112044172Y-54869819D02*
X112139410Y-54822200D01*
X112139410Y-54822200D02*
X112187029Y-54726961D01*
X112187029Y-54726961D02*
X112187029Y-54631723D01*
X112187029Y-54631723D02*
X112139410Y-54536485D01*
X112139410Y-54536485D02*
X112044172Y-54488866D01*
X112044172Y-54488866D02*
X111806077Y-54488866D01*
X111806077Y-54488866D02*
X111710839Y-54441247D01*
X111234648Y-54203152D02*
X111234648Y-54869819D01*
X111234648Y-54298390D02*
X111187029Y-54250771D01*
X111187029Y-54250771D02*
X111091791Y-54203152D01*
X111091791Y-54203152D02*
X110948934Y-54203152D01*
X110948934Y-54203152D02*
X110853696Y-54250771D01*
X110853696Y-54250771D02*
X110806077Y-54346009D01*
X110806077Y-54346009D02*
X110806077Y-54869819D01*
X110329886Y-54869819D02*
X110329886Y-54203152D01*
X110329886Y-53869819D02*
X110377505Y-53917438D01*
X110377505Y-53917438D02*
X110329886Y-53965057D01*
X110329886Y-53965057D02*
X110282267Y-53917438D01*
X110282267Y-53917438D02*
X110329886Y-53869819D01*
X110329886Y-53869819D02*
X110329886Y-53965057D01*
X109472744Y-54822200D02*
X109567982Y-54869819D01*
X109567982Y-54869819D02*
X109758458Y-54869819D01*
X109758458Y-54869819D02*
X109853696Y-54822200D01*
X109853696Y-54822200D02*
X109901315Y-54726961D01*
X109901315Y-54726961D02*
X109901315Y-54346009D01*
X109901315Y-54346009D02*
X109853696Y-54250771D01*
X109853696Y-54250771D02*
X109758458Y-54203152D01*
X109758458Y-54203152D02*
X109567982Y-54203152D01*
X109567982Y-54203152D02*
X109472744Y-54250771D01*
X109472744Y-54250771D02*
X109425125Y-54346009D01*
X109425125Y-54346009D02*
X109425125Y-54441247D01*
X109425125Y-54441247D02*
X109901315Y-54536485D01*
X108853696Y-54869819D02*
X108948934Y-54822200D01*
X108948934Y-54822200D02*
X108996553Y-54726961D01*
X108996553Y-54726961D02*
X108996553Y-53869819D01*
X107758457Y-54822200D02*
X107615600Y-54869819D01*
X107615600Y-54869819D02*
X107377505Y-54869819D01*
X107377505Y-54869819D02*
X107282267Y-54822200D01*
X107282267Y-54822200D02*
X107234648Y-54774580D01*
X107234648Y-54774580D02*
X107187029Y-54679342D01*
X107187029Y-54679342D02*
X107187029Y-54584104D01*
X107187029Y-54584104D02*
X107234648Y-54488866D01*
X107234648Y-54488866D02*
X107282267Y-54441247D01*
X107282267Y-54441247D02*
X107377505Y-54393628D01*
X107377505Y-54393628D02*
X107567981Y-54346009D01*
X107567981Y-54346009D02*
X107663219Y-54298390D01*
X107663219Y-54298390D02*
X107710838Y-54250771D01*
X107710838Y-54250771D02*
X107758457Y-54155533D01*
X107758457Y-54155533D02*
X107758457Y-54060295D01*
X107758457Y-54060295D02*
X107710838Y-53965057D01*
X107710838Y-53965057D02*
X107663219Y-53917438D01*
X107663219Y-53917438D02*
X107567981Y-53869819D01*
X107567981Y-53869819D02*
X107329886Y-53869819D01*
X107329886Y-53869819D02*
X107187029Y-53917438D01*
X106758457Y-54869819D02*
X106758457Y-54203152D01*
X106758457Y-53869819D02*
X106806076Y-53917438D01*
X106806076Y-53917438D02*
X106758457Y-53965057D01*
X106758457Y-53965057D02*
X106710838Y-53917438D01*
X106710838Y-53917438D02*
X106758457Y-53869819D01*
X106758457Y-53869819D02*
X106758457Y-53965057D01*
X106282267Y-54869819D02*
X106282267Y-54203152D01*
X106282267Y-54298390D02*
X106234648Y-54250771D01*
X106234648Y-54250771D02*
X106139410Y-54203152D01*
X106139410Y-54203152D02*
X105996553Y-54203152D01*
X105996553Y-54203152D02*
X105901315Y-54250771D01*
X105901315Y-54250771D02*
X105853696Y-54346009D01*
X105853696Y-54346009D02*
X105853696Y-54869819D01*
X105853696Y-54346009D02*
X105806077Y-54250771D01*
X105806077Y-54250771D02*
X105710839Y-54203152D01*
X105710839Y-54203152D02*
X105567982Y-54203152D01*
X105567982Y-54203152D02*
X105472743Y-54250771D01*
X105472743Y-54250771D02*
X105425124Y-54346009D01*
X105425124Y-54346009D02*
X105425124Y-54869819D01*
X104520363Y-54203152D02*
X104520363Y-54869819D01*
X104948934Y-54203152D02*
X104948934Y-54726961D01*
X104948934Y-54726961D02*
X104901315Y-54822200D01*
X104901315Y-54822200D02*
X104806077Y-54869819D01*
X104806077Y-54869819D02*
X104663220Y-54869819D01*
X104663220Y-54869819D02*
X104567982Y-54822200D01*
X104567982Y-54822200D02*
X104520363Y-54774580D01*
X103996553Y-54822200D02*
X103996553Y-54869819D01*
X103996553Y-54869819D02*
X104044172Y-54965057D01*
X104044172Y-54965057D02*
X104091791Y-55012676D01*
X102853696Y-54584104D02*
X102377506Y-54584104D01*
X102948934Y-54869819D02*
X102615601Y-53869819D01*
X102615601Y-53869819D02*
X102282268Y-54869819D01*
X101520363Y-54822200D02*
X101615601Y-54869819D01*
X101615601Y-54869819D02*
X101806077Y-54869819D01*
X101806077Y-54869819D02*
X101901315Y-54822200D01*
X101901315Y-54822200D02*
X101948934Y-54774580D01*
X101948934Y-54774580D02*
X101996553Y-54679342D01*
X101996553Y-54679342D02*
X101996553Y-54393628D01*
X101996553Y-54393628D02*
X101948934Y-54298390D01*
X101948934Y-54298390D02*
X101901315Y-54250771D01*
X101901315Y-54250771D02*
X101806077Y-54203152D01*
X101806077Y-54203152D02*
X101615601Y-54203152D01*
X101615601Y-54203152D02*
X101520363Y-54250771D01*
X101091791Y-54869819D02*
X101091791Y-54203152D01*
X101091791Y-54393628D02*
X101044172Y-54298390D01*
X101044172Y-54298390D02*
X100996553Y-54250771D01*
X100996553Y-54250771D02*
X100901315Y-54203152D01*
X100901315Y-54203152D02*
X100806077Y-54203152D01*
X100329886Y-54869819D02*
X100425124Y-54822200D01*
X100425124Y-54822200D02*
X100472743Y-54774580D01*
X100472743Y-54774580D02*
X100520362Y-54679342D01*
X100520362Y-54679342D02*
X100520362Y-54393628D01*
X100520362Y-54393628D02*
X100472743Y-54298390D01*
X100472743Y-54298390D02*
X100425124Y-54250771D01*
X100425124Y-54250771D02*
X100329886Y-54203152D01*
X100329886Y-54203152D02*
X100187029Y-54203152D01*
X100187029Y-54203152D02*
X100091791Y-54250771D01*
X100091791Y-54250771D02*
X100044172Y-54298390D01*
X100044172Y-54298390D02*
X99996553Y-54393628D01*
X99996553Y-54393628D02*
X99996553Y-54679342D01*
X99996553Y-54679342D02*
X100044172Y-54774580D01*
X100044172Y-54774580D02*
X100091791Y-54822200D01*
X100091791Y-54822200D02*
X100187029Y-54869819D01*
X100187029Y-54869819D02*
X100329886Y-54869819D01*
X99567981Y-54869819D02*
X99567981Y-53869819D01*
X99567981Y-54250771D02*
X99472743Y-54203152D01*
X99472743Y-54203152D02*
X99282267Y-54203152D01*
X99282267Y-54203152D02*
X99187029Y-54250771D01*
X99187029Y-54250771D02*
X99139410Y-54298390D01*
X99139410Y-54298390D02*
X99091791Y-54393628D01*
X99091791Y-54393628D02*
X99091791Y-54679342D01*
X99091791Y-54679342D02*
X99139410Y-54774580D01*
X99139410Y-54774580D02*
X99187029Y-54822200D01*
X99187029Y-54822200D02*
X99282267Y-54869819D01*
X99282267Y-54869819D02*
X99472743Y-54869819D01*
X99472743Y-54869819D02*
X99567981Y-54822200D01*
X98520362Y-54869819D02*
X98615600Y-54822200D01*
X98615600Y-54822200D02*
X98663219Y-54774580D01*
X98663219Y-54774580D02*
X98710838Y-54679342D01*
X98710838Y-54679342D02*
X98710838Y-54393628D01*
X98710838Y-54393628D02*
X98663219Y-54298390D01*
X98663219Y-54298390D02*
X98615600Y-54250771D01*
X98615600Y-54250771D02*
X98520362Y-54203152D01*
X98520362Y-54203152D02*
X98377505Y-54203152D01*
X98377505Y-54203152D02*
X98282267Y-54250771D01*
X98282267Y-54250771D02*
X98234648Y-54298390D01*
X98234648Y-54298390D02*
X98187029Y-54393628D01*
X98187029Y-54393628D02*
X98187029Y-54679342D01*
X98187029Y-54679342D02*
X98234648Y-54774580D01*
X98234648Y-54774580D02*
X98282267Y-54822200D01*
X98282267Y-54822200D02*
X98377505Y-54869819D01*
X98377505Y-54869819D02*
X98520362Y-54869819D01*
X97901314Y-54203152D02*
X97520362Y-54203152D01*
X97758457Y-53869819D02*
X97758457Y-54726961D01*
X97758457Y-54726961D02*
X97710838Y-54822200D01*
X97710838Y-54822200D02*
X97615600Y-54869819D01*
X97615600Y-54869819D02*
X97520362Y-54869819D01*
X97187028Y-54774580D02*
X97139409Y-54822200D01*
X97139409Y-54822200D02*
X97187028Y-54869819D01*
X97187028Y-54869819D02*
X97234647Y-54822200D01*
X97234647Y-54822200D02*
X97187028Y-54774580D01*
X97187028Y-54774580D02*
X97187028Y-54869819D01*
X96710838Y-54203152D02*
X96710838Y-54869819D01*
X96710838Y-54298390D02*
X96663219Y-54250771D01*
X96663219Y-54250771D02*
X96567981Y-54203152D01*
X96567981Y-54203152D02*
X96425124Y-54203152D01*
X96425124Y-54203152D02*
X96329886Y-54250771D01*
X96329886Y-54250771D02*
X96282267Y-54346009D01*
X96282267Y-54346009D02*
X96282267Y-54869819D01*
X95663219Y-54869819D02*
X95758457Y-54822200D01*
X95758457Y-54822200D02*
X95806076Y-54726961D01*
X95806076Y-54726961D02*
X95806076Y-53869819D01*
X78034942Y-67976190D02*
X78082561Y-67928571D01*
X78082561Y-67928571D02*
X78130180Y-67833333D01*
X78130180Y-67833333D02*
X78130180Y-67595238D01*
X78130180Y-67595238D02*
X78082561Y-67500000D01*
X78082561Y-67500000D02*
X78034942Y-67452381D01*
X78034942Y-67452381D02*
X77939704Y-67404762D01*
X77939704Y-67404762D02*
X77844466Y-67404762D01*
X77844466Y-67404762D02*
X77701609Y-67452381D01*
X77701609Y-67452381D02*
X77130180Y-68023809D01*
X77130180Y-68023809D02*
X77130180Y-67404762D01*
X77130180Y-66452381D02*
X77130180Y-67023809D01*
X77130180Y-66738095D02*
X78130180Y-66738095D01*
X78130180Y-66738095D02*
X77987323Y-66833333D01*
X77987323Y-66833333D02*
X77892085Y-66928571D01*
X77892085Y-66928571D02*
X77844466Y-67023809D01*
X78177800Y-65309524D02*
X76892085Y-66166666D01*
X77130180Y-64452381D02*
X77130180Y-65023809D01*
X77130180Y-64738095D02*
X78130180Y-64738095D01*
X78130180Y-64738095D02*
X77987323Y-64833333D01*
X77987323Y-64833333D02*
X77892085Y-64928571D01*
X77892085Y-64928571D02*
X77844466Y-65023809D01*
X78034942Y-64071428D02*
X78082561Y-64023809D01*
X78082561Y-64023809D02*
X78130180Y-63928571D01*
X78130180Y-63928571D02*
X78130180Y-63690476D01*
X78130180Y-63690476D02*
X78082561Y-63595238D01*
X78082561Y-63595238D02*
X78034942Y-63547619D01*
X78034942Y-63547619D02*
X77939704Y-63500000D01*
X77939704Y-63500000D02*
X77844466Y-63500000D01*
X77844466Y-63500000D02*
X77701609Y-63547619D01*
X77701609Y-63547619D02*
X77130180Y-64119047D01*
X77130180Y-64119047D02*
X77130180Y-63500000D01*
X78177800Y-62357143D02*
X76892085Y-63214285D01*
X78034942Y-62071428D02*
X78082561Y-62023809D01*
X78082561Y-62023809D02*
X78130180Y-61928571D01*
X78130180Y-61928571D02*
X78130180Y-61690476D01*
X78130180Y-61690476D02*
X78082561Y-61595238D01*
X78082561Y-61595238D02*
X78034942Y-61547619D01*
X78034942Y-61547619D02*
X77939704Y-61500000D01*
X77939704Y-61500000D02*
X77844466Y-61500000D01*
X77844466Y-61500000D02*
X77701609Y-61547619D01*
X77701609Y-61547619D02*
X77130180Y-62119047D01*
X77130180Y-62119047D02*
X77130180Y-61500000D01*
X78130180Y-60880952D02*
X78130180Y-60785714D01*
X78130180Y-60785714D02*
X78082561Y-60690476D01*
X78082561Y-60690476D02*
X78034942Y-60642857D01*
X78034942Y-60642857D02*
X77939704Y-60595238D01*
X77939704Y-60595238D02*
X77749228Y-60547619D01*
X77749228Y-60547619D02*
X77511133Y-60547619D01*
X77511133Y-60547619D02*
X77320657Y-60595238D01*
X77320657Y-60595238D02*
X77225419Y-60642857D01*
X77225419Y-60642857D02*
X77177800Y-60690476D01*
X77177800Y-60690476D02*
X77130180Y-60785714D01*
X77130180Y-60785714D02*
X77130180Y-60880952D01*
X77130180Y-60880952D02*
X77177800Y-60976190D01*
X77177800Y-60976190D02*
X77225419Y-61023809D01*
X77225419Y-61023809D02*
X77320657Y-61071428D01*
X77320657Y-61071428D02*
X77511133Y-61119047D01*
X77511133Y-61119047D02*
X77749228Y-61119047D01*
X77749228Y-61119047D02*
X77939704Y-61071428D01*
X77939704Y-61071428D02*
X78034942Y-61023809D01*
X78034942Y-61023809D02*
X78082561Y-60976190D01*
X78082561Y-60976190D02*
X78130180Y-60880952D01*
X78034942Y-60166666D02*
X78082561Y-60119047D01*
X78082561Y-60119047D02*
X78130180Y-60023809D01*
X78130180Y-60023809D02*
X78130180Y-59785714D01*
X78130180Y-59785714D02*
X78082561Y-59690476D01*
X78082561Y-59690476D02*
X78034942Y-59642857D01*
X78034942Y-59642857D02*
X77939704Y-59595238D01*
X77939704Y-59595238D02*
X77844466Y-59595238D01*
X77844466Y-59595238D02*
X77701609Y-59642857D01*
X77701609Y-59642857D02*
X77130180Y-60214285D01*
X77130180Y-60214285D02*
X77130180Y-59595238D01*
X77796847Y-58738095D02*
X77130180Y-58738095D01*
X78177800Y-58976190D02*
X77463514Y-59214285D01*
X77463514Y-59214285D02*
X77463514Y-58595238D01*
X77511133Y-57452380D02*
X77511133Y-56690476D01*
X77130180Y-55452380D02*
X78130180Y-55452380D01*
X78130180Y-55452380D02*
X77130180Y-54880952D01*
X77130180Y-54880952D02*
X78130180Y-54880952D01*
X77130180Y-53928571D02*
X77130180Y-54404761D01*
X77130180Y-54404761D02*
X78130180Y-54404761D01*
X115710839Y-66992200D02*
X115567982Y-67039819D01*
X115567982Y-67039819D02*
X115329887Y-67039819D01*
X115329887Y-67039819D02*
X115234649Y-66992200D01*
X115234649Y-66992200D02*
X115187030Y-66944580D01*
X115187030Y-66944580D02*
X115139411Y-66849342D01*
X115139411Y-66849342D02*
X115139411Y-66754104D01*
X115139411Y-66754104D02*
X115187030Y-66658866D01*
X115187030Y-66658866D02*
X115234649Y-66611247D01*
X115234649Y-66611247D02*
X115329887Y-66563628D01*
X115329887Y-66563628D02*
X115520363Y-66516009D01*
X115520363Y-66516009D02*
X115615601Y-66468390D01*
X115615601Y-66468390D02*
X115663220Y-66420771D01*
X115663220Y-66420771D02*
X115710839Y-66325533D01*
X115710839Y-66325533D02*
X115710839Y-66230295D01*
X115710839Y-66230295D02*
X115663220Y-66135057D01*
X115663220Y-66135057D02*
X115615601Y-66087438D01*
X115615601Y-66087438D02*
X115520363Y-66039819D01*
X115520363Y-66039819D02*
X115282268Y-66039819D01*
X115282268Y-66039819D02*
X115139411Y-66087438D01*
X114282268Y-66373152D02*
X114282268Y-67039819D01*
X114710839Y-66373152D02*
X114710839Y-66896961D01*
X114710839Y-66896961D02*
X114663220Y-66992200D01*
X114663220Y-66992200D02*
X114567982Y-67039819D01*
X114567982Y-67039819D02*
X114425125Y-67039819D01*
X114425125Y-67039819D02*
X114329887Y-66992200D01*
X114329887Y-66992200D02*
X114282268Y-66944580D01*
X113806077Y-66373152D02*
X113806077Y-67373152D01*
X113806077Y-66420771D02*
X113710839Y-66373152D01*
X113710839Y-66373152D02*
X113520363Y-66373152D01*
X113520363Y-66373152D02*
X113425125Y-66420771D01*
X113425125Y-66420771D02*
X113377506Y-66468390D01*
X113377506Y-66468390D02*
X113329887Y-66563628D01*
X113329887Y-66563628D02*
X113329887Y-66849342D01*
X113329887Y-66849342D02*
X113377506Y-66944580D01*
X113377506Y-66944580D02*
X113425125Y-66992200D01*
X113425125Y-66992200D02*
X113520363Y-67039819D01*
X113520363Y-67039819D02*
X113710839Y-67039819D01*
X113710839Y-67039819D02*
X113806077Y-66992200D01*
X112901315Y-66373152D02*
X112901315Y-67373152D01*
X112901315Y-66420771D02*
X112806077Y-66373152D01*
X112806077Y-66373152D02*
X112615601Y-66373152D01*
X112615601Y-66373152D02*
X112520363Y-66420771D01*
X112520363Y-66420771D02*
X112472744Y-66468390D01*
X112472744Y-66468390D02*
X112425125Y-66563628D01*
X112425125Y-66563628D02*
X112425125Y-66849342D01*
X112425125Y-66849342D02*
X112472744Y-66944580D01*
X112472744Y-66944580D02*
X112520363Y-66992200D01*
X112520363Y-66992200D02*
X112615601Y-67039819D01*
X112615601Y-67039819D02*
X112806077Y-67039819D01*
X112806077Y-67039819D02*
X112901315Y-66992200D01*
X111853696Y-67039819D02*
X111948934Y-66992200D01*
X111948934Y-66992200D02*
X111996553Y-66944580D01*
X111996553Y-66944580D02*
X112044172Y-66849342D01*
X112044172Y-66849342D02*
X112044172Y-66563628D01*
X112044172Y-66563628D02*
X111996553Y-66468390D01*
X111996553Y-66468390D02*
X111948934Y-66420771D01*
X111948934Y-66420771D02*
X111853696Y-66373152D01*
X111853696Y-66373152D02*
X111710839Y-66373152D01*
X111710839Y-66373152D02*
X111615601Y-66420771D01*
X111615601Y-66420771D02*
X111567982Y-66468390D01*
X111567982Y-66468390D02*
X111520363Y-66563628D01*
X111520363Y-66563628D02*
X111520363Y-66849342D01*
X111520363Y-66849342D02*
X111567982Y-66944580D01*
X111567982Y-66944580D02*
X111615601Y-66992200D01*
X111615601Y-66992200D02*
X111710839Y-67039819D01*
X111710839Y-67039819D02*
X111853696Y-67039819D01*
X111091791Y-67039819D02*
X111091791Y-66373152D01*
X111091791Y-66563628D02*
X111044172Y-66468390D01*
X111044172Y-66468390D02*
X110996553Y-66420771D01*
X110996553Y-66420771D02*
X110901315Y-66373152D01*
X110901315Y-66373152D02*
X110806077Y-66373152D01*
X110615600Y-66373152D02*
X110234648Y-66373152D01*
X110472743Y-66039819D02*
X110472743Y-66896961D01*
X110472743Y-66896961D02*
X110425124Y-66992200D01*
X110425124Y-66992200D02*
X110329886Y-67039819D01*
X110329886Y-67039819D02*
X110234648Y-67039819D01*
X109520362Y-66992200D02*
X109615600Y-67039819D01*
X109615600Y-67039819D02*
X109806076Y-67039819D01*
X109806076Y-67039819D02*
X109901314Y-66992200D01*
X109901314Y-66992200D02*
X109948933Y-66896961D01*
X109948933Y-66896961D02*
X109948933Y-66516009D01*
X109948933Y-66516009D02*
X109901314Y-66420771D01*
X109901314Y-66420771D02*
X109806076Y-66373152D01*
X109806076Y-66373152D02*
X109615600Y-66373152D01*
X109615600Y-66373152D02*
X109520362Y-66420771D01*
X109520362Y-66420771D02*
X109472743Y-66516009D01*
X109472743Y-66516009D02*
X109472743Y-66611247D01*
X109472743Y-66611247D02*
X109948933Y-66706485D01*
X108615600Y-67039819D02*
X108615600Y-66039819D01*
X108615600Y-66992200D02*
X108710838Y-67039819D01*
X108710838Y-67039819D02*
X108901314Y-67039819D01*
X108901314Y-67039819D02*
X108996552Y-66992200D01*
X108996552Y-66992200D02*
X109044171Y-66944580D01*
X109044171Y-66944580D02*
X109091790Y-66849342D01*
X109091790Y-66849342D02*
X109091790Y-66563628D01*
X109091790Y-66563628D02*
X109044171Y-66468390D01*
X109044171Y-66468390D02*
X108996552Y-66420771D01*
X108996552Y-66420771D02*
X108901314Y-66373152D01*
X108901314Y-66373152D02*
X108710838Y-66373152D01*
X108710838Y-66373152D02*
X108615600Y-66420771D01*
X107377504Y-67039819D02*
X107377504Y-66039819D01*
X107377504Y-66420771D02*
X107282266Y-66373152D01*
X107282266Y-66373152D02*
X107091790Y-66373152D01*
X107091790Y-66373152D02*
X106996552Y-66420771D01*
X106996552Y-66420771D02*
X106948933Y-66468390D01*
X106948933Y-66468390D02*
X106901314Y-66563628D01*
X106901314Y-66563628D02*
X106901314Y-66849342D01*
X106901314Y-66849342D02*
X106948933Y-66944580D01*
X106948933Y-66944580D02*
X106996552Y-66992200D01*
X106996552Y-66992200D02*
X107091790Y-67039819D01*
X107091790Y-67039819D02*
X107282266Y-67039819D01*
X107282266Y-67039819D02*
X107377504Y-66992200D01*
X106567980Y-66373152D02*
X106329885Y-67039819D01*
X106091790Y-66373152D02*
X106329885Y-67039819D01*
X106329885Y-67039819D02*
X106425123Y-67277914D01*
X106425123Y-67277914D02*
X106472742Y-67325533D01*
X106472742Y-67325533D02*
X106567980Y-67373152D01*
X115091792Y-68554580D02*
X115139411Y-68602200D01*
X115139411Y-68602200D02*
X115282268Y-68649819D01*
X115282268Y-68649819D02*
X115377506Y-68649819D01*
X115377506Y-68649819D02*
X115520363Y-68602200D01*
X115520363Y-68602200D02*
X115615601Y-68506961D01*
X115615601Y-68506961D02*
X115663220Y-68411723D01*
X115663220Y-68411723D02*
X115710839Y-68221247D01*
X115710839Y-68221247D02*
X115710839Y-68078390D01*
X115710839Y-68078390D02*
X115663220Y-67887914D01*
X115663220Y-67887914D02*
X115615601Y-67792676D01*
X115615601Y-67792676D02*
X115520363Y-67697438D01*
X115520363Y-67697438D02*
X115377506Y-67649819D01*
X115377506Y-67649819D02*
X115282268Y-67649819D01*
X115282268Y-67649819D02*
X115139411Y-67697438D01*
X115139411Y-67697438D02*
X115091792Y-67745057D01*
X114663220Y-68649819D02*
X114663220Y-67983152D01*
X114663220Y-68173628D02*
X114615601Y-68078390D01*
X114615601Y-68078390D02*
X114567982Y-68030771D01*
X114567982Y-68030771D02*
X114472744Y-67983152D01*
X114472744Y-67983152D02*
X114377506Y-67983152D01*
X113663220Y-68602200D02*
X113758458Y-68649819D01*
X113758458Y-68649819D02*
X113948934Y-68649819D01*
X113948934Y-68649819D02*
X114044172Y-68602200D01*
X114044172Y-68602200D02*
X114091791Y-68506961D01*
X114091791Y-68506961D02*
X114091791Y-68126009D01*
X114091791Y-68126009D02*
X114044172Y-68030771D01*
X114044172Y-68030771D02*
X113948934Y-67983152D01*
X113948934Y-67983152D02*
X113758458Y-67983152D01*
X113758458Y-67983152D02*
X113663220Y-68030771D01*
X113663220Y-68030771D02*
X113615601Y-68126009D01*
X113615601Y-68126009D02*
X113615601Y-68221247D01*
X113615601Y-68221247D02*
X114091791Y-68316485D01*
X112758458Y-68649819D02*
X112758458Y-68126009D01*
X112758458Y-68126009D02*
X112806077Y-68030771D01*
X112806077Y-68030771D02*
X112901315Y-67983152D01*
X112901315Y-67983152D02*
X113091791Y-67983152D01*
X113091791Y-67983152D02*
X113187029Y-68030771D01*
X112758458Y-68602200D02*
X112853696Y-68649819D01*
X112853696Y-68649819D02*
X113091791Y-68649819D01*
X113091791Y-68649819D02*
X113187029Y-68602200D01*
X113187029Y-68602200D02*
X113234648Y-68506961D01*
X113234648Y-68506961D02*
X113234648Y-68411723D01*
X113234648Y-68411723D02*
X113187029Y-68316485D01*
X113187029Y-68316485D02*
X113091791Y-68268866D01*
X113091791Y-68268866D02*
X112853696Y-68268866D01*
X112853696Y-68268866D02*
X112758458Y-68221247D01*
X112425124Y-67983152D02*
X112044172Y-67983152D01*
X112282267Y-67649819D02*
X112282267Y-68506961D01*
X112282267Y-68506961D02*
X112234648Y-68602200D01*
X112234648Y-68602200D02*
X112139410Y-68649819D01*
X112139410Y-68649819D02*
X112044172Y-68649819D01*
X111710838Y-68649819D02*
X111710838Y-67983152D01*
X111710838Y-67649819D02*
X111758457Y-67697438D01*
X111758457Y-67697438D02*
X111710838Y-67745057D01*
X111710838Y-67745057D02*
X111663219Y-67697438D01*
X111663219Y-67697438D02*
X111710838Y-67649819D01*
X111710838Y-67649819D02*
X111710838Y-67745057D01*
X111329886Y-67983152D02*
X111091791Y-68649819D01*
X111091791Y-68649819D02*
X110853696Y-67983152D01*
X110091791Y-68602200D02*
X110187029Y-68649819D01*
X110187029Y-68649819D02*
X110377505Y-68649819D01*
X110377505Y-68649819D02*
X110472743Y-68602200D01*
X110472743Y-68602200D02*
X110520362Y-68506961D01*
X110520362Y-68506961D02*
X110520362Y-68126009D01*
X110520362Y-68126009D02*
X110472743Y-68030771D01*
X110472743Y-68030771D02*
X110377505Y-67983152D01*
X110377505Y-67983152D02*
X110187029Y-67983152D01*
X110187029Y-67983152D02*
X110091791Y-68030771D01*
X110091791Y-68030771D02*
X110044172Y-68126009D01*
X110044172Y-68126009D02*
X110044172Y-68221247D01*
X110044172Y-68221247D02*
X110520362Y-68316485D01*
X109044172Y-68554580D02*
X109091791Y-68602200D01*
X109091791Y-68602200D02*
X109234648Y-68649819D01*
X109234648Y-68649819D02*
X109329886Y-68649819D01*
X109329886Y-68649819D02*
X109472743Y-68602200D01*
X109472743Y-68602200D02*
X109567981Y-68506961D01*
X109567981Y-68506961D02*
X109615600Y-68411723D01*
X109615600Y-68411723D02*
X109663219Y-68221247D01*
X109663219Y-68221247D02*
X109663219Y-68078390D01*
X109663219Y-68078390D02*
X109615600Y-67887914D01*
X109615600Y-67887914D02*
X109567981Y-67792676D01*
X109567981Y-67792676D02*
X109472743Y-67697438D01*
X109472743Y-67697438D02*
X109329886Y-67649819D01*
X109329886Y-67649819D02*
X109234648Y-67649819D01*
X109234648Y-67649819D02*
X109091791Y-67697438D01*
X109091791Y-67697438D02*
X109044172Y-67745057D01*
X108472743Y-68649819D02*
X108567981Y-68602200D01*
X108567981Y-68602200D02*
X108615600Y-68554580D01*
X108615600Y-68554580D02*
X108663219Y-68459342D01*
X108663219Y-68459342D02*
X108663219Y-68173628D01*
X108663219Y-68173628D02*
X108615600Y-68078390D01*
X108615600Y-68078390D02*
X108567981Y-68030771D01*
X108567981Y-68030771D02*
X108472743Y-67983152D01*
X108472743Y-67983152D02*
X108329886Y-67983152D01*
X108329886Y-67983152D02*
X108234648Y-68030771D01*
X108234648Y-68030771D02*
X108187029Y-68078390D01*
X108187029Y-68078390D02*
X108139410Y-68173628D01*
X108139410Y-68173628D02*
X108139410Y-68459342D01*
X108139410Y-68459342D02*
X108187029Y-68554580D01*
X108187029Y-68554580D02*
X108234648Y-68602200D01*
X108234648Y-68602200D02*
X108329886Y-68649819D01*
X108329886Y-68649819D02*
X108472743Y-68649819D01*
X107282267Y-68649819D02*
X107282267Y-67649819D01*
X107282267Y-68602200D02*
X107377505Y-68649819D01*
X107377505Y-68649819D02*
X107567981Y-68649819D01*
X107567981Y-68649819D02*
X107663219Y-68602200D01*
X107663219Y-68602200D02*
X107710838Y-68554580D01*
X107710838Y-68554580D02*
X107758457Y-68459342D01*
X107758457Y-68459342D02*
X107758457Y-68173628D01*
X107758457Y-68173628D02*
X107710838Y-68078390D01*
X107710838Y-68078390D02*
X107663219Y-68030771D01*
X107663219Y-68030771D02*
X107567981Y-67983152D01*
X107567981Y-67983152D02*
X107377505Y-67983152D01*
X107377505Y-67983152D02*
X107282267Y-68030771D01*
X106806076Y-68649819D02*
X106806076Y-67983152D01*
X106806076Y-67649819D02*
X106853695Y-67697438D01*
X106853695Y-67697438D02*
X106806076Y-67745057D01*
X106806076Y-67745057D02*
X106758457Y-67697438D01*
X106758457Y-67697438D02*
X106806076Y-67649819D01*
X106806076Y-67649819D02*
X106806076Y-67745057D01*
X106329886Y-67983152D02*
X106329886Y-68649819D01*
X106329886Y-68078390D02*
X106282267Y-68030771D01*
X106282267Y-68030771D02*
X106187029Y-67983152D01*
X106187029Y-67983152D02*
X106044172Y-67983152D01*
X106044172Y-67983152D02*
X105948934Y-68030771D01*
X105948934Y-68030771D02*
X105901315Y-68126009D01*
X105901315Y-68126009D02*
X105901315Y-68649819D01*
X104996553Y-67983152D02*
X104996553Y-68792676D01*
X104996553Y-68792676D02*
X105044172Y-68887914D01*
X105044172Y-68887914D02*
X105091791Y-68935533D01*
X105091791Y-68935533D02*
X105187029Y-68983152D01*
X105187029Y-68983152D02*
X105329886Y-68983152D01*
X105329886Y-68983152D02*
X105425124Y-68935533D01*
X104996553Y-68602200D02*
X105091791Y-68649819D01*
X105091791Y-68649819D02*
X105282267Y-68649819D01*
X105282267Y-68649819D02*
X105377505Y-68602200D01*
X105377505Y-68602200D02*
X105425124Y-68554580D01*
X105425124Y-68554580D02*
X105472743Y-68459342D01*
X105472743Y-68459342D02*
X105472743Y-68173628D01*
X105472743Y-68173628D02*
X105425124Y-68078390D01*
X105425124Y-68078390D02*
X105377505Y-68030771D01*
X105377505Y-68030771D02*
X105282267Y-67983152D01*
X105282267Y-67983152D02*
X105091791Y-67983152D01*
X105091791Y-67983152D02*
X104996553Y-68030771D01*
X104520362Y-67649819D02*
X104520362Y-68459342D01*
X104520362Y-68459342D02*
X104472743Y-68554580D01*
X104472743Y-68554580D02*
X104425124Y-68602200D01*
X104425124Y-68602200D02*
X104329886Y-68649819D01*
X104329886Y-68649819D02*
X104139410Y-68649819D01*
X104139410Y-68649819D02*
X104044172Y-68602200D01*
X104044172Y-68602200D02*
X103996553Y-68554580D01*
X103996553Y-68554580D02*
X103948934Y-68459342D01*
X103948934Y-68459342D02*
X103948934Y-67649819D01*
X103615600Y-67983152D02*
X103234648Y-67983152D01*
X103472743Y-67649819D02*
X103472743Y-68506961D01*
X103472743Y-68506961D02*
X103425124Y-68602200D01*
X103425124Y-68602200D02*
X103329886Y-68649819D01*
X103329886Y-68649819D02*
X103234648Y-68649819D01*
X102901314Y-68649819D02*
X102901314Y-67983152D01*
X102901314Y-68173628D02*
X102853695Y-68078390D01*
X102853695Y-68078390D02*
X102806076Y-68030771D01*
X102806076Y-68030771D02*
X102710838Y-67983152D01*
X102710838Y-67983152D02*
X102615600Y-67983152D01*
X101901314Y-68602200D02*
X101996552Y-68649819D01*
X101996552Y-68649819D02*
X102187028Y-68649819D01*
X102187028Y-68649819D02*
X102282266Y-68602200D01*
X102282266Y-68602200D02*
X102329885Y-68506961D01*
X102329885Y-68506961D02*
X102329885Y-68126009D01*
X102329885Y-68126009D02*
X102282266Y-68030771D01*
X102282266Y-68030771D02*
X102187028Y-67983152D01*
X102187028Y-67983152D02*
X101996552Y-67983152D01*
X101996552Y-67983152D02*
X101901314Y-68030771D01*
X101901314Y-68030771D02*
X101853695Y-68126009D01*
X101853695Y-68126009D02*
X101853695Y-68221247D01*
X101853695Y-68221247D02*
X102329885Y-68316485D01*
X100996552Y-68602200D02*
X101091790Y-68649819D01*
X101091790Y-68649819D02*
X101282266Y-68649819D01*
X101282266Y-68649819D02*
X101377504Y-68602200D01*
X101377504Y-68602200D02*
X101425123Y-68554580D01*
X101425123Y-68554580D02*
X101472742Y-68459342D01*
X101472742Y-68459342D02*
X101472742Y-68173628D01*
X101472742Y-68173628D02*
X101425123Y-68078390D01*
X101425123Y-68078390D02*
X101377504Y-68030771D01*
X101377504Y-68030771D02*
X101282266Y-67983152D01*
X101282266Y-67983152D02*
X101091790Y-67983152D01*
X101091790Y-67983152D02*
X100996552Y-68030771D01*
X100567980Y-68649819D02*
X100567980Y-67649819D01*
X100139409Y-68649819D02*
X100139409Y-68126009D01*
X100139409Y-68126009D02*
X100187028Y-68030771D01*
X100187028Y-68030771D02*
X100282266Y-67983152D01*
X100282266Y-67983152D02*
X100425123Y-67983152D01*
X100425123Y-67983152D02*
X100520361Y-68030771D01*
X100520361Y-68030771D02*
X100567980Y-68078390D01*
X99806075Y-67983152D02*
X99425123Y-67983152D01*
X99663218Y-67649819D02*
X99663218Y-68506961D01*
X99663218Y-68506961D02*
X99615599Y-68602200D01*
X99615599Y-68602200D02*
X99520361Y-68649819D01*
X99520361Y-68649819D02*
X99425123Y-68649819D01*
X99091789Y-68554580D02*
X99044170Y-68602200D01*
X99044170Y-68602200D02*
X99091789Y-68649819D01*
X99091789Y-68649819D02*
X99139408Y-68602200D01*
X99139408Y-68602200D02*
X99091789Y-68554580D01*
X99091789Y-68554580D02*
X99091789Y-68649819D01*
X98615599Y-67983152D02*
X98615599Y-68649819D01*
X98615599Y-68078390D02*
X98567980Y-68030771D01*
X98567980Y-68030771D02*
X98472742Y-67983152D01*
X98472742Y-67983152D02*
X98329885Y-67983152D01*
X98329885Y-67983152D02*
X98234647Y-68030771D01*
X98234647Y-68030771D02*
X98187028Y-68126009D01*
X98187028Y-68126009D02*
X98187028Y-68649819D01*
X97567980Y-68649819D02*
X97663218Y-68602200D01*
X97663218Y-68602200D02*
X97710837Y-68506961D01*
X97710837Y-68506961D02*
X97710837Y-67649819D01*
X115472744Y-69259819D02*
X115282268Y-69259819D01*
X115282268Y-69259819D02*
X115187030Y-69307438D01*
X115187030Y-69307438D02*
X115091792Y-69402676D01*
X115091792Y-69402676D02*
X115044173Y-69593152D01*
X115044173Y-69593152D02*
X115044173Y-69926485D01*
X115044173Y-69926485D02*
X115091792Y-70116961D01*
X115091792Y-70116961D02*
X115187030Y-70212200D01*
X115187030Y-70212200D02*
X115282268Y-70259819D01*
X115282268Y-70259819D02*
X115472744Y-70259819D01*
X115472744Y-70259819D02*
X115567982Y-70212200D01*
X115567982Y-70212200D02*
X115663220Y-70116961D01*
X115663220Y-70116961D02*
X115710839Y-69926485D01*
X115710839Y-69926485D02*
X115710839Y-69593152D01*
X115710839Y-69593152D02*
X115663220Y-69402676D01*
X115663220Y-69402676D02*
X115567982Y-69307438D01*
X115567982Y-69307438D02*
X115472744Y-69259819D01*
X114615601Y-69593152D02*
X114615601Y-70593152D01*
X114615601Y-69640771D02*
X114520363Y-69593152D01*
X114520363Y-69593152D02*
X114329887Y-69593152D01*
X114329887Y-69593152D02*
X114234649Y-69640771D01*
X114234649Y-69640771D02*
X114187030Y-69688390D01*
X114187030Y-69688390D02*
X114139411Y-69783628D01*
X114139411Y-69783628D02*
X114139411Y-70069342D01*
X114139411Y-70069342D02*
X114187030Y-70164580D01*
X114187030Y-70164580D02*
X114234649Y-70212200D01*
X114234649Y-70212200D02*
X114329887Y-70259819D01*
X114329887Y-70259819D02*
X114520363Y-70259819D01*
X114520363Y-70259819D02*
X114615601Y-70212200D01*
X113329887Y-70212200D02*
X113425125Y-70259819D01*
X113425125Y-70259819D02*
X113615601Y-70259819D01*
X113615601Y-70259819D02*
X113710839Y-70212200D01*
X113710839Y-70212200D02*
X113758458Y-70116961D01*
X113758458Y-70116961D02*
X113758458Y-69736009D01*
X113758458Y-69736009D02*
X113710839Y-69640771D01*
X113710839Y-69640771D02*
X113615601Y-69593152D01*
X113615601Y-69593152D02*
X113425125Y-69593152D01*
X113425125Y-69593152D02*
X113329887Y-69640771D01*
X113329887Y-69640771D02*
X113282268Y-69736009D01*
X113282268Y-69736009D02*
X113282268Y-69831247D01*
X113282268Y-69831247D02*
X113758458Y-69926485D01*
X112853696Y-69593152D02*
X112853696Y-70259819D01*
X112853696Y-69688390D02*
X112806077Y-69640771D01*
X112806077Y-69640771D02*
X112710839Y-69593152D01*
X112710839Y-69593152D02*
X112567982Y-69593152D01*
X112567982Y-69593152D02*
X112472744Y-69640771D01*
X112472744Y-69640771D02*
X112425125Y-69736009D01*
X112425125Y-69736009D02*
X112425125Y-70259819D01*
X111187029Y-70259819D02*
X111187029Y-69259819D01*
X110758458Y-70259819D02*
X110758458Y-69736009D01*
X110758458Y-69736009D02*
X110806077Y-69640771D01*
X110806077Y-69640771D02*
X110901315Y-69593152D01*
X110901315Y-69593152D02*
X111044172Y-69593152D01*
X111044172Y-69593152D02*
X111139410Y-69640771D01*
X111139410Y-69640771D02*
X111187029Y-69688390D01*
X109853696Y-70259819D02*
X109853696Y-69736009D01*
X109853696Y-69736009D02*
X109901315Y-69640771D01*
X109901315Y-69640771D02*
X109996553Y-69593152D01*
X109996553Y-69593152D02*
X110187029Y-69593152D01*
X110187029Y-69593152D02*
X110282267Y-69640771D01*
X109853696Y-70212200D02*
X109948934Y-70259819D01*
X109948934Y-70259819D02*
X110187029Y-70259819D01*
X110187029Y-70259819D02*
X110282267Y-70212200D01*
X110282267Y-70212200D02*
X110329886Y-70116961D01*
X110329886Y-70116961D02*
X110329886Y-70021723D01*
X110329886Y-70021723D02*
X110282267Y-69926485D01*
X110282267Y-69926485D02*
X110187029Y-69878866D01*
X110187029Y-69878866D02*
X109948934Y-69878866D01*
X109948934Y-69878866D02*
X109853696Y-69831247D01*
X109377505Y-70259819D02*
X109377505Y-69593152D01*
X109377505Y-69783628D02*
X109329886Y-69688390D01*
X109329886Y-69688390D02*
X109282267Y-69640771D01*
X109282267Y-69640771D02*
X109187029Y-69593152D01*
X109187029Y-69593152D02*
X109091791Y-69593152D01*
X108329886Y-70259819D02*
X108329886Y-69259819D01*
X108329886Y-70212200D02*
X108425124Y-70259819D01*
X108425124Y-70259819D02*
X108615600Y-70259819D01*
X108615600Y-70259819D02*
X108710838Y-70212200D01*
X108710838Y-70212200D02*
X108758457Y-70164580D01*
X108758457Y-70164580D02*
X108806076Y-70069342D01*
X108806076Y-70069342D02*
X108806076Y-69783628D01*
X108806076Y-69783628D02*
X108758457Y-69688390D01*
X108758457Y-69688390D02*
X108710838Y-69640771D01*
X108710838Y-69640771D02*
X108615600Y-69593152D01*
X108615600Y-69593152D02*
X108425124Y-69593152D01*
X108425124Y-69593152D02*
X108329886Y-69640771D01*
X107948933Y-69593152D02*
X107758457Y-70259819D01*
X107758457Y-70259819D02*
X107567981Y-69783628D01*
X107567981Y-69783628D02*
X107377505Y-70259819D01*
X107377505Y-70259819D02*
X107187029Y-69593152D01*
X106377505Y-70259819D02*
X106377505Y-69736009D01*
X106377505Y-69736009D02*
X106425124Y-69640771D01*
X106425124Y-69640771D02*
X106520362Y-69593152D01*
X106520362Y-69593152D02*
X106710838Y-69593152D01*
X106710838Y-69593152D02*
X106806076Y-69640771D01*
X106377505Y-70212200D02*
X106472743Y-70259819D01*
X106472743Y-70259819D02*
X106710838Y-70259819D01*
X106710838Y-70259819D02*
X106806076Y-70212200D01*
X106806076Y-70212200D02*
X106853695Y-70116961D01*
X106853695Y-70116961D02*
X106853695Y-70021723D01*
X106853695Y-70021723D02*
X106806076Y-69926485D01*
X106806076Y-69926485D02*
X106710838Y-69878866D01*
X106710838Y-69878866D02*
X106472743Y-69878866D01*
X106472743Y-69878866D02*
X106377505Y-69831247D01*
X105901314Y-70259819D02*
X105901314Y-69593152D01*
X105901314Y-69783628D02*
X105853695Y-69688390D01*
X105853695Y-69688390D02*
X105806076Y-69640771D01*
X105806076Y-69640771D02*
X105710838Y-69593152D01*
X105710838Y-69593152D02*
X105615600Y-69593152D01*
X104901314Y-70212200D02*
X104996552Y-70259819D01*
X104996552Y-70259819D02*
X105187028Y-70259819D01*
X105187028Y-70259819D02*
X105282266Y-70212200D01*
X105282266Y-70212200D02*
X105329885Y-70116961D01*
X105329885Y-70116961D02*
X105329885Y-69736009D01*
X105329885Y-69736009D02*
X105282266Y-69640771D01*
X105282266Y-69640771D02*
X105187028Y-69593152D01*
X105187028Y-69593152D02*
X104996552Y-69593152D01*
X104996552Y-69593152D02*
X104901314Y-69640771D01*
X104901314Y-69640771D02*
X104853695Y-69736009D01*
X104853695Y-69736009D02*
X104853695Y-69831247D01*
X104853695Y-69831247D02*
X105329885Y-69926485D01*
X104425123Y-70164580D02*
X104377504Y-70212200D01*
X104377504Y-70212200D02*
X104425123Y-70259819D01*
X104425123Y-70259819D02*
X104472742Y-70212200D01*
X104472742Y-70212200D02*
X104425123Y-70164580D01*
X104425123Y-70164580D02*
X104425123Y-70259819D01*
X104425123Y-69640771D02*
X104377504Y-69688390D01*
X104377504Y-69688390D02*
X104425123Y-69736009D01*
X104425123Y-69736009D02*
X104472742Y-69688390D01*
X104472742Y-69688390D02*
X104425123Y-69640771D01*
X104425123Y-69640771D02*
X104425123Y-69736009D01*
X102758457Y-69593152D02*
X102758457Y-70402676D01*
X102758457Y-70402676D02*
X102806076Y-70497914D01*
X102806076Y-70497914D02*
X102853695Y-70545533D01*
X102853695Y-70545533D02*
X102948933Y-70593152D01*
X102948933Y-70593152D02*
X103091790Y-70593152D01*
X103091790Y-70593152D02*
X103187028Y-70545533D01*
X102758457Y-70212200D02*
X102853695Y-70259819D01*
X102853695Y-70259819D02*
X103044171Y-70259819D01*
X103044171Y-70259819D02*
X103139409Y-70212200D01*
X103139409Y-70212200D02*
X103187028Y-70164580D01*
X103187028Y-70164580D02*
X103234647Y-70069342D01*
X103234647Y-70069342D02*
X103234647Y-69783628D01*
X103234647Y-69783628D02*
X103187028Y-69688390D01*
X103187028Y-69688390D02*
X103139409Y-69640771D01*
X103139409Y-69640771D02*
X103044171Y-69593152D01*
X103044171Y-69593152D02*
X102853695Y-69593152D01*
X102853695Y-69593152D02*
X102758457Y-69640771D01*
X102282266Y-70259819D02*
X102282266Y-69593152D01*
X102282266Y-69259819D02*
X102329885Y-69307438D01*
X102329885Y-69307438D02*
X102282266Y-69355057D01*
X102282266Y-69355057D02*
X102234647Y-69307438D01*
X102234647Y-69307438D02*
X102282266Y-69259819D01*
X102282266Y-69259819D02*
X102282266Y-69355057D01*
X101948933Y-69593152D02*
X101567981Y-69593152D01*
X101806076Y-69259819D02*
X101806076Y-70116961D01*
X101806076Y-70116961D02*
X101758457Y-70212200D01*
X101758457Y-70212200D02*
X101663219Y-70259819D01*
X101663219Y-70259819D02*
X101567981Y-70259819D01*
X101234647Y-70259819D02*
X101234647Y-69259819D01*
X100806076Y-70259819D02*
X100806076Y-69736009D01*
X100806076Y-69736009D02*
X100853695Y-69640771D01*
X100853695Y-69640771D02*
X100948933Y-69593152D01*
X100948933Y-69593152D02*
X101091790Y-69593152D01*
X101091790Y-69593152D02*
X101187028Y-69640771D01*
X101187028Y-69640771D02*
X101234647Y-69688390D01*
X99901314Y-69593152D02*
X99901314Y-70259819D01*
X100329885Y-69593152D02*
X100329885Y-70116961D01*
X100329885Y-70116961D02*
X100282266Y-70212200D01*
X100282266Y-70212200D02*
X100187028Y-70259819D01*
X100187028Y-70259819D02*
X100044171Y-70259819D01*
X100044171Y-70259819D02*
X99948933Y-70212200D01*
X99948933Y-70212200D02*
X99901314Y-70164580D01*
X99425123Y-70259819D02*
X99425123Y-69259819D01*
X99425123Y-69640771D02*
X99329885Y-69593152D01*
X99329885Y-69593152D02*
X99139409Y-69593152D01*
X99139409Y-69593152D02*
X99044171Y-69640771D01*
X99044171Y-69640771D02*
X98996552Y-69688390D01*
X98996552Y-69688390D02*
X98948933Y-69783628D01*
X98948933Y-69783628D02*
X98948933Y-70069342D01*
X98948933Y-70069342D02*
X98996552Y-70164580D01*
X98996552Y-70164580D02*
X99044171Y-70212200D01*
X99044171Y-70212200D02*
X99139409Y-70259819D01*
X99139409Y-70259819D02*
X99329885Y-70259819D01*
X99329885Y-70259819D02*
X99425123Y-70212200D01*
X98520361Y-70164580D02*
X98472742Y-70212200D01*
X98472742Y-70212200D02*
X98520361Y-70259819D01*
X98520361Y-70259819D02*
X98567980Y-70212200D01*
X98567980Y-70212200D02*
X98520361Y-70164580D01*
X98520361Y-70164580D02*
X98520361Y-70259819D01*
X97615600Y-70212200D02*
X97710838Y-70259819D01*
X97710838Y-70259819D02*
X97901314Y-70259819D01*
X97901314Y-70259819D02*
X97996552Y-70212200D01*
X97996552Y-70212200D02*
X98044171Y-70164580D01*
X98044171Y-70164580D02*
X98091790Y-70069342D01*
X98091790Y-70069342D02*
X98091790Y-69783628D01*
X98091790Y-69783628D02*
X98044171Y-69688390D01*
X98044171Y-69688390D02*
X97996552Y-69640771D01*
X97996552Y-69640771D02*
X97901314Y-69593152D01*
X97901314Y-69593152D02*
X97710838Y-69593152D01*
X97710838Y-69593152D02*
X97615600Y-69640771D01*
X97044171Y-70259819D02*
X97139409Y-70212200D01*
X97139409Y-70212200D02*
X97187028Y-70164580D01*
X97187028Y-70164580D02*
X97234647Y-70069342D01*
X97234647Y-70069342D02*
X97234647Y-69783628D01*
X97234647Y-69783628D02*
X97187028Y-69688390D01*
X97187028Y-69688390D02*
X97139409Y-69640771D01*
X97139409Y-69640771D02*
X97044171Y-69593152D01*
X97044171Y-69593152D02*
X96901314Y-69593152D01*
X96901314Y-69593152D02*
X96806076Y-69640771D01*
X96806076Y-69640771D02*
X96758457Y-69688390D01*
X96758457Y-69688390D02*
X96710838Y-69783628D01*
X96710838Y-69783628D02*
X96710838Y-70069342D01*
X96710838Y-70069342D02*
X96758457Y-70164580D01*
X96758457Y-70164580D02*
X96806076Y-70212200D01*
X96806076Y-70212200D02*
X96901314Y-70259819D01*
X96901314Y-70259819D02*
X97044171Y-70259819D01*
X96282266Y-70259819D02*
X96282266Y-69593152D01*
X96282266Y-69688390D02*
X96234647Y-69640771D01*
X96234647Y-69640771D02*
X96139409Y-69593152D01*
X96139409Y-69593152D02*
X95996552Y-69593152D01*
X95996552Y-69593152D02*
X95901314Y-69640771D01*
X95901314Y-69640771D02*
X95853695Y-69736009D01*
X95853695Y-69736009D02*
X95853695Y-70259819D01*
X95853695Y-69736009D02*
X95806076Y-69640771D01*
X95806076Y-69640771D02*
X95710838Y-69593152D01*
X95710838Y-69593152D02*
X95567981Y-69593152D01*
X95567981Y-69593152D02*
X95472742Y-69640771D01*
X95472742Y-69640771D02*
X95425123Y-69736009D01*
X95425123Y-69736009D02*
X95425123Y-70259819D01*
X94234648Y-69212200D02*
X95091790Y-70497914D01*
X93901314Y-70259819D02*
X93901314Y-69259819D01*
X93472743Y-70259819D02*
X93472743Y-69736009D01*
X93472743Y-69736009D02*
X93520362Y-69640771D01*
X93520362Y-69640771D02*
X93615600Y-69593152D01*
X93615600Y-69593152D02*
X93758457Y-69593152D01*
X93758457Y-69593152D02*
X93853695Y-69640771D01*
X93853695Y-69640771D02*
X93901314Y-69688390D01*
X92567981Y-70259819D02*
X92567981Y-69736009D01*
X92567981Y-69736009D02*
X92615600Y-69640771D01*
X92615600Y-69640771D02*
X92710838Y-69593152D01*
X92710838Y-69593152D02*
X92901314Y-69593152D01*
X92901314Y-69593152D02*
X92996552Y-69640771D01*
X92567981Y-70212200D02*
X92663219Y-70259819D01*
X92663219Y-70259819D02*
X92901314Y-70259819D01*
X92901314Y-70259819D02*
X92996552Y-70212200D01*
X92996552Y-70212200D02*
X93044171Y-70116961D01*
X93044171Y-70116961D02*
X93044171Y-70021723D01*
X93044171Y-70021723D02*
X92996552Y-69926485D01*
X92996552Y-69926485D02*
X92901314Y-69878866D01*
X92901314Y-69878866D02*
X92663219Y-69878866D01*
X92663219Y-69878866D02*
X92567981Y-69831247D01*
X92091790Y-69593152D02*
X92091790Y-70593152D01*
X92091790Y-69640771D02*
X91996552Y-69593152D01*
X91996552Y-69593152D02*
X91806076Y-69593152D01*
X91806076Y-69593152D02*
X91710838Y-69640771D01*
X91710838Y-69640771D02*
X91663219Y-69688390D01*
X91663219Y-69688390D02*
X91615600Y-69783628D01*
X91615600Y-69783628D02*
X91615600Y-70069342D01*
X91615600Y-70069342D02*
X91663219Y-70164580D01*
X91663219Y-70164580D02*
X91710838Y-70212200D01*
X91710838Y-70212200D02*
X91806076Y-70259819D01*
X91806076Y-70259819D02*
X91996552Y-70259819D01*
X91996552Y-70259819D02*
X92091790Y-70212200D01*
X91187028Y-70259819D02*
X91187028Y-69593152D01*
X91187028Y-69259819D02*
X91234647Y-69307438D01*
X91234647Y-69307438D02*
X91187028Y-69355057D01*
X91187028Y-69355057D02*
X91139409Y-69307438D01*
X91139409Y-69307438D02*
X91187028Y-69259819D01*
X91187028Y-69259819D02*
X91187028Y-69355057D01*
X90329886Y-70212200D02*
X90425124Y-70259819D01*
X90425124Y-70259819D02*
X90615600Y-70259819D01*
X90615600Y-70259819D02*
X90710838Y-70212200D01*
X90710838Y-70212200D02*
X90758457Y-70116961D01*
X90758457Y-70116961D02*
X90758457Y-69736009D01*
X90758457Y-69736009D02*
X90710838Y-69640771D01*
X90710838Y-69640771D02*
X90615600Y-69593152D01*
X90615600Y-69593152D02*
X90425124Y-69593152D01*
X90425124Y-69593152D02*
X90329886Y-69640771D01*
X90329886Y-69640771D02*
X90282267Y-69736009D01*
X90282267Y-69736009D02*
X90282267Y-69831247D01*
X90282267Y-69831247D02*
X90758457Y-69926485D01*
X89710838Y-70259819D02*
X89806076Y-70212200D01*
X89806076Y-70212200D02*
X89853695Y-70116961D01*
X89853695Y-70116961D02*
X89853695Y-69259819D01*
X88615600Y-69212200D02*
X89472742Y-70497914D01*
X88377504Y-69593152D02*
X88187028Y-70259819D01*
X88187028Y-70259819D02*
X87996552Y-69783628D01*
X87996552Y-69783628D02*
X87806076Y-70259819D01*
X87806076Y-70259819D02*
X87615600Y-69593152D01*
X87282266Y-70212200D02*
X87187028Y-70259819D01*
X87187028Y-70259819D02*
X86996552Y-70259819D01*
X86996552Y-70259819D02*
X86901314Y-70212200D01*
X86901314Y-70212200D02*
X86853695Y-70116961D01*
X86853695Y-70116961D02*
X86853695Y-70069342D01*
X86853695Y-70069342D02*
X86901314Y-69974104D01*
X86901314Y-69974104D02*
X86996552Y-69926485D01*
X86996552Y-69926485D02*
X87139409Y-69926485D01*
X87139409Y-69926485D02*
X87234647Y-69878866D01*
X87234647Y-69878866D02*
X87282266Y-69783628D01*
X87282266Y-69783628D02*
X87282266Y-69736009D01*
X87282266Y-69736009D02*
X87234647Y-69640771D01*
X87234647Y-69640771D02*
X87139409Y-69593152D01*
X87139409Y-69593152D02*
X86996552Y-69593152D01*
X86996552Y-69593152D02*
X86901314Y-69640771D01*
X86425123Y-70259819D02*
X86425123Y-69259819D01*
X86425123Y-69640771D02*
X86329885Y-69593152D01*
X86329885Y-69593152D02*
X86139409Y-69593152D01*
X86139409Y-69593152D02*
X86044171Y-69640771D01*
X86044171Y-69640771D02*
X85996552Y-69688390D01*
X85996552Y-69688390D02*
X85948933Y-69783628D01*
X85948933Y-69783628D02*
X85948933Y-70069342D01*
X85948933Y-70069342D02*
X85996552Y-70164580D01*
X85996552Y-70164580D02*
X86044171Y-70212200D01*
X86044171Y-70212200D02*
X86139409Y-70259819D01*
X86139409Y-70259819D02*
X86329885Y-70259819D01*
X86329885Y-70259819D02*
X86425123Y-70212200D01*
X85377504Y-70259819D02*
X85472742Y-70212200D01*
X85472742Y-70212200D02*
X85520361Y-70164580D01*
X85520361Y-70164580D02*
X85567980Y-70069342D01*
X85567980Y-70069342D02*
X85567980Y-69783628D01*
X85567980Y-69783628D02*
X85520361Y-69688390D01*
X85520361Y-69688390D02*
X85472742Y-69640771D01*
X85472742Y-69640771D02*
X85377504Y-69593152D01*
X85377504Y-69593152D02*
X85234647Y-69593152D01*
X85234647Y-69593152D02*
X85139409Y-69640771D01*
X85139409Y-69640771D02*
X85091790Y-69688390D01*
X85091790Y-69688390D02*
X85044171Y-69783628D01*
X85044171Y-69783628D02*
X85044171Y-70069342D01*
X85044171Y-70069342D02*
X85091790Y-70164580D01*
X85091790Y-70164580D02*
X85139409Y-70212200D01*
X85139409Y-70212200D02*
X85234647Y-70259819D01*
X85234647Y-70259819D02*
X85377504Y-70259819D01*
X84758456Y-69593152D02*
X84377504Y-69593152D01*
X84615599Y-69259819D02*
X84615599Y-70116961D01*
X84615599Y-70116961D02*
X84567980Y-70212200D01*
X84567980Y-70212200D02*
X84472742Y-70259819D01*
X84472742Y-70259819D02*
X84377504Y-70259819D01*
M02*
