%TF.GenerationSoftware,KiCad,Pcbnew,7.0.7*%
%TF.CreationDate,2024-12-21T21:31:14+01:00*%
%TF.ProjectId,servo_board,73657276-6f5f-4626-9f61-72642e6b6963,1.0*%
%TF.SameCoordinates,Original*%
%TF.FileFunction,Drillmap*%
%TF.FilePolarity,Positive*%
%FSLAX45Y45*%
G04 Gerber Fmt 4.5, Leading zero omitted, Abs format (unit mm)*
G04 Created by KiCad (PCBNEW 7.0.7) date 2024-12-21 21:31:14*
%MOMM*%
%LPD*%
G01*
G04 APERTURE LIST*
%ADD10C,0.100000*%
%ADD11C,0.200000*%
%ADD12C,0.080000*%
%ADD13C,0.090000*%
G04 APERTURE END LIST*
D10*
X7700000Y-5100000D02*
X11800000Y-5100000D01*
X7500000Y-6900000D02*
X7500000Y-5300000D01*
X11800000Y-7100000D02*
X7700000Y-7100000D01*
X12000000Y-5300000D02*
X12000000Y-6900000D01*
X12000000Y-5300000D02*
G75*
G03*
X11800000Y-5100000I-200000J0D01*
G01*
X11800000Y-7100000D02*
G75*
G03*
X12000000Y-6900000I0J200000D01*
G01*
X7500000Y-6900000D02*
G75*
G03*
X7700000Y-7100000I200000J0D01*
G01*
X7700000Y-5100000D02*
G75*
G03*
X7500000Y-5300000I0J-200000D01*
G01*
D11*
D12*
X8977000Y-5548000D02*
X9057000Y-5628000D01*
X9057000Y-5548000D02*
X8977000Y-5628000D01*
X8977000Y-6564000D02*
X9057000Y-6644000D01*
X9057000Y-6564000D02*
X8977000Y-6644000D01*
D13*
X8300000Y-5588000D02*
G75*
G03*
X8300000Y-5588000I-45000J0D01*
G01*
X8554000Y-5588000D02*
G75*
G03*
X8554000Y-5588000I-45000J0D01*
G01*
D10*
X8255000Y-6304000D02*
X8255000Y-6404000D01*
X8205000Y-6354000D02*
X8305000Y-6354000D01*
X8255000Y-6554000D02*
X8255000Y-6654000D01*
X8205000Y-6604000D02*
X8305000Y-6604000D01*
X9525000Y-5792000D02*
X9525000Y-5892000D01*
X9475000Y-5842000D02*
X9575000Y-5842000D01*
X9525000Y-6046000D02*
X9525000Y-6146000D01*
X9475000Y-6096000D02*
X9575000Y-6096000D01*
X9525000Y-6300000D02*
X9525000Y-6400000D01*
X9475000Y-6350000D02*
X9575000Y-6350000D01*
X9525000Y-6554000D02*
X9525000Y-6654000D01*
X9475000Y-6604000D02*
X9575000Y-6604000D01*
X9779000Y-5792000D02*
X9779000Y-5892000D01*
X9729000Y-5842000D02*
X9829000Y-5842000D01*
X9779000Y-6046000D02*
X9779000Y-6146000D01*
X9729000Y-6096000D02*
X9829000Y-6096000D01*
X9779000Y-6300000D02*
X9779000Y-6400000D01*
X9729000Y-6350000D02*
X9829000Y-6350000D01*
X9779000Y-6554000D02*
X9779000Y-6654000D01*
X9729000Y-6604000D02*
X9829000Y-6604000D01*
X10033000Y-5792000D02*
X10033000Y-5892000D01*
X9983000Y-5842000D02*
X10083000Y-5842000D01*
X10033000Y-6046000D02*
X10033000Y-6146000D01*
X9983000Y-6096000D02*
X10083000Y-6096000D01*
X10033000Y-6300000D02*
X10033000Y-6400000D01*
X9983000Y-6350000D02*
X10083000Y-6350000D01*
X10033000Y-6554000D02*
X10033000Y-6654000D01*
X9983000Y-6604000D02*
X10083000Y-6604000D01*
X10922000Y-5792000D02*
X10922000Y-5892000D01*
X10872000Y-5842000D02*
X10972000Y-5842000D01*
X10922000Y-6046000D02*
X10922000Y-6146000D01*
X10872000Y-6096000D02*
X10972000Y-6096000D01*
X10922000Y-6300000D02*
X10922000Y-6400000D01*
X10872000Y-6350000D02*
X10972000Y-6350000D01*
X11176000Y-5792000D02*
X11176000Y-5892000D01*
X11126000Y-5842000D02*
X11226000Y-5842000D01*
X11176000Y-6046000D02*
X11176000Y-6146000D01*
X11126000Y-6096000D02*
X11226000Y-6096000D01*
X11176000Y-6300000D02*
X11176000Y-6400000D01*
X11126000Y-6350000D02*
X11226000Y-6350000D01*
D11*
X7755777Y-7416484D02*
X7755777Y-7216484D01*
X7755777Y-7216484D02*
X7803396Y-7216484D01*
X7803396Y-7216484D02*
X7831967Y-7226008D01*
X7831967Y-7226008D02*
X7851015Y-7245055D01*
X7851015Y-7245055D02*
X7860539Y-7264103D01*
X7860539Y-7264103D02*
X7870062Y-7302198D01*
X7870062Y-7302198D02*
X7870062Y-7330769D01*
X7870062Y-7330769D02*
X7860539Y-7368865D01*
X7860539Y-7368865D02*
X7851015Y-7387912D01*
X7851015Y-7387912D02*
X7831967Y-7406960D01*
X7831967Y-7406960D02*
X7803396Y-7416484D01*
X7803396Y-7416484D02*
X7755777Y-7416484D01*
X7955777Y-7416484D02*
X7955777Y-7283150D01*
X7955777Y-7321246D02*
X7965301Y-7302198D01*
X7965301Y-7302198D02*
X7974824Y-7292674D01*
X7974824Y-7292674D02*
X7993872Y-7283150D01*
X7993872Y-7283150D02*
X8012920Y-7283150D01*
X8079586Y-7416484D02*
X8079586Y-7283150D01*
X8079586Y-7216484D02*
X8070062Y-7226008D01*
X8070062Y-7226008D02*
X8079586Y-7235531D01*
X8079586Y-7235531D02*
X8089110Y-7226008D01*
X8089110Y-7226008D02*
X8079586Y-7216484D01*
X8079586Y-7216484D02*
X8079586Y-7235531D01*
X8203396Y-7416484D02*
X8184348Y-7406960D01*
X8184348Y-7406960D02*
X8174824Y-7387912D01*
X8174824Y-7387912D02*
X8174824Y-7216484D01*
X8308158Y-7416484D02*
X8289110Y-7406960D01*
X8289110Y-7406960D02*
X8279586Y-7387912D01*
X8279586Y-7387912D02*
X8279586Y-7216484D01*
X8536729Y-7416484D02*
X8536729Y-7216484D01*
X8536729Y-7216484D02*
X8603396Y-7359341D01*
X8603396Y-7359341D02*
X8670063Y-7216484D01*
X8670063Y-7216484D02*
X8670063Y-7416484D01*
X8851015Y-7416484D02*
X8851015Y-7311722D01*
X8851015Y-7311722D02*
X8841491Y-7292674D01*
X8841491Y-7292674D02*
X8822444Y-7283150D01*
X8822444Y-7283150D02*
X8784348Y-7283150D01*
X8784348Y-7283150D02*
X8765301Y-7292674D01*
X8851015Y-7406960D02*
X8831967Y-7416484D01*
X8831967Y-7416484D02*
X8784348Y-7416484D01*
X8784348Y-7416484D02*
X8765301Y-7406960D01*
X8765301Y-7406960D02*
X8755777Y-7387912D01*
X8755777Y-7387912D02*
X8755777Y-7368865D01*
X8755777Y-7368865D02*
X8765301Y-7349817D01*
X8765301Y-7349817D02*
X8784348Y-7340293D01*
X8784348Y-7340293D02*
X8831967Y-7340293D01*
X8831967Y-7340293D02*
X8851015Y-7330769D01*
X8946253Y-7283150D02*
X8946253Y-7483150D01*
X8946253Y-7292674D02*
X8965301Y-7283150D01*
X8965301Y-7283150D02*
X9003396Y-7283150D01*
X9003396Y-7283150D02*
X9022444Y-7292674D01*
X9022444Y-7292674D02*
X9031967Y-7302198D01*
X9031967Y-7302198D02*
X9041491Y-7321246D01*
X9041491Y-7321246D02*
X9041491Y-7378388D01*
X9041491Y-7378388D02*
X9031967Y-7397436D01*
X9031967Y-7397436D02*
X9022444Y-7406960D01*
X9022444Y-7406960D02*
X9003396Y-7416484D01*
X9003396Y-7416484D02*
X8965301Y-7416484D01*
X8965301Y-7416484D02*
X8946253Y-7406960D01*
X9127205Y-7397436D02*
X9136729Y-7406960D01*
X9136729Y-7406960D02*
X9127205Y-7416484D01*
X9127205Y-7416484D02*
X9117682Y-7406960D01*
X9117682Y-7406960D02*
X9127205Y-7397436D01*
X9127205Y-7397436D02*
X9127205Y-7416484D01*
X9127205Y-7292674D02*
X9136729Y-7302198D01*
X9136729Y-7302198D02*
X9127205Y-7311722D01*
X9127205Y-7311722D02*
X9117682Y-7302198D01*
X9117682Y-7302198D02*
X9127205Y-7292674D01*
X9127205Y-7292674D02*
X9127205Y-7311722D01*
D12*
X7415000Y-7705000D02*
X7495000Y-7785000D01*
X7495000Y-7705000D02*
X7415000Y-7785000D01*
D11*
X7793872Y-7636484D02*
X7812920Y-7636484D01*
X7812920Y-7636484D02*
X7831967Y-7646008D01*
X7831967Y-7646008D02*
X7841491Y-7655531D01*
X7841491Y-7655531D02*
X7851015Y-7674579D01*
X7851015Y-7674579D02*
X7860539Y-7712674D01*
X7860539Y-7712674D02*
X7860539Y-7760293D01*
X7860539Y-7760293D02*
X7851015Y-7798388D01*
X7851015Y-7798388D02*
X7841491Y-7817436D01*
X7841491Y-7817436D02*
X7831967Y-7826960D01*
X7831967Y-7826960D02*
X7812920Y-7836484D01*
X7812920Y-7836484D02*
X7793872Y-7836484D01*
X7793872Y-7836484D02*
X7774824Y-7826960D01*
X7774824Y-7826960D02*
X7765301Y-7817436D01*
X7765301Y-7817436D02*
X7755777Y-7798388D01*
X7755777Y-7798388D02*
X7746253Y-7760293D01*
X7746253Y-7760293D02*
X7746253Y-7712674D01*
X7746253Y-7712674D02*
X7755777Y-7674579D01*
X7755777Y-7674579D02*
X7765301Y-7655531D01*
X7765301Y-7655531D02*
X7774824Y-7646008D01*
X7774824Y-7646008D02*
X7793872Y-7636484D01*
X7946253Y-7817436D02*
X7955777Y-7826960D01*
X7955777Y-7826960D02*
X7946253Y-7836484D01*
X7946253Y-7836484D02*
X7936729Y-7826960D01*
X7936729Y-7826960D02*
X7946253Y-7817436D01*
X7946253Y-7817436D02*
X7946253Y-7836484D01*
X8070062Y-7722198D02*
X8051015Y-7712674D01*
X8051015Y-7712674D02*
X8041491Y-7703150D01*
X8041491Y-7703150D02*
X8031967Y-7684103D01*
X8031967Y-7684103D02*
X8031967Y-7674579D01*
X8031967Y-7674579D02*
X8041491Y-7655531D01*
X8041491Y-7655531D02*
X8051015Y-7646008D01*
X8051015Y-7646008D02*
X8070062Y-7636484D01*
X8070062Y-7636484D02*
X8108158Y-7636484D01*
X8108158Y-7636484D02*
X8127205Y-7646008D01*
X8127205Y-7646008D02*
X8136729Y-7655531D01*
X8136729Y-7655531D02*
X8146253Y-7674579D01*
X8146253Y-7674579D02*
X8146253Y-7684103D01*
X8146253Y-7684103D02*
X8136729Y-7703150D01*
X8136729Y-7703150D02*
X8127205Y-7712674D01*
X8127205Y-7712674D02*
X8108158Y-7722198D01*
X8108158Y-7722198D02*
X8070062Y-7722198D01*
X8070062Y-7722198D02*
X8051015Y-7731722D01*
X8051015Y-7731722D02*
X8041491Y-7741246D01*
X8041491Y-7741246D02*
X8031967Y-7760293D01*
X8031967Y-7760293D02*
X8031967Y-7798388D01*
X8031967Y-7798388D02*
X8041491Y-7817436D01*
X8041491Y-7817436D02*
X8051015Y-7826960D01*
X8051015Y-7826960D02*
X8070062Y-7836484D01*
X8070062Y-7836484D02*
X8108158Y-7836484D01*
X8108158Y-7836484D02*
X8127205Y-7826960D01*
X8127205Y-7826960D02*
X8136729Y-7817436D01*
X8136729Y-7817436D02*
X8146253Y-7798388D01*
X8146253Y-7798388D02*
X8146253Y-7760293D01*
X8146253Y-7760293D02*
X8136729Y-7741246D01*
X8136729Y-7741246D02*
X8127205Y-7731722D01*
X8127205Y-7731722D02*
X8108158Y-7722198D01*
X8270062Y-7636484D02*
X8289110Y-7636484D01*
X8289110Y-7636484D02*
X8308158Y-7646008D01*
X8308158Y-7646008D02*
X8317682Y-7655531D01*
X8317682Y-7655531D02*
X8327205Y-7674579D01*
X8327205Y-7674579D02*
X8336729Y-7712674D01*
X8336729Y-7712674D02*
X8336729Y-7760293D01*
X8336729Y-7760293D02*
X8327205Y-7798388D01*
X8327205Y-7798388D02*
X8317682Y-7817436D01*
X8317682Y-7817436D02*
X8308158Y-7826960D01*
X8308158Y-7826960D02*
X8289110Y-7836484D01*
X8289110Y-7836484D02*
X8270062Y-7836484D01*
X8270062Y-7836484D02*
X8251015Y-7826960D01*
X8251015Y-7826960D02*
X8241491Y-7817436D01*
X8241491Y-7817436D02*
X8231967Y-7798388D01*
X8231967Y-7798388D02*
X8222443Y-7760293D01*
X8222443Y-7760293D02*
X8222443Y-7712674D01*
X8222443Y-7712674D02*
X8231967Y-7674579D01*
X8231967Y-7674579D02*
X8241491Y-7655531D01*
X8241491Y-7655531D02*
X8251015Y-7646008D01*
X8251015Y-7646008D02*
X8270062Y-7636484D01*
X8460539Y-7636484D02*
X8479586Y-7636484D01*
X8479586Y-7636484D02*
X8498634Y-7646008D01*
X8498634Y-7646008D02*
X8508158Y-7655531D01*
X8508158Y-7655531D02*
X8517682Y-7674579D01*
X8517682Y-7674579D02*
X8527205Y-7712674D01*
X8527205Y-7712674D02*
X8527205Y-7760293D01*
X8527205Y-7760293D02*
X8517682Y-7798388D01*
X8517682Y-7798388D02*
X8508158Y-7817436D01*
X8508158Y-7817436D02*
X8498634Y-7826960D01*
X8498634Y-7826960D02*
X8479586Y-7836484D01*
X8479586Y-7836484D02*
X8460539Y-7836484D01*
X8460539Y-7836484D02*
X8441491Y-7826960D01*
X8441491Y-7826960D02*
X8431967Y-7817436D01*
X8431967Y-7817436D02*
X8422444Y-7798388D01*
X8422444Y-7798388D02*
X8412920Y-7760293D01*
X8412920Y-7760293D02*
X8412920Y-7712674D01*
X8412920Y-7712674D02*
X8422444Y-7674579D01*
X8422444Y-7674579D02*
X8431967Y-7655531D01*
X8431967Y-7655531D02*
X8441491Y-7646008D01*
X8441491Y-7646008D02*
X8460539Y-7636484D01*
X8612920Y-7836484D02*
X8612920Y-7703150D01*
X8612920Y-7722198D02*
X8622444Y-7712674D01*
X8622444Y-7712674D02*
X8641491Y-7703150D01*
X8641491Y-7703150D02*
X8670063Y-7703150D01*
X8670063Y-7703150D02*
X8689110Y-7712674D01*
X8689110Y-7712674D02*
X8698634Y-7731722D01*
X8698634Y-7731722D02*
X8698634Y-7836484D01*
X8698634Y-7731722D02*
X8708158Y-7712674D01*
X8708158Y-7712674D02*
X8727205Y-7703150D01*
X8727205Y-7703150D02*
X8755777Y-7703150D01*
X8755777Y-7703150D02*
X8774825Y-7712674D01*
X8774825Y-7712674D02*
X8784348Y-7731722D01*
X8784348Y-7731722D02*
X8784348Y-7836484D01*
X8879586Y-7836484D02*
X8879586Y-7703150D01*
X8879586Y-7722198D02*
X8889110Y-7712674D01*
X8889110Y-7712674D02*
X8908158Y-7703150D01*
X8908158Y-7703150D02*
X8936729Y-7703150D01*
X8936729Y-7703150D02*
X8955777Y-7712674D01*
X8955777Y-7712674D02*
X8965301Y-7731722D01*
X8965301Y-7731722D02*
X8965301Y-7836484D01*
X8965301Y-7731722D02*
X8974825Y-7712674D01*
X8974825Y-7712674D02*
X8993872Y-7703150D01*
X8993872Y-7703150D02*
X9022444Y-7703150D01*
X9022444Y-7703150D02*
X9041491Y-7712674D01*
X9041491Y-7712674D02*
X9051015Y-7731722D01*
X9051015Y-7731722D02*
X9051015Y-7836484D01*
X9441491Y-7626960D02*
X9270063Y-7884103D01*
X9698634Y-7636484D02*
X9717682Y-7636484D01*
X9717682Y-7636484D02*
X9736729Y-7646008D01*
X9736729Y-7646008D02*
X9746253Y-7655531D01*
X9746253Y-7655531D02*
X9755777Y-7674579D01*
X9755777Y-7674579D02*
X9765301Y-7712674D01*
X9765301Y-7712674D02*
X9765301Y-7760293D01*
X9765301Y-7760293D02*
X9755777Y-7798388D01*
X9755777Y-7798388D02*
X9746253Y-7817436D01*
X9746253Y-7817436D02*
X9736729Y-7826960D01*
X9736729Y-7826960D02*
X9717682Y-7836484D01*
X9717682Y-7836484D02*
X9698634Y-7836484D01*
X9698634Y-7836484D02*
X9679587Y-7826960D01*
X9679587Y-7826960D02*
X9670063Y-7817436D01*
X9670063Y-7817436D02*
X9660539Y-7798388D01*
X9660539Y-7798388D02*
X9651015Y-7760293D01*
X9651015Y-7760293D02*
X9651015Y-7712674D01*
X9651015Y-7712674D02*
X9660539Y-7674579D01*
X9660539Y-7674579D02*
X9670063Y-7655531D01*
X9670063Y-7655531D02*
X9679587Y-7646008D01*
X9679587Y-7646008D02*
X9698634Y-7636484D01*
X9851015Y-7817436D02*
X9860539Y-7826960D01*
X9860539Y-7826960D02*
X9851015Y-7836484D01*
X9851015Y-7836484D02*
X9841491Y-7826960D01*
X9841491Y-7826960D02*
X9851015Y-7817436D01*
X9851015Y-7817436D02*
X9851015Y-7836484D01*
X9984348Y-7636484D02*
X10003396Y-7636484D01*
X10003396Y-7636484D02*
X10022444Y-7646008D01*
X10022444Y-7646008D02*
X10031968Y-7655531D01*
X10031968Y-7655531D02*
X10041491Y-7674579D01*
X10041491Y-7674579D02*
X10051015Y-7712674D01*
X10051015Y-7712674D02*
X10051015Y-7760293D01*
X10051015Y-7760293D02*
X10041491Y-7798388D01*
X10041491Y-7798388D02*
X10031968Y-7817436D01*
X10031968Y-7817436D02*
X10022444Y-7826960D01*
X10022444Y-7826960D02*
X10003396Y-7836484D01*
X10003396Y-7836484D02*
X9984348Y-7836484D01*
X9984348Y-7836484D02*
X9965301Y-7826960D01*
X9965301Y-7826960D02*
X9955777Y-7817436D01*
X9955777Y-7817436D02*
X9946253Y-7798388D01*
X9946253Y-7798388D02*
X9936729Y-7760293D01*
X9936729Y-7760293D02*
X9936729Y-7712674D01*
X9936729Y-7712674D02*
X9946253Y-7674579D01*
X9946253Y-7674579D02*
X9955777Y-7655531D01*
X9955777Y-7655531D02*
X9965301Y-7646008D01*
X9965301Y-7646008D02*
X9984348Y-7636484D01*
X10117682Y-7636484D02*
X10241491Y-7636484D01*
X10241491Y-7636484D02*
X10174825Y-7712674D01*
X10174825Y-7712674D02*
X10203396Y-7712674D01*
X10203396Y-7712674D02*
X10222444Y-7722198D01*
X10222444Y-7722198D02*
X10231968Y-7731722D01*
X10231968Y-7731722D02*
X10241491Y-7750769D01*
X10241491Y-7750769D02*
X10241491Y-7798388D01*
X10241491Y-7798388D02*
X10231968Y-7817436D01*
X10231968Y-7817436D02*
X10222444Y-7826960D01*
X10222444Y-7826960D02*
X10203396Y-7836484D01*
X10203396Y-7836484D02*
X10146253Y-7836484D01*
X10146253Y-7836484D02*
X10127206Y-7826960D01*
X10127206Y-7826960D02*
X10117682Y-7817436D01*
X10431968Y-7836484D02*
X10317682Y-7836484D01*
X10374825Y-7836484D02*
X10374825Y-7636484D01*
X10374825Y-7636484D02*
X10355777Y-7665055D01*
X10355777Y-7665055D02*
X10336729Y-7684103D01*
X10336729Y-7684103D02*
X10317682Y-7693627D01*
X10612920Y-7636484D02*
X10517682Y-7636484D01*
X10517682Y-7636484D02*
X10508158Y-7731722D01*
X10508158Y-7731722D02*
X10517682Y-7722198D01*
X10517682Y-7722198D02*
X10536729Y-7712674D01*
X10536729Y-7712674D02*
X10584349Y-7712674D01*
X10584349Y-7712674D02*
X10603396Y-7722198D01*
X10603396Y-7722198D02*
X10612920Y-7731722D01*
X10612920Y-7731722D02*
X10622444Y-7750769D01*
X10622444Y-7750769D02*
X10622444Y-7798388D01*
X10622444Y-7798388D02*
X10612920Y-7817436D01*
X10612920Y-7817436D02*
X10603396Y-7826960D01*
X10603396Y-7826960D02*
X10584349Y-7836484D01*
X10584349Y-7836484D02*
X10536729Y-7836484D01*
X10536729Y-7836484D02*
X10517682Y-7826960D01*
X10517682Y-7826960D02*
X10508158Y-7817436D01*
X10698634Y-7636484D02*
X10698634Y-7674579D01*
X10774825Y-7636484D02*
X10774825Y-7674579D01*
X11070063Y-7912674D02*
X11060539Y-7903150D01*
X11060539Y-7903150D02*
X11041491Y-7874579D01*
X11041491Y-7874579D02*
X11031968Y-7855531D01*
X11031968Y-7855531D02*
X11022444Y-7826960D01*
X11022444Y-7826960D02*
X11012920Y-7779341D01*
X11012920Y-7779341D02*
X11012920Y-7741246D01*
X11012920Y-7741246D02*
X11022444Y-7693627D01*
X11022444Y-7693627D02*
X11031968Y-7665055D01*
X11031968Y-7665055D02*
X11041491Y-7646008D01*
X11041491Y-7646008D02*
X11060539Y-7617436D01*
X11060539Y-7617436D02*
X11070063Y-7607912D01*
X11136730Y-7655531D02*
X11146253Y-7646008D01*
X11146253Y-7646008D02*
X11165301Y-7636484D01*
X11165301Y-7636484D02*
X11212920Y-7636484D01*
X11212920Y-7636484D02*
X11231968Y-7646008D01*
X11231968Y-7646008D02*
X11241491Y-7655531D01*
X11241491Y-7655531D02*
X11251015Y-7674579D01*
X11251015Y-7674579D02*
X11251015Y-7693627D01*
X11251015Y-7693627D02*
X11241491Y-7722198D01*
X11241491Y-7722198D02*
X11127206Y-7836484D01*
X11127206Y-7836484D02*
X11251015Y-7836484D01*
X11489110Y-7836484D02*
X11489110Y-7636484D01*
X11574825Y-7836484D02*
X11574825Y-7731722D01*
X11574825Y-7731722D02*
X11565301Y-7712674D01*
X11565301Y-7712674D02*
X11546253Y-7703150D01*
X11546253Y-7703150D02*
X11517682Y-7703150D01*
X11517682Y-7703150D02*
X11498634Y-7712674D01*
X11498634Y-7712674D02*
X11489110Y-7722198D01*
X11698634Y-7836484D02*
X11679587Y-7826960D01*
X11679587Y-7826960D02*
X11670063Y-7817436D01*
X11670063Y-7817436D02*
X11660539Y-7798388D01*
X11660539Y-7798388D02*
X11660539Y-7741246D01*
X11660539Y-7741246D02*
X11670063Y-7722198D01*
X11670063Y-7722198D02*
X11679587Y-7712674D01*
X11679587Y-7712674D02*
X11698634Y-7703150D01*
X11698634Y-7703150D02*
X11727206Y-7703150D01*
X11727206Y-7703150D02*
X11746253Y-7712674D01*
X11746253Y-7712674D02*
X11755777Y-7722198D01*
X11755777Y-7722198D02*
X11765301Y-7741246D01*
X11765301Y-7741246D02*
X11765301Y-7798388D01*
X11765301Y-7798388D02*
X11755777Y-7817436D01*
X11755777Y-7817436D02*
X11746253Y-7826960D01*
X11746253Y-7826960D02*
X11727206Y-7836484D01*
X11727206Y-7836484D02*
X11698634Y-7836484D01*
X11879587Y-7836484D02*
X11860539Y-7826960D01*
X11860539Y-7826960D02*
X11851015Y-7807912D01*
X11851015Y-7807912D02*
X11851015Y-7636484D01*
X12031968Y-7826960D02*
X12012920Y-7836484D01*
X12012920Y-7836484D02*
X11974825Y-7836484D01*
X11974825Y-7836484D02*
X11955777Y-7826960D01*
X11955777Y-7826960D02*
X11946253Y-7807912D01*
X11946253Y-7807912D02*
X11946253Y-7731722D01*
X11946253Y-7731722D02*
X11955777Y-7712674D01*
X11955777Y-7712674D02*
X11974825Y-7703150D01*
X11974825Y-7703150D02*
X12012920Y-7703150D01*
X12012920Y-7703150D02*
X12031968Y-7712674D01*
X12031968Y-7712674D02*
X12041491Y-7731722D01*
X12041491Y-7731722D02*
X12041491Y-7750769D01*
X12041491Y-7750769D02*
X11946253Y-7769817D01*
X12117682Y-7826960D02*
X12136730Y-7836484D01*
X12136730Y-7836484D02*
X12174825Y-7836484D01*
X12174825Y-7836484D02*
X12193872Y-7826960D01*
X12193872Y-7826960D02*
X12203396Y-7807912D01*
X12203396Y-7807912D02*
X12203396Y-7798388D01*
X12203396Y-7798388D02*
X12193872Y-7779341D01*
X12193872Y-7779341D02*
X12174825Y-7769817D01*
X12174825Y-7769817D02*
X12146253Y-7769817D01*
X12146253Y-7769817D02*
X12127206Y-7760293D01*
X12127206Y-7760293D02*
X12117682Y-7741246D01*
X12117682Y-7741246D02*
X12117682Y-7731722D01*
X12117682Y-7731722D02*
X12127206Y-7712674D01*
X12127206Y-7712674D02*
X12146253Y-7703150D01*
X12146253Y-7703150D02*
X12174825Y-7703150D01*
X12174825Y-7703150D02*
X12193872Y-7712674D01*
X12270063Y-7912674D02*
X12279587Y-7903150D01*
X12279587Y-7903150D02*
X12298634Y-7874579D01*
X12298634Y-7874579D02*
X12308158Y-7855531D01*
X12308158Y-7855531D02*
X12317682Y-7826960D01*
X12317682Y-7826960D02*
X12327206Y-7779341D01*
X12327206Y-7779341D02*
X12327206Y-7741246D01*
X12327206Y-7741246D02*
X12317682Y-7693627D01*
X12317682Y-7693627D02*
X12308158Y-7665055D01*
X12308158Y-7665055D02*
X12298634Y-7646008D01*
X12298634Y-7646008D02*
X12279587Y-7617436D01*
X12279587Y-7617436D02*
X12270063Y-7607912D01*
D13*
X7495000Y-8009000D02*
G75*
G03*
X7495000Y-8009000I-45000J0D01*
G01*
D11*
X7793872Y-7900484D02*
X7812920Y-7900484D01*
X7812920Y-7900484D02*
X7831967Y-7910008D01*
X7831967Y-7910008D02*
X7841491Y-7919531D01*
X7841491Y-7919531D02*
X7851015Y-7938579D01*
X7851015Y-7938579D02*
X7860539Y-7976674D01*
X7860539Y-7976674D02*
X7860539Y-8024293D01*
X7860539Y-8024293D02*
X7851015Y-8062388D01*
X7851015Y-8062388D02*
X7841491Y-8081436D01*
X7841491Y-8081436D02*
X7831967Y-8090960D01*
X7831967Y-8090960D02*
X7812920Y-8100484D01*
X7812920Y-8100484D02*
X7793872Y-8100484D01*
X7793872Y-8100484D02*
X7774824Y-8090960D01*
X7774824Y-8090960D02*
X7765301Y-8081436D01*
X7765301Y-8081436D02*
X7755777Y-8062388D01*
X7755777Y-8062388D02*
X7746253Y-8024293D01*
X7746253Y-8024293D02*
X7746253Y-7976674D01*
X7746253Y-7976674D02*
X7755777Y-7938579D01*
X7755777Y-7938579D02*
X7765301Y-7919531D01*
X7765301Y-7919531D02*
X7774824Y-7910008D01*
X7774824Y-7910008D02*
X7793872Y-7900484D01*
X7946253Y-8081436D02*
X7955777Y-8090960D01*
X7955777Y-8090960D02*
X7946253Y-8100484D01*
X7946253Y-8100484D02*
X7936729Y-8090960D01*
X7936729Y-8090960D02*
X7946253Y-8081436D01*
X7946253Y-8081436D02*
X7946253Y-8100484D01*
X8051015Y-8100484D02*
X8089110Y-8100484D01*
X8089110Y-8100484D02*
X8108158Y-8090960D01*
X8108158Y-8090960D02*
X8117682Y-8081436D01*
X8117682Y-8081436D02*
X8136729Y-8052865D01*
X8136729Y-8052865D02*
X8146253Y-8014769D01*
X8146253Y-8014769D02*
X8146253Y-7938579D01*
X8146253Y-7938579D02*
X8136729Y-7919531D01*
X8136729Y-7919531D02*
X8127205Y-7910008D01*
X8127205Y-7910008D02*
X8108158Y-7900484D01*
X8108158Y-7900484D02*
X8070062Y-7900484D01*
X8070062Y-7900484D02*
X8051015Y-7910008D01*
X8051015Y-7910008D02*
X8041491Y-7919531D01*
X8041491Y-7919531D02*
X8031967Y-7938579D01*
X8031967Y-7938579D02*
X8031967Y-7986198D01*
X8031967Y-7986198D02*
X8041491Y-8005246D01*
X8041491Y-8005246D02*
X8051015Y-8014769D01*
X8051015Y-8014769D02*
X8070062Y-8024293D01*
X8070062Y-8024293D02*
X8108158Y-8024293D01*
X8108158Y-8024293D02*
X8127205Y-8014769D01*
X8127205Y-8014769D02*
X8136729Y-8005246D01*
X8136729Y-8005246D02*
X8146253Y-7986198D01*
X8270062Y-7900484D02*
X8289110Y-7900484D01*
X8289110Y-7900484D02*
X8308158Y-7910008D01*
X8308158Y-7910008D02*
X8317682Y-7919531D01*
X8317682Y-7919531D02*
X8327205Y-7938579D01*
X8327205Y-7938579D02*
X8336729Y-7976674D01*
X8336729Y-7976674D02*
X8336729Y-8024293D01*
X8336729Y-8024293D02*
X8327205Y-8062388D01*
X8327205Y-8062388D02*
X8317682Y-8081436D01*
X8317682Y-8081436D02*
X8308158Y-8090960D01*
X8308158Y-8090960D02*
X8289110Y-8100484D01*
X8289110Y-8100484D02*
X8270062Y-8100484D01*
X8270062Y-8100484D02*
X8251015Y-8090960D01*
X8251015Y-8090960D02*
X8241491Y-8081436D01*
X8241491Y-8081436D02*
X8231967Y-8062388D01*
X8231967Y-8062388D02*
X8222443Y-8024293D01*
X8222443Y-8024293D02*
X8222443Y-7976674D01*
X8222443Y-7976674D02*
X8231967Y-7938579D01*
X8231967Y-7938579D02*
X8241491Y-7919531D01*
X8241491Y-7919531D02*
X8251015Y-7910008D01*
X8251015Y-7910008D02*
X8270062Y-7900484D01*
X8460539Y-7900484D02*
X8479586Y-7900484D01*
X8479586Y-7900484D02*
X8498634Y-7910008D01*
X8498634Y-7910008D02*
X8508158Y-7919531D01*
X8508158Y-7919531D02*
X8517682Y-7938579D01*
X8517682Y-7938579D02*
X8527205Y-7976674D01*
X8527205Y-7976674D02*
X8527205Y-8024293D01*
X8527205Y-8024293D02*
X8517682Y-8062388D01*
X8517682Y-8062388D02*
X8508158Y-8081436D01*
X8508158Y-8081436D02*
X8498634Y-8090960D01*
X8498634Y-8090960D02*
X8479586Y-8100484D01*
X8479586Y-8100484D02*
X8460539Y-8100484D01*
X8460539Y-8100484D02*
X8441491Y-8090960D01*
X8441491Y-8090960D02*
X8431967Y-8081436D01*
X8431967Y-8081436D02*
X8422444Y-8062388D01*
X8422444Y-8062388D02*
X8412920Y-8024293D01*
X8412920Y-8024293D02*
X8412920Y-7976674D01*
X8412920Y-7976674D02*
X8422444Y-7938579D01*
X8422444Y-7938579D02*
X8431967Y-7919531D01*
X8431967Y-7919531D02*
X8441491Y-7910008D01*
X8441491Y-7910008D02*
X8460539Y-7900484D01*
X8612920Y-8100484D02*
X8612920Y-7967150D01*
X8612920Y-7986198D02*
X8622444Y-7976674D01*
X8622444Y-7976674D02*
X8641491Y-7967150D01*
X8641491Y-7967150D02*
X8670063Y-7967150D01*
X8670063Y-7967150D02*
X8689110Y-7976674D01*
X8689110Y-7976674D02*
X8698634Y-7995722D01*
X8698634Y-7995722D02*
X8698634Y-8100484D01*
X8698634Y-7995722D02*
X8708158Y-7976674D01*
X8708158Y-7976674D02*
X8727205Y-7967150D01*
X8727205Y-7967150D02*
X8755777Y-7967150D01*
X8755777Y-7967150D02*
X8774825Y-7976674D01*
X8774825Y-7976674D02*
X8784348Y-7995722D01*
X8784348Y-7995722D02*
X8784348Y-8100484D01*
X8879586Y-8100484D02*
X8879586Y-7967150D01*
X8879586Y-7986198D02*
X8889110Y-7976674D01*
X8889110Y-7976674D02*
X8908158Y-7967150D01*
X8908158Y-7967150D02*
X8936729Y-7967150D01*
X8936729Y-7967150D02*
X8955777Y-7976674D01*
X8955777Y-7976674D02*
X8965301Y-7995722D01*
X8965301Y-7995722D02*
X8965301Y-8100484D01*
X8965301Y-7995722D02*
X8974825Y-7976674D01*
X8974825Y-7976674D02*
X8993872Y-7967150D01*
X8993872Y-7967150D02*
X9022444Y-7967150D01*
X9022444Y-7967150D02*
X9041491Y-7976674D01*
X9041491Y-7976674D02*
X9051015Y-7995722D01*
X9051015Y-7995722D02*
X9051015Y-8100484D01*
X9441491Y-7890960D02*
X9270063Y-8148103D01*
X9698634Y-7900484D02*
X9717682Y-7900484D01*
X9717682Y-7900484D02*
X9736729Y-7910008D01*
X9736729Y-7910008D02*
X9746253Y-7919531D01*
X9746253Y-7919531D02*
X9755777Y-7938579D01*
X9755777Y-7938579D02*
X9765301Y-7976674D01*
X9765301Y-7976674D02*
X9765301Y-8024293D01*
X9765301Y-8024293D02*
X9755777Y-8062388D01*
X9755777Y-8062388D02*
X9746253Y-8081436D01*
X9746253Y-8081436D02*
X9736729Y-8090960D01*
X9736729Y-8090960D02*
X9717682Y-8100484D01*
X9717682Y-8100484D02*
X9698634Y-8100484D01*
X9698634Y-8100484D02*
X9679587Y-8090960D01*
X9679587Y-8090960D02*
X9670063Y-8081436D01*
X9670063Y-8081436D02*
X9660539Y-8062388D01*
X9660539Y-8062388D02*
X9651015Y-8024293D01*
X9651015Y-8024293D02*
X9651015Y-7976674D01*
X9651015Y-7976674D02*
X9660539Y-7938579D01*
X9660539Y-7938579D02*
X9670063Y-7919531D01*
X9670063Y-7919531D02*
X9679587Y-7910008D01*
X9679587Y-7910008D02*
X9698634Y-7900484D01*
X9851015Y-8081436D02*
X9860539Y-8090960D01*
X9860539Y-8090960D02*
X9851015Y-8100484D01*
X9851015Y-8100484D02*
X9841491Y-8090960D01*
X9841491Y-8090960D02*
X9851015Y-8081436D01*
X9851015Y-8081436D02*
X9851015Y-8100484D01*
X9984348Y-7900484D02*
X10003396Y-7900484D01*
X10003396Y-7900484D02*
X10022444Y-7910008D01*
X10022444Y-7910008D02*
X10031968Y-7919531D01*
X10031968Y-7919531D02*
X10041491Y-7938579D01*
X10041491Y-7938579D02*
X10051015Y-7976674D01*
X10051015Y-7976674D02*
X10051015Y-8024293D01*
X10051015Y-8024293D02*
X10041491Y-8062388D01*
X10041491Y-8062388D02*
X10031968Y-8081436D01*
X10031968Y-8081436D02*
X10022444Y-8090960D01*
X10022444Y-8090960D02*
X10003396Y-8100484D01*
X10003396Y-8100484D02*
X9984348Y-8100484D01*
X9984348Y-8100484D02*
X9965301Y-8090960D01*
X9965301Y-8090960D02*
X9955777Y-8081436D01*
X9955777Y-8081436D02*
X9946253Y-8062388D01*
X9946253Y-8062388D02*
X9936729Y-8024293D01*
X9936729Y-8024293D02*
X9936729Y-7976674D01*
X9936729Y-7976674D02*
X9946253Y-7938579D01*
X9946253Y-7938579D02*
X9955777Y-7919531D01*
X9955777Y-7919531D02*
X9965301Y-7910008D01*
X9965301Y-7910008D02*
X9984348Y-7900484D01*
X10117682Y-7900484D02*
X10241491Y-7900484D01*
X10241491Y-7900484D02*
X10174825Y-7976674D01*
X10174825Y-7976674D02*
X10203396Y-7976674D01*
X10203396Y-7976674D02*
X10222444Y-7986198D01*
X10222444Y-7986198D02*
X10231968Y-7995722D01*
X10231968Y-7995722D02*
X10241491Y-8014769D01*
X10241491Y-8014769D02*
X10241491Y-8062388D01*
X10241491Y-8062388D02*
X10231968Y-8081436D01*
X10231968Y-8081436D02*
X10222444Y-8090960D01*
X10222444Y-8090960D02*
X10203396Y-8100484D01*
X10203396Y-8100484D02*
X10146253Y-8100484D01*
X10146253Y-8100484D02*
X10127206Y-8090960D01*
X10127206Y-8090960D02*
X10117682Y-8081436D01*
X10422444Y-7900484D02*
X10327206Y-7900484D01*
X10327206Y-7900484D02*
X10317682Y-7995722D01*
X10317682Y-7995722D02*
X10327206Y-7986198D01*
X10327206Y-7986198D02*
X10346253Y-7976674D01*
X10346253Y-7976674D02*
X10393872Y-7976674D01*
X10393872Y-7976674D02*
X10412920Y-7986198D01*
X10412920Y-7986198D02*
X10422444Y-7995722D01*
X10422444Y-7995722D02*
X10431968Y-8014769D01*
X10431968Y-8014769D02*
X10431968Y-8062388D01*
X10431968Y-8062388D02*
X10422444Y-8081436D01*
X10422444Y-8081436D02*
X10412920Y-8090960D01*
X10412920Y-8090960D02*
X10393872Y-8100484D01*
X10393872Y-8100484D02*
X10346253Y-8100484D01*
X10346253Y-8100484D02*
X10327206Y-8090960D01*
X10327206Y-8090960D02*
X10317682Y-8081436D01*
X10603396Y-7967150D02*
X10603396Y-8100484D01*
X10555777Y-7890960D02*
X10508158Y-8033817D01*
X10508158Y-8033817D02*
X10631968Y-8033817D01*
X10698634Y-7900484D02*
X10698634Y-7938579D01*
X10774825Y-7900484D02*
X10774825Y-7938579D01*
X11070063Y-8176674D02*
X11060539Y-8167150D01*
X11060539Y-8167150D02*
X11041491Y-8138579D01*
X11041491Y-8138579D02*
X11031968Y-8119531D01*
X11031968Y-8119531D02*
X11022444Y-8090960D01*
X11022444Y-8090960D02*
X11012920Y-8043341D01*
X11012920Y-8043341D02*
X11012920Y-8005246D01*
X11012920Y-8005246D02*
X11022444Y-7957627D01*
X11022444Y-7957627D02*
X11031968Y-7929055D01*
X11031968Y-7929055D02*
X11041491Y-7910008D01*
X11041491Y-7910008D02*
X11060539Y-7881436D01*
X11060539Y-7881436D02*
X11070063Y-7871912D01*
X11136730Y-7919531D02*
X11146253Y-7910008D01*
X11146253Y-7910008D02*
X11165301Y-7900484D01*
X11165301Y-7900484D02*
X11212920Y-7900484D01*
X11212920Y-7900484D02*
X11231968Y-7910008D01*
X11231968Y-7910008D02*
X11241491Y-7919531D01*
X11241491Y-7919531D02*
X11251015Y-7938579D01*
X11251015Y-7938579D02*
X11251015Y-7957627D01*
X11251015Y-7957627D02*
X11241491Y-7986198D01*
X11241491Y-7986198D02*
X11127206Y-8100484D01*
X11127206Y-8100484D02*
X11251015Y-8100484D01*
X11489110Y-8100484D02*
X11489110Y-7900484D01*
X11574825Y-8100484D02*
X11574825Y-7995722D01*
X11574825Y-7995722D02*
X11565301Y-7976674D01*
X11565301Y-7976674D02*
X11546253Y-7967150D01*
X11546253Y-7967150D02*
X11517682Y-7967150D01*
X11517682Y-7967150D02*
X11498634Y-7976674D01*
X11498634Y-7976674D02*
X11489110Y-7986198D01*
X11698634Y-8100484D02*
X11679587Y-8090960D01*
X11679587Y-8090960D02*
X11670063Y-8081436D01*
X11670063Y-8081436D02*
X11660539Y-8062388D01*
X11660539Y-8062388D02*
X11660539Y-8005246D01*
X11660539Y-8005246D02*
X11670063Y-7986198D01*
X11670063Y-7986198D02*
X11679587Y-7976674D01*
X11679587Y-7976674D02*
X11698634Y-7967150D01*
X11698634Y-7967150D02*
X11727206Y-7967150D01*
X11727206Y-7967150D02*
X11746253Y-7976674D01*
X11746253Y-7976674D02*
X11755777Y-7986198D01*
X11755777Y-7986198D02*
X11765301Y-8005246D01*
X11765301Y-8005246D02*
X11765301Y-8062388D01*
X11765301Y-8062388D02*
X11755777Y-8081436D01*
X11755777Y-8081436D02*
X11746253Y-8090960D01*
X11746253Y-8090960D02*
X11727206Y-8100484D01*
X11727206Y-8100484D02*
X11698634Y-8100484D01*
X11879587Y-8100484D02*
X11860539Y-8090960D01*
X11860539Y-8090960D02*
X11851015Y-8071912D01*
X11851015Y-8071912D02*
X11851015Y-7900484D01*
X12031968Y-8090960D02*
X12012920Y-8100484D01*
X12012920Y-8100484D02*
X11974825Y-8100484D01*
X11974825Y-8100484D02*
X11955777Y-8090960D01*
X11955777Y-8090960D02*
X11946253Y-8071912D01*
X11946253Y-8071912D02*
X11946253Y-7995722D01*
X11946253Y-7995722D02*
X11955777Y-7976674D01*
X11955777Y-7976674D02*
X11974825Y-7967150D01*
X11974825Y-7967150D02*
X12012920Y-7967150D01*
X12012920Y-7967150D02*
X12031968Y-7976674D01*
X12031968Y-7976674D02*
X12041491Y-7995722D01*
X12041491Y-7995722D02*
X12041491Y-8014769D01*
X12041491Y-8014769D02*
X11946253Y-8033817D01*
X12117682Y-8090960D02*
X12136730Y-8100484D01*
X12136730Y-8100484D02*
X12174825Y-8100484D01*
X12174825Y-8100484D02*
X12193872Y-8090960D01*
X12193872Y-8090960D02*
X12203396Y-8071912D01*
X12203396Y-8071912D02*
X12203396Y-8062388D01*
X12203396Y-8062388D02*
X12193872Y-8043341D01*
X12193872Y-8043341D02*
X12174825Y-8033817D01*
X12174825Y-8033817D02*
X12146253Y-8033817D01*
X12146253Y-8033817D02*
X12127206Y-8024293D01*
X12127206Y-8024293D02*
X12117682Y-8005246D01*
X12117682Y-8005246D02*
X12117682Y-7995722D01*
X12117682Y-7995722D02*
X12127206Y-7976674D01*
X12127206Y-7976674D02*
X12146253Y-7967150D01*
X12146253Y-7967150D02*
X12174825Y-7967150D01*
X12174825Y-7967150D02*
X12193872Y-7976674D01*
X12270063Y-8176674D02*
X12279587Y-8167150D01*
X12279587Y-8167150D02*
X12298634Y-8138579D01*
X12298634Y-8138579D02*
X12308158Y-8119531D01*
X12308158Y-8119531D02*
X12317682Y-8090960D01*
X12317682Y-8090960D02*
X12327206Y-8043341D01*
X12327206Y-8043341D02*
X12327206Y-8005246D01*
X12327206Y-8005246D02*
X12317682Y-7957627D01*
X12317682Y-7957627D02*
X12308158Y-7929055D01*
X12308158Y-7929055D02*
X12298634Y-7910008D01*
X12298634Y-7910008D02*
X12279587Y-7881436D01*
X12279587Y-7881436D02*
X12270063Y-7871912D01*
D10*
X7445000Y-8223000D02*
X7445000Y-8323000D01*
X7395000Y-8273000D02*
X7495000Y-8273000D01*
D11*
X7860539Y-8364484D02*
X7746253Y-8364484D01*
X7803396Y-8364484D02*
X7803396Y-8164484D01*
X7803396Y-8164484D02*
X7784348Y-8193055D01*
X7784348Y-8193055D02*
X7765301Y-8212103D01*
X7765301Y-8212103D02*
X7746253Y-8221627D01*
X7946253Y-8345436D02*
X7955777Y-8354960D01*
X7955777Y-8354960D02*
X7946253Y-8364484D01*
X7946253Y-8364484D02*
X7936729Y-8354960D01*
X7936729Y-8354960D02*
X7946253Y-8345436D01*
X7946253Y-8345436D02*
X7946253Y-8364484D01*
X8079586Y-8164484D02*
X8098634Y-8164484D01*
X8098634Y-8164484D02*
X8117682Y-8174008D01*
X8117682Y-8174008D02*
X8127205Y-8183531D01*
X8127205Y-8183531D02*
X8136729Y-8202579D01*
X8136729Y-8202579D02*
X8146253Y-8240674D01*
X8146253Y-8240674D02*
X8146253Y-8288293D01*
X8146253Y-8288293D02*
X8136729Y-8326388D01*
X8136729Y-8326388D02*
X8127205Y-8345436D01*
X8127205Y-8345436D02*
X8117682Y-8354960D01*
X8117682Y-8354960D02*
X8098634Y-8364484D01*
X8098634Y-8364484D02*
X8079586Y-8364484D01*
X8079586Y-8364484D02*
X8060539Y-8354960D01*
X8060539Y-8354960D02*
X8051015Y-8345436D01*
X8051015Y-8345436D02*
X8041491Y-8326388D01*
X8041491Y-8326388D02*
X8031967Y-8288293D01*
X8031967Y-8288293D02*
X8031967Y-8240674D01*
X8031967Y-8240674D02*
X8041491Y-8202579D01*
X8041491Y-8202579D02*
X8051015Y-8183531D01*
X8051015Y-8183531D02*
X8060539Y-8174008D01*
X8060539Y-8174008D02*
X8079586Y-8164484D01*
X8270062Y-8164484D02*
X8289110Y-8164484D01*
X8289110Y-8164484D02*
X8308158Y-8174008D01*
X8308158Y-8174008D02*
X8317682Y-8183531D01*
X8317682Y-8183531D02*
X8327205Y-8202579D01*
X8327205Y-8202579D02*
X8336729Y-8240674D01*
X8336729Y-8240674D02*
X8336729Y-8288293D01*
X8336729Y-8288293D02*
X8327205Y-8326388D01*
X8327205Y-8326388D02*
X8317682Y-8345436D01*
X8317682Y-8345436D02*
X8308158Y-8354960D01*
X8308158Y-8354960D02*
X8289110Y-8364484D01*
X8289110Y-8364484D02*
X8270062Y-8364484D01*
X8270062Y-8364484D02*
X8251015Y-8354960D01*
X8251015Y-8354960D02*
X8241491Y-8345436D01*
X8241491Y-8345436D02*
X8231967Y-8326388D01*
X8231967Y-8326388D02*
X8222443Y-8288293D01*
X8222443Y-8288293D02*
X8222443Y-8240674D01*
X8222443Y-8240674D02*
X8231967Y-8202579D01*
X8231967Y-8202579D02*
X8241491Y-8183531D01*
X8241491Y-8183531D02*
X8251015Y-8174008D01*
X8251015Y-8174008D02*
X8270062Y-8164484D01*
X8460539Y-8164484D02*
X8479586Y-8164484D01*
X8479586Y-8164484D02*
X8498634Y-8174008D01*
X8498634Y-8174008D02*
X8508158Y-8183531D01*
X8508158Y-8183531D02*
X8517682Y-8202579D01*
X8517682Y-8202579D02*
X8527205Y-8240674D01*
X8527205Y-8240674D02*
X8527205Y-8288293D01*
X8527205Y-8288293D02*
X8517682Y-8326388D01*
X8517682Y-8326388D02*
X8508158Y-8345436D01*
X8508158Y-8345436D02*
X8498634Y-8354960D01*
X8498634Y-8354960D02*
X8479586Y-8364484D01*
X8479586Y-8364484D02*
X8460539Y-8364484D01*
X8460539Y-8364484D02*
X8441491Y-8354960D01*
X8441491Y-8354960D02*
X8431967Y-8345436D01*
X8431967Y-8345436D02*
X8422444Y-8326388D01*
X8422444Y-8326388D02*
X8412920Y-8288293D01*
X8412920Y-8288293D02*
X8412920Y-8240674D01*
X8412920Y-8240674D02*
X8422444Y-8202579D01*
X8422444Y-8202579D02*
X8431967Y-8183531D01*
X8431967Y-8183531D02*
X8441491Y-8174008D01*
X8441491Y-8174008D02*
X8460539Y-8164484D01*
X8612920Y-8364484D02*
X8612920Y-8231150D01*
X8612920Y-8250198D02*
X8622444Y-8240674D01*
X8622444Y-8240674D02*
X8641491Y-8231150D01*
X8641491Y-8231150D02*
X8670063Y-8231150D01*
X8670063Y-8231150D02*
X8689110Y-8240674D01*
X8689110Y-8240674D02*
X8698634Y-8259722D01*
X8698634Y-8259722D02*
X8698634Y-8364484D01*
X8698634Y-8259722D02*
X8708158Y-8240674D01*
X8708158Y-8240674D02*
X8727205Y-8231150D01*
X8727205Y-8231150D02*
X8755777Y-8231150D01*
X8755777Y-8231150D02*
X8774825Y-8240674D01*
X8774825Y-8240674D02*
X8784348Y-8259722D01*
X8784348Y-8259722D02*
X8784348Y-8364484D01*
X8879586Y-8364484D02*
X8879586Y-8231150D01*
X8879586Y-8250198D02*
X8889110Y-8240674D01*
X8889110Y-8240674D02*
X8908158Y-8231150D01*
X8908158Y-8231150D02*
X8936729Y-8231150D01*
X8936729Y-8231150D02*
X8955777Y-8240674D01*
X8955777Y-8240674D02*
X8965301Y-8259722D01*
X8965301Y-8259722D02*
X8965301Y-8364484D01*
X8965301Y-8259722D02*
X8974825Y-8240674D01*
X8974825Y-8240674D02*
X8993872Y-8231150D01*
X8993872Y-8231150D02*
X9022444Y-8231150D01*
X9022444Y-8231150D02*
X9041491Y-8240674D01*
X9041491Y-8240674D02*
X9051015Y-8259722D01*
X9051015Y-8259722D02*
X9051015Y-8364484D01*
X9441491Y-8154960D02*
X9270063Y-8412103D01*
X9698634Y-8164484D02*
X9717682Y-8164484D01*
X9717682Y-8164484D02*
X9736729Y-8174008D01*
X9736729Y-8174008D02*
X9746253Y-8183531D01*
X9746253Y-8183531D02*
X9755777Y-8202579D01*
X9755777Y-8202579D02*
X9765301Y-8240674D01*
X9765301Y-8240674D02*
X9765301Y-8288293D01*
X9765301Y-8288293D02*
X9755777Y-8326388D01*
X9755777Y-8326388D02*
X9746253Y-8345436D01*
X9746253Y-8345436D02*
X9736729Y-8354960D01*
X9736729Y-8354960D02*
X9717682Y-8364484D01*
X9717682Y-8364484D02*
X9698634Y-8364484D01*
X9698634Y-8364484D02*
X9679587Y-8354960D01*
X9679587Y-8354960D02*
X9670063Y-8345436D01*
X9670063Y-8345436D02*
X9660539Y-8326388D01*
X9660539Y-8326388D02*
X9651015Y-8288293D01*
X9651015Y-8288293D02*
X9651015Y-8240674D01*
X9651015Y-8240674D02*
X9660539Y-8202579D01*
X9660539Y-8202579D02*
X9670063Y-8183531D01*
X9670063Y-8183531D02*
X9679587Y-8174008D01*
X9679587Y-8174008D02*
X9698634Y-8164484D01*
X9851015Y-8345436D02*
X9860539Y-8354960D01*
X9860539Y-8354960D02*
X9851015Y-8364484D01*
X9851015Y-8364484D02*
X9841491Y-8354960D01*
X9841491Y-8354960D02*
X9851015Y-8345436D01*
X9851015Y-8345436D02*
X9851015Y-8364484D01*
X9984348Y-8164484D02*
X10003396Y-8164484D01*
X10003396Y-8164484D02*
X10022444Y-8174008D01*
X10022444Y-8174008D02*
X10031968Y-8183531D01*
X10031968Y-8183531D02*
X10041491Y-8202579D01*
X10041491Y-8202579D02*
X10051015Y-8240674D01*
X10051015Y-8240674D02*
X10051015Y-8288293D01*
X10051015Y-8288293D02*
X10041491Y-8326388D01*
X10041491Y-8326388D02*
X10031968Y-8345436D01*
X10031968Y-8345436D02*
X10022444Y-8354960D01*
X10022444Y-8354960D02*
X10003396Y-8364484D01*
X10003396Y-8364484D02*
X9984348Y-8364484D01*
X9984348Y-8364484D02*
X9965301Y-8354960D01*
X9965301Y-8354960D02*
X9955777Y-8345436D01*
X9955777Y-8345436D02*
X9946253Y-8326388D01*
X9946253Y-8326388D02*
X9936729Y-8288293D01*
X9936729Y-8288293D02*
X9936729Y-8240674D01*
X9936729Y-8240674D02*
X9946253Y-8202579D01*
X9946253Y-8202579D02*
X9955777Y-8183531D01*
X9955777Y-8183531D02*
X9965301Y-8174008D01*
X9965301Y-8174008D02*
X9984348Y-8164484D01*
X10117682Y-8164484D02*
X10241491Y-8164484D01*
X10241491Y-8164484D02*
X10174825Y-8240674D01*
X10174825Y-8240674D02*
X10203396Y-8240674D01*
X10203396Y-8240674D02*
X10222444Y-8250198D01*
X10222444Y-8250198D02*
X10231968Y-8259722D01*
X10231968Y-8259722D02*
X10241491Y-8278769D01*
X10241491Y-8278769D02*
X10241491Y-8326388D01*
X10241491Y-8326388D02*
X10231968Y-8345436D01*
X10231968Y-8345436D02*
X10222444Y-8354960D01*
X10222444Y-8354960D02*
X10203396Y-8364484D01*
X10203396Y-8364484D02*
X10146253Y-8364484D01*
X10146253Y-8364484D02*
X10127206Y-8354960D01*
X10127206Y-8354960D02*
X10117682Y-8345436D01*
X10336729Y-8364484D02*
X10374825Y-8364484D01*
X10374825Y-8364484D02*
X10393872Y-8354960D01*
X10393872Y-8354960D02*
X10403396Y-8345436D01*
X10403396Y-8345436D02*
X10422444Y-8316865D01*
X10422444Y-8316865D02*
X10431968Y-8278769D01*
X10431968Y-8278769D02*
X10431968Y-8202579D01*
X10431968Y-8202579D02*
X10422444Y-8183531D01*
X10422444Y-8183531D02*
X10412920Y-8174008D01*
X10412920Y-8174008D02*
X10393872Y-8164484D01*
X10393872Y-8164484D02*
X10355777Y-8164484D01*
X10355777Y-8164484D02*
X10336729Y-8174008D01*
X10336729Y-8174008D02*
X10327206Y-8183531D01*
X10327206Y-8183531D02*
X10317682Y-8202579D01*
X10317682Y-8202579D02*
X10317682Y-8250198D01*
X10317682Y-8250198D02*
X10327206Y-8269246D01*
X10327206Y-8269246D02*
X10336729Y-8278769D01*
X10336729Y-8278769D02*
X10355777Y-8288293D01*
X10355777Y-8288293D02*
X10393872Y-8288293D01*
X10393872Y-8288293D02*
X10412920Y-8278769D01*
X10412920Y-8278769D02*
X10422444Y-8269246D01*
X10422444Y-8269246D02*
X10431968Y-8250198D01*
X10603396Y-8231150D02*
X10603396Y-8364484D01*
X10555777Y-8154960D02*
X10508158Y-8297817D01*
X10508158Y-8297817D02*
X10631968Y-8297817D01*
X10698634Y-8164484D02*
X10698634Y-8202579D01*
X10774825Y-8164484D02*
X10774825Y-8202579D01*
X11070063Y-8440674D02*
X11060539Y-8431150D01*
X11060539Y-8431150D02*
X11041491Y-8402579D01*
X11041491Y-8402579D02*
X11031968Y-8383531D01*
X11031968Y-8383531D02*
X11022444Y-8354960D01*
X11022444Y-8354960D02*
X11012920Y-8307341D01*
X11012920Y-8307341D02*
X11012920Y-8269246D01*
X11012920Y-8269246D02*
X11022444Y-8221627D01*
X11022444Y-8221627D02*
X11031968Y-8193055D01*
X11031968Y-8193055D02*
X11041491Y-8174008D01*
X11041491Y-8174008D02*
X11060539Y-8145436D01*
X11060539Y-8145436D02*
X11070063Y-8135912D01*
X11136730Y-8183531D02*
X11146253Y-8174008D01*
X11146253Y-8174008D02*
X11165301Y-8164484D01*
X11165301Y-8164484D02*
X11212920Y-8164484D01*
X11212920Y-8164484D02*
X11231968Y-8174008D01*
X11231968Y-8174008D02*
X11241491Y-8183531D01*
X11241491Y-8183531D02*
X11251015Y-8202579D01*
X11251015Y-8202579D02*
X11251015Y-8221627D01*
X11251015Y-8221627D02*
X11241491Y-8250198D01*
X11241491Y-8250198D02*
X11127206Y-8364484D01*
X11127206Y-8364484D02*
X11251015Y-8364484D01*
X11374825Y-8164484D02*
X11393872Y-8164484D01*
X11393872Y-8164484D02*
X11412920Y-8174008D01*
X11412920Y-8174008D02*
X11422444Y-8183531D01*
X11422444Y-8183531D02*
X11431968Y-8202579D01*
X11431968Y-8202579D02*
X11441491Y-8240674D01*
X11441491Y-8240674D02*
X11441491Y-8288293D01*
X11441491Y-8288293D02*
X11431968Y-8326388D01*
X11431968Y-8326388D02*
X11422444Y-8345436D01*
X11422444Y-8345436D02*
X11412920Y-8354960D01*
X11412920Y-8354960D02*
X11393872Y-8364484D01*
X11393872Y-8364484D02*
X11374825Y-8364484D01*
X11374825Y-8364484D02*
X11355777Y-8354960D01*
X11355777Y-8354960D02*
X11346253Y-8345436D01*
X11346253Y-8345436D02*
X11336729Y-8326388D01*
X11336729Y-8326388D02*
X11327206Y-8288293D01*
X11327206Y-8288293D02*
X11327206Y-8240674D01*
X11327206Y-8240674D02*
X11336729Y-8202579D01*
X11336729Y-8202579D02*
X11346253Y-8183531D01*
X11346253Y-8183531D02*
X11355777Y-8174008D01*
X11355777Y-8174008D02*
X11374825Y-8164484D01*
X11679587Y-8364484D02*
X11679587Y-8164484D01*
X11765301Y-8364484D02*
X11765301Y-8259722D01*
X11765301Y-8259722D02*
X11755777Y-8240674D01*
X11755777Y-8240674D02*
X11736730Y-8231150D01*
X11736730Y-8231150D02*
X11708158Y-8231150D01*
X11708158Y-8231150D02*
X11689110Y-8240674D01*
X11689110Y-8240674D02*
X11679587Y-8250198D01*
X11889110Y-8364484D02*
X11870063Y-8354960D01*
X11870063Y-8354960D02*
X11860539Y-8345436D01*
X11860539Y-8345436D02*
X11851015Y-8326388D01*
X11851015Y-8326388D02*
X11851015Y-8269246D01*
X11851015Y-8269246D02*
X11860539Y-8250198D01*
X11860539Y-8250198D02*
X11870063Y-8240674D01*
X11870063Y-8240674D02*
X11889110Y-8231150D01*
X11889110Y-8231150D02*
X11917682Y-8231150D01*
X11917682Y-8231150D02*
X11936730Y-8240674D01*
X11936730Y-8240674D02*
X11946253Y-8250198D01*
X11946253Y-8250198D02*
X11955777Y-8269246D01*
X11955777Y-8269246D02*
X11955777Y-8326388D01*
X11955777Y-8326388D02*
X11946253Y-8345436D01*
X11946253Y-8345436D02*
X11936730Y-8354960D01*
X11936730Y-8354960D02*
X11917682Y-8364484D01*
X11917682Y-8364484D02*
X11889110Y-8364484D01*
X12070063Y-8364484D02*
X12051015Y-8354960D01*
X12051015Y-8354960D02*
X12041491Y-8335912D01*
X12041491Y-8335912D02*
X12041491Y-8164484D01*
X12222444Y-8354960D02*
X12203396Y-8364484D01*
X12203396Y-8364484D02*
X12165301Y-8364484D01*
X12165301Y-8364484D02*
X12146253Y-8354960D01*
X12146253Y-8354960D02*
X12136730Y-8335912D01*
X12136730Y-8335912D02*
X12136730Y-8259722D01*
X12136730Y-8259722D02*
X12146253Y-8240674D01*
X12146253Y-8240674D02*
X12165301Y-8231150D01*
X12165301Y-8231150D02*
X12203396Y-8231150D01*
X12203396Y-8231150D02*
X12222444Y-8240674D01*
X12222444Y-8240674D02*
X12231968Y-8259722D01*
X12231968Y-8259722D02*
X12231968Y-8278769D01*
X12231968Y-8278769D02*
X12136730Y-8297817D01*
X12308158Y-8354960D02*
X12327206Y-8364484D01*
X12327206Y-8364484D02*
X12365301Y-8364484D01*
X12365301Y-8364484D02*
X12384349Y-8354960D01*
X12384349Y-8354960D02*
X12393872Y-8335912D01*
X12393872Y-8335912D02*
X12393872Y-8326388D01*
X12393872Y-8326388D02*
X12384349Y-8307341D01*
X12384349Y-8307341D02*
X12365301Y-8297817D01*
X12365301Y-8297817D02*
X12336730Y-8297817D01*
X12336730Y-8297817D02*
X12317682Y-8288293D01*
X12317682Y-8288293D02*
X12308158Y-8269246D01*
X12308158Y-8269246D02*
X12308158Y-8259722D01*
X12308158Y-8259722D02*
X12317682Y-8240674D01*
X12317682Y-8240674D02*
X12336730Y-8231150D01*
X12336730Y-8231150D02*
X12365301Y-8231150D01*
X12365301Y-8231150D02*
X12384349Y-8240674D01*
X12460539Y-8440674D02*
X12470063Y-8431150D01*
X12470063Y-8431150D02*
X12489111Y-8402579D01*
X12489111Y-8402579D02*
X12498634Y-8383531D01*
X12498634Y-8383531D02*
X12508158Y-8354960D01*
X12508158Y-8354960D02*
X12517682Y-8307341D01*
X12517682Y-8307341D02*
X12517682Y-8269246D01*
X12517682Y-8269246D02*
X12508158Y-8221627D01*
X12508158Y-8221627D02*
X12498634Y-8193055D01*
X12498634Y-8193055D02*
X12489111Y-8174008D01*
X12489111Y-8174008D02*
X12470063Y-8145436D01*
X12470063Y-8145436D02*
X12460539Y-8135912D01*
M02*
