%TF.GenerationSoftware,KiCad,Pcbnew,7.0.7*%
%TF.CreationDate,2024-12-21T21:28:54+01:00*%
%TF.ProjectId,servo_board,73657276-6f5f-4626-9f61-72642e6b6963,1.0*%
%TF.SameCoordinates,Original*%
%TF.FileFunction,Legend,Top*%
%TF.FilePolarity,Positive*%
%FSLAX46Y46*%
G04 Gerber Fmt 4.6, Leading zero omitted, Abs format (unit mm)*
G04 Created by KiCad (PCBNEW 7.0.7) date 2024-12-21 21:28:54*
%MOMM*%
%LPD*%
G01*
G04 APERTURE LIST*
%ADD10C,0.150000*%
%ADD11C,0.120000*%
G04 APERTURE END LIST*
D10*
X97409048Y-55953866D02*
X98170953Y-55953866D01*
X97790000Y-56334819D02*
X97790000Y-55572914D01*
X95289160Y-69822200D02*
X95384398Y-69869819D01*
X95384398Y-69869819D02*
X95574874Y-69869819D01*
X95574874Y-69869819D02*
X95670112Y-69822200D01*
X95670112Y-69822200D02*
X95717731Y-69726961D01*
X95717731Y-69726961D02*
X95717731Y-69679342D01*
X95717731Y-69679342D02*
X95670112Y-69584104D01*
X95670112Y-69584104D02*
X95574874Y-69536485D01*
X95574874Y-69536485D02*
X95432017Y-69536485D01*
X95432017Y-69536485D02*
X95336779Y-69488866D01*
X95336779Y-69488866D02*
X95289160Y-69393628D01*
X95289160Y-69393628D02*
X95289160Y-69346009D01*
X95289160Y-69346009D02*
X95336779Y-69250771D01*
X95336779Y-69250771D02*
X95432017Y-69203152D01*
X95432017Y-69203152D02*
X95574874Y-69203152D01*
X95574874Y-69203152D02*
X95670112Y-69250771D01*
X96527255Y-69822200D02*
X96432017Y-69869819D01*
X96432017Y-69869819D02*
X96241541Y-69869819D01*
X96241541Y-69869819D02*
X96146303Y-69822200D01*
X96146303Y-69822200D02*
X96098684Y-69726961D01*
X96098684Y-69726961D02*
X96098684Y-69346009D01*
X96098684Y-69346009D02*
X96146303Y-69250771D01*
X96146303Y-69250771D02*
X96241541Y-69203152D01*
X96241541Y-69203152D02*
X96432017Y-69203152D01*
X96432017Y-69203152D02*
X96527255Y-69250771D01*
X96527255Y-69250771D02*
X96574874Y-69346009D01*
X96574874Y-69346009D02*
X96574874Y-69441247D01*
X96574874Y-69441247D02*
X96098684Y-69536485D01*
X97003446Y-69869819D02*
X97003446Y-69203152D01*
X97003446Y-69393628D02*
X97051065Y-69298390D01*
X97051065Y-69298390D02*
X97098684Y-69250771D01*
X97098684Y-69250771D02*
X97193922Y-69203152D01*
X97193922Y-69203152D02*
X97289160Y-69203152D01*
X97527256Y-69203152D02*
X97765351Y-69869819D01*
X97765351Y-69869819D02*
X98003446Y-69203152D01*
X98527256Y-69869819D02*
X98432018Y-69822200D01*
X98432018Y-69822200D02*
X98384399Y-69774580D01*
X98384399Y-69774580D02*
X98336780Y-69679342D01*
X98336780Y-69679342D02*
X98336780Y-69393628D01*
X98336780Y-69393628D02*
X98384399Y-69298390D01*
X98384399Y-69298390D02*
X98432018Y-69250771D01*
X98432018Y-69250771D02*
X98527256Y-69203152D01*
X98527256Y-69203152D02*
X98670113Y-69203152D01*
X98670113Y-69203152D02*
X98765351Y-69250771D01*
X98765351Y-69250771D02*
X98812970Y-69298390D01*
X98812970Y-69298390D02*
X98860589Y-69393628D01*
X98860589Y-69393628D02*
X98860589Y-69679342D01*
X98860589Y-69679342D02*
X98812970Y-69774580D01*
X98812970Y-69774580D02*
X98765351Y-69822200D01*
X98765351Y-69822200D02*
X98670113Y-69869819D01*
X98670113Y-69869819D02*
X98527256Y-69869819D01*
X100479637Y-69203152D02*
X100479637Y-69869819D01*
X100241542Y-68822200D02*
X100003447Y-69536485D01*
X100003447Y-69536485D02*
X100622494Y-69536485D01*
X100908209Y-69869819D02*
X101432018Y-69203152D01*
X100908209Y-69203152D02*
X101432018Y-69869819D01*
X119043220Y-63002438D02*
X118947982Y-62954819D01*
X118947982Y-62954819D02*
X118805125Y-62954819D01*
X118805125Y-62954819D02*
X118662268Y-63002438D01*
X118662268Y-63002438D02*
X118567030Y-63097676D01*
X118567030Y-63097676D02*
X118519411Y-63192914D01*
X118519411Y-63192914D02*
X118471792Y-63383390D01*
X118471792Y-63383390D02*
X118471792Y-63526247D01*
X118471792Y-63526247D02*
X118519411Y-63716723D01*
X118519411Y-63716723D02*
X118567030Y-63811961D01*
X118567030Y-63811961D02*
X118662268Y-63907200D01*
X118662268Y-63907200D02*
X118805125Y-63954819D01*
X118805125Y-63954819D02*
X118900363Y-63954819D01*
X118900363Y-63954819D02*
X119043220Y-63907200D01*
X119043220Y-63907200D02*
X119090839Y-63859580D01*
X119090839Y-63859580D02*
X119090839Y-63526247D01*
X119090839Y-63526247D02*
X118900363Y-63526247D01*
X118471792Y-60414819D02*
X119090839Y-60414819D01*
X119090839Y-60414819D02*
X118757506Y-60795771D01*
X118757506Y-60795771D02*
X118900363Y-60795771D01*
X118900363Y-60795771D02*
X118995601Y-60843390D01*
X118995601Y-60843390D02*
X119043220Y-60891009D01*
X119043220Y-60891009D02*
X119090839Y-60986247D01*
X119090839Y-60986247D02*
X119090839Y-61224342D01*
X119090839Y-61224342D02*
X119043220Y-61319580D01*
X119043220Y-61319580D02*
X118995601Y-61367200D01*
X118995601Y-61367200D02*
X118900363Y-61414819D01*
X118900363Y-61414819D02*
X118614649Y-61414819D01*
X118614649Y-61414819D02*
X118519411Y-61367200D01*
X118519411Y-61367200D02*
X118471792Y-61319580D01*
X117129160Y-63050057D02*
X117176779Y-63002438D01*
X117176779Y-63002438D02*
X117272017Y-62954819D01*
X117272017Y-62954819D02*
X117510112Y-62954819D01*
X117510112Y-62954819D02*
X117605350Y-63002438D01*
X117605350Y-63002438D02*
X117652969Y-63050057D01*
X117652969Y-63050057D02*
X117700588Y-63145295D01*
X117700588Y-63145295D02*
X117700588Y-63240533D01*
X117700588Y-63240533D02*
X117652969Y-63383390D01*
X117652969Y-63383390D02*
X117081541Y-63954819D01*
X117081541Y-63954819D02*
X117700588Y-63954819D01*
X117605350Y-60748152D02*
X117605350Y-61414819D01*
X117367255Y-60367200D02*
X117129160Y-61081485D01*
X117129160Y-61081485D02*
X117748207Y-61081485D01*
X119043220Y-57874819D02*
X118567030Y-57874819D01*
X118567030Y-57874819D02*
X118519411Y-58351009D01*
X118519411Y-58351009D02*
X118567030Y-58303390D01*
X118567030Y-58303390D02*
X118662268Y-58255771D01*
X118662268Y-58255771D02*
X118900363Y-58255771D01*
X118900363Y-58255771D02*
X118995601Y-58303390D01*
X118995601Y-58303390D02*
X119043220Y-58351009D01*
X119043220Y-58351009D02*
X119090839Y-58446247D01*
X119090839Y-58446247D02*
X119090839Y-58684342D01*
X119090839Y-58684342D02*
X119043220Y-58779580D01*
X119043220Y-58779580D02*
X118995601Y-58827200D01*
X118995601Y-58827200D02*
X118900363Y-58874819D01*
X118900363Y-58874819D02*
X118662268Y-58874819D01*
X118662268Y-58874819D02*
X118567030Y-58827200D01*
X118567030Y-58827200D02*
X118519411Y-58779580D01*
X117081541Y-58874819D02*
X117605350Y-58208152D01*
X117081541Y-58208152D02*
X117605350Y-58874819D01*
X102536666Y-58351009D02*
X102679523Y-58398628D01*
X102679523Y-58398628D02*
X102727142Y-58446247D01*
X102727142Y-58446247D02*
X102774761Y-58541485D01*
X102774761Y-58541485D02*
X102774761Y-58684342D01*
X102774761Y-58684342D02*
X102727142Y-58779580D01*
X102727142Y-58779580D02*
X102679523Y-58827200D01*
X102679523Y-58827200D02*
X102584285Y-58874819D01*
X102584285Y-58874819D02*
X102203333Y-58874819D01*
X102203333Y-58874819D02*
X102203333Y-57874819D01*
X102203333Y-57874819D02*
X102536666Y-57874819D01*
X102536666Y-57874819D02*
X102631904Y-57922438D01*
X102631904Y-57922438D02*
X102679523Y-57970057D01*
X102679523Y-57970057D02*
X102727142Y-58065295D01*
X102727142Y-58065295D02*
X102727142Y-58160533D01*
X102727142Y-58160533D02*
X102679523Y-58255771D01*
X102679523Y-58255771D02*
X102631904Y-58303390D01*
X102631904Y-58303390D02*
X102536666Y-58351009D01*
X102536666Y-58351009D02*
X102203333Y-58351009D01*
X103679523Y-58874819D02*
X103203333Y-58874819D01*
X103203333Y-58874819D02*
X103203333Y-57874819D01*
X102441428Y-60891009D02*
X102584285Y-60938628D01*
X102584285Y-60938628D02*
X102631904Y-60986247D01*
X102631904Y-60986247D02*
X102679523Y-61081485D01*
X102679523Y-61081485D02*
X102679523Y-61224342D01*
X102679523Y-61224342D02*
X102631904Y-61319580D01*
X102631904Y-61319580D02*
X102584285Y-61367200D01*
X102584285Y-61367200D02*
X102489047Y-61414819D01*
X102489047Y-61414819D02*
X102108095Y-61414819D01*
X102108095Y-61414819D02*
X102108095Y-60414819D01*
X102108095Y-60414819D02*
X102441428Y-60414819D01*
X102441428Y-60414819D02*
X102536666Y-60462438D01*
X102536666Y-60462438D02*
X102584285Y-60510057D01*
X102584285Y-60510057D02*
X102631904Y-60605295D01*
X102631904Y-60605295D02*
X102631904Y-60700533D01*
X102631904Y-60700533D02*
X102584285Y-60795771D01*
X102584285Y-60795771D02*
X102536666Y-60843390D01*
X102536666Y-60843390D02*
X102441428Y-60891009D01*
X102441428Y-60891009D02*
X102108095Y-60891009D01*
X103679523Y-61414819D02*
X103346190Y-60938628D01*
X103108095Y-61414819D02*
X103108095Y-60414819D01*
X103108095Y-60414819D02*
X103489047Y-60414819D01*
X103489047Y-60414819D02*
X103584285Y-60462438D01*
X103584285Y-60462438D02*
X103631904Y-60510057D01*
X103631904Y-60510057D02*
X103679523Y-60605295D01*
X103679523Y-60605295D02*
X103679523Y-60748152D01*
X103679523Y-60748152D02*
X103631904Y-60843390D01*
X103631904Y-60843390D02*
X103584285Y-60891009D01*
X103584285Y-60891009D02*
X103489047Y-60938628D01*
X103489047Y-60938628D02*
X103108095Y-60938628D01*
X102084286Y-62954819D02*
X102655714Y-62954819D01*
X102370000Y-63954819D02*
X102370000Y-62954819D01*
X103560476Y-63954819D02*
X103227143Y-63478628D01*
X102989048Y-63954819D02*
X102989048Y-62954819D01*
X102989048Y-62954819D02*
X103370000Y-62954819D01*
X103370000Y-62954819D02*
X103465238Y-63002438D01*
X103465238Y-63002438D02*
X103512857Y-63050057D01*
X103512857Y-63050057D02*
X103560476Y-63145295D01*
X103560476Y-63145295D02*
X103560476Y-63288152D01*
X103560476Y-63288152D02*
X103512857Y-63383390D01*
X103512857Y-63383390D02*
X103465238Y-63431009D01*
X103465238Y-63431009D02*
X103370000Y-63478628D01*
X103370000Y-63478628D02*
X102989048Y-63478628D01*
X102179524Y-65494819D02*
X102750952Y-65494819D01*
X102465238Y-66494819D02*
X102465238Y-65494819D01*
X103560476Y-66494819D02*
X103084286Y-66494819D01*
X103084286Y-66494819D02*
X103084286Y-65494819D01*
X100784819Y-55586190D02*
X99784819Y-55586190D01*
X100737200Y-55586190D02*
X100784819Y-55681428D01*
X100784819Y-55681428D02*
X100784819Y-55871904D01*
X100784819Y-55871904D02*
X100737200Y-55967142D01*
X100737200Y-55967142D02*
X100689580Y-56014761D01*
X100689580Y-56014761D02*
X100594342Y-56062380D01*
X100594342Y-56062380D02*
X100308628Y-56062380D01*
X100308628Y-56062380D02*
X100213390Y-56014761D01*
X100213390Y-56014761D02*
X100165771Y-55967142D01*
X100165771Y-55967142D02*
X100118152Y-55871904D01*
X100118152Y-55871904D02*
X100118152Y-55681428D01*
X100118152Y-55681428D02*
X100165771Y-55586190D01*
X100784819Y-54681428D02*
X100261009Y-54681428D01*
X100261009Y-54681428D02*
X100165771Y-54729047D01*
X100165771Y-54729047D02*
X100118152Y-54824285D01*
X100118152Y-54824285D02*
X100118152Y-55014761D01*
X100118152Y-55014761D02*
X100165771Y-55109999D01*
X100737200Y-54681428D02*
X100784819Y-54776666D01*
X100784819Y-54776666D02*
X100784819Y-55014761D01*
X100784819Y-55014761D02*
X100737200Y-55109999D01*
X100737200Y-55109999D02*
X100641961Y-55157618D01*
X100641961Y-55157618D02*
X100546723Y-55157618D01*
X100546723Y-55157618D02*
X100451485Y-55109999D01*
X100451485Y-55109999D02*
X100403866Y-55014761D01*
X100403866Y-55014761D02*
X100403866Y-54776666D01*
X100403866Y-54776666D02*
X100356247Y-54681428D01*
X100118152Y-54348094D02*
X100118152Y-53967142D01*
X99784819Y-54205237D02*
X100641961Y-54205237D01*
X100641961Y-54205237D02*
X100737200Y-54157618D01*
X100737200Y-54157618D02*
X100784819Y-54062380D01*
X100784819Y-54062380D02*
X100784819Y-53967142D01*
X100784819Y-53205237D02*
X100261009Y-53205237D01*
X100261009Y-53205237D02*
X100165771Y-53252856D01*
X100165771Y-53252856D02*
X100118152Y-53348094D01*
X100118152Y-53348094D02*
X100118152Y-53538570D01*
X100118152Y-53538570D02*
X100165771Y-53633808D01*
X100737200Y-53205237D02*
X100784819Y-53300475D01*
X100784819Y-53300475D02*
X100784819Y-53538570D01*
X100784819Y-53538570D02*
X100737200Y-53633808D01*
X100737200Y-53633808D02*
X100641961Y-53681427D01*
X100641961Y-53681427D02*
X100546723Y-53681427D01*
X100546723Y-53681427D02*
X100451485Y-53633808D01*
X100451485Y-53633808D02*
X100403866Y-53538570D01*
X100403866Y-53538570D02*
X100403866Y-53300475D01*
X100403866Y-53300475D02*
X100356247Y-53205237D01*
X94869048Y-55953866D02*
X95630953Y-55953866D01*
X77089048Y-63573866D02*
X77850953Y-63573866D01*
X77089048Y-66113866D02*
X77850953Y-66113866D01*
X77470000Y-66494819D02*
X77470000Y-65732914D01*
X88254819Y-63436190D02*
X87778628Y-63769523D01*
X88254819Y-64007618D02*
X87254819Y-64007618D01*
X87254819Y-64007618D02*
X87254819Y-63626666D01*
X87254819Y-63626666D02*
X87302438Y-63531428D01*
X87302438Y-63531428D02*
X87350057Y-63483809D01*
X87350057Y-63483809D02*
X87445295Y-63436190D01*
X87445295Y-63436190D02*
X87588152Y-63436190D01*
X87588152Y-63436190D02*
X87683390Y-63483809D01*
X87683390Y-63483809D02*
X87731009Y-63531428D01*
X87731009Y-63531428D02*
X87778628Y-63626666D01*
X87778628Y-63626666D02*
X87778628Y-64007618D01*
X88254819Y-62483809D02*
X88254819Y-63055237D01*
X88254819Y-62769523D02*
X87254819Y-62769523D01*
X87254819Y-62769523D02*
X87397676Y-62864761D01*
X87397676Y-62864761D02*
X87492914Y-62959999D01*
X87492914Y-62959999D02*
X87540533Y-63055237D01*
X87350057Y-61340951D02*
X87302438Y-61293332D01*
X87302438Y-61293332D02*
X87254819Y-61198094D01*
X87254819Y-61198094D02*
X87254819Y-60959999D01*
X87254819Y-60959999D02*
X87302438Y-60864761D01*
X87302438Y-60864761D02*
X87350057Y-60817142D01*
X87350057Y-60817142D02*
X87445295Y-60769523D01*
X87445295Y-60769523D02*
X87540533Y-60769523D01*
X87540533Y-60769523D02*
X87683390Y-60817142D01*
X87683390Y-60817142D02*
X88254819Y-61388570D01*
X88254819Y-61388570D02*
X88254819Y-60769523D01*
X87350057Y-60388570D02*
X87302438Y-60340951D01*
X87302438Y-60340951D02*
X87254819Y-60245713D01*
X87254819Y-60245713D02*
X87254819Y-60007618D01*
X87254819Y-60007618D02*
X87302438Y-59912380D01*
X87302438Y-59912380D02*
X87350057Y-59864761D01*
X87350057Y-59864761D02*
X87445295Y-59817142D01*
X87445295Y-59817142D02*
X87540533Y-59817142D01*
X87540533Y-59817142D02*
X87683390Y-59864761D01*
X87683390Y-59864761D02*
X88254819Y-60436189D01*
X88254819Y-60436189D02*
X88254819Y-59817142D01*
X87254819Y-59198094D02*
X87254819Y-59102856D01*
X87254819Y-59102856D02*
X87302438Y-59007618D01*
X87302438Y-59007618D02*
X87350057Y-58959999D01*
X87350057Y-58959999D02*
X87445295Y-58912380D01*
X87445295Y-58912380D02*
X87635771Y-58864761D01*
X87635771Y-58864761D02*
X87873866Y-58864761D01*
X87873866Y-58864761D02*
X88064342Y-58912380D01*
X88064342Y-58912380D02*
X88159580Y-58959999D01*
X88159580Y-58959999D02*
X88207200Y-59007618D01*
X88207200Y-59007618D02*
X88254819Y-59102856D01*
X88254819Y-59102856D02*
X88254819Y-59198094D01*
X88254819Y-59198094D02*
X88207200Y-59293332D01*
X88207200Y-59293332D02*
X88159580Y-59340951D01*
X88159580Y-59340951D02*
X88064342Y-59388570D01*
X88064342Y-59388570D02*
X87873866Y-59436189D01*
X87873866Y-59436189D02*
X87635771Y-59436189D01*
X87635771Y-59436189D02*
X87445295Y-59388570D01*
X87445295Y-59388570D02*
X87350057Y-59340951D01*
X87350057Y-59340951D02*
X87302438Y-59293332D01*
X87302438Y-59293332D02*
X87254819Y-59198094D01*
X88254819Y-57864761D02*
X87778628Y-58198094D01*
X88254819Y-58436189D02*
X87254819Y-58436189D01*
X87254819Y-58436189D02*
X87254819Y-58055237D01*
X87254819Y-58055237D02*
X87302438Y-57959999D01*
X87302438Y-57959999D02*
X87350057Y-57912380D01*
X87350057Y-57912380D02*
X87445295Y-57864761D01*
X87445295Y-57864761D02*
X87588152Y-57864761D01*
X87588152Y-57864761D02*
X87683390Y-57912380D01*
X87683390Y-57912380D02*
X87731009Y-57959999D01*
X87731009Y-57959999D02*
X87778628Y-58055237D01*
X87778628Y-58055237D02*
X87778628Y-58436189D01*
X78454819Y-66504285D02*
X79169104Y-66504285D01*
X79169104Y-66504285D02*
X79311961Y-66551904D01*
X79311961Y-66551904D02*
X79407200Y-66647142D01*
X79407200Y-66647142D02*
X79454819Y-66789999D01*
X79454819Y-66789999D02*
X79454819Y-66885237D01*
X78454819Y-65599523D02*
X78454819Y-65789999D01*
X78454819Y-65789999D02*
X78502438Y-65885237D01*
X78502438Y-65885237D02*
X78550057Y-65932856D01*
X78550057Y-65932856D02*
X78692914Y-66028094D01*
X78692914Y-66028094D02*
X78883390Y-66075713D01*
X78883390Y-66075713D02*
X79264342Y-66075713D01*
X79264342Y-66075713D02*
X79359580Y-66028094D01*
X79359580Y-66028094D02*
X79407200Y-65980475D01*
X79407200Y-65980475D02*
X79454819Y-65885237D01*
X79454819Y-65885237D02*
X79454819Y-65694761D01*
X79454819Y-65694761D02*
X79407200Y-65599523D01*
X79407200Y-65599523D02*
X79359580Y-65551904D01*
X79359580Y-65551904D02*
X79264342Y-65504285D01*
X79264342Y-65504285D02*
X79026247Y-65504285D01*
X79026247Y-65504285D02*
X78931009Y-65551904D01*
X78931009Y-65551904D02*
X78883390Y-65599523D01*
X78883390Y-65599523D02*
X78835771Y-65694761D01*
X78835771Y-65694761D02*
X78835771Y-65885237D01*
X78835771Y-65885237D02*
X78883390Y-65980475D01*
X78883390Y-65980475D02*
X78931009Y-66028094D01*
X78931009Y-66028094D02*
X79026247Y-66075713D01*
X78454819Y-64409046D02*
X79454819Y-63742380D01*
X78454819Y-63742380D02*
X79454819Y-64409046D01*
X79454819Y-63361427D02*
X78454819Y-63361427D01*
X78931009Y-63361427D02*
X78931009Y-62789999D01*
X79454819Y-62789999D02*
X78454819Y-62789999D01*
X92376666Y-57874819D02*
X92376666Y-58589104D01*
X92376666Y-58589104D02*
X92329047Y-58731961D01*
X92329047Y-58731961D02*
X92233809Y-58827200D01*
X92233809Y-58827200D02*
X92090952Y-58874819D01*
X92090952Y-58874819D02*
X91995714Y-58874819D01*
X93329047Y-57874819D02*
X92852857Y-57874819D01*
X92852857Y-57874819D02*
X92805238Y-58351009D01*
X92805238Y-58351009D02*
X92852857Y-58303390D01*
X92852857Y-58303390D02*
X92948095Y-58255771D01*
X92948095Y-58255771D02*
X93186190Y-58255771D01*
X93186190Y-58255771D02*
X93281428Y-58303390D01*
X93281428Y-58303390D02*
X93329047Y-58351009D01*
X93329047Y-58351009D02*
X93376666Y-58446247D01*
X93376666Y-58446247D02*
X93376666Y-58684342D01*
X93376666Y-58684342D02*
X93329047Y-58779580D01*
X93329047Y-58779580D02*
X93281428Y-58827200D01*
X93281428Y-58827200D02*
X93186190Y-58874819D01*
X93186190Y-58874819D02*
X92948095Y-58874819D01*
X92948095Y-58874819D02*
X92852857Y-58827200D01*
X92852857Y-58827200D02*
X92805238Y-58779580D01*
X92376666Y-60414819D02*
X92376666Y-61129104D01*
X92376666Y-61129104D02*
X92329047Y-61271961D01*
X92329047Y-61271961D02*
X92233809Y-61367200D01*
X92233809Y-61367200D02*
X92090952Y-61414819D01*
X92090952Y-61414819D02*
X91995714Y-61414819D01*
X93281428Y-60748152D02*
X93281428Y-61414819D01*
X93043333Y-60367200D02*
X92805238Y-61081485D01*
X92805238Y-61081485D02*
X93424285Y-61081485D01*
X92376666Y-62954819D02*
X92376666Y-63669104D01*
X92376666Y-63669104D02*
X92329047Y-63811961D01*
X92329047Y-63811961D02*
X92233809Y-63907200D01*
X92233809Y-63907200D02*
X92090952Y-63954819D01*
X92090952Y-63954819D02*
X91995714Y-63954819D01*
X92757619Y-62954819D02*
X93376666Y-62954819D01*
X93376666Y-62954819D02*
X93043333Y-63335771D01*
X93043333Y-63335771D02*
X93186190Y-63335771D01*
X93186190Y-63335771D02*
X93281428Y-63383390D01*
X93281428Y-63383390D02*
X93329047Y-63431009D01*
X93329047Y-63431009D02*
X93376666Y-63526247D01*
X93376666Y-63526247D02*
X93376666Y-63764342D01*
X93376666Y-63764342D02*
X93329047Y-63859580D01*
X93329047Y-63859580D02*
X93281428Y-63907200D01*
X93281428Y-63907200D02*
X93186190Y-63954819D01*
X93186190Y-63954819D02*
X92900476Y-63954819D01*
X92900476Y-63954819D02*
X92805238Y-63907200D01*
X92805238Y-63907200D02*
X92757619Y-63859580D01*
X92376666Y-65494819D02*
X92376666Y-66209104D01*
X92376666Y-66209104D02*
X92329047Y-66351961D01*
X92329047Y-66351961D02*
X92233809Y-66447200D01*
X92233809Y-66447200D02*
X92090952Y-66494819D01*
X92090952Y-66494819D02*
X91995714Y-66494819D01*
X92805238Y-65590057D02*
X92852857Y-65542438D01*
X92852857Y-65542438D02*
X92948095Y-65494819D01*
X92948095Y-65494819D02*
X93186190Y-65494819D01*
X93186190Y-65494819D02*
X93281428Y-65542438D01*
X93281428Y-65542438D02*
X93329047Y-65590057D01*
X93329047Y-65590057D02*
X93376666Y-65685295D01*
X93376666Y-65685295D02*
X93376666Y-65780533D01*
X93376666Y-65780533D02*
X93329047Y-65923390D01*
X93329047Y-65923390D02*
X92757619Y-66494819D01*
X92757619Y-66494819D02*
X93376666Y-66494819D01*
X108466190Y-69054819D02*
X108466190Y-69769104D01*
X108466190Y-69769104D02*
X108418571Y-69911961D01*
X108418571Y-69911961D02*
X108323333Y-70007200D01*
X108323333Y-70007200D02*
X108180476Y-70054819D01*
X108180476Y-70054819D02*
X108085238Y-70054819D01*
X109466190Y-70054819D02*
X108894762Y-70054819D01*
X109180476Y-70054819D02*
X109180476Y-69054819D01*
X109180476Y-69054819D02*
X109085238Y-69197676D01*
X109085238Y-69197676D02*
X108990000Y-69292914D01*
X108990000Y-69292914D02*
X108894762Y-69340533D01*
X110656667Y-70054819D02*
X110656667Y-69054819D01*
X110656667Y-69435771D02*
X110751905Y-69388152D01*
X110751905Y-69388152D02*
X110942381Y-69388152D01*
X110942381Y-69388152D02*
X111037619Y-69435771D01*
X111037619Y-69435771D02*
X111085238Y-69483390D01*
X111085238Y-69483390D02*
X111132857Y-69578628D01*
X111132857Y-69578628D02*
X111132857Y-69864342D01*
X111132857Y-69864342D02*
X111085238Y-69959580D01*
X111085238Y-69959580D02*
X111037619Y-70007200D01*
X111037619Y-70007200D02*
X110942381Y-70054819D01*
X110942381Y-70054819D02*
X110751905Y-70054819D01*
X110751905Y-70054819D02*
X110656667Y-70007200D01*
X111704286Y-70054819D02*
X111609048Y-70007200D01*
X111609048Y-70007200D02*
X111561429Y-69959580D01*
X111561429Y-69959580D02*
X111513810Y-69864342D01*
X111513810Y-69864342D02*
X111513810Y-69578628D01*
X111513810Y-69578628D02*
X111561429Y-69483390D01*
X111561429Y-69483390D02*
X111609048Y-69435771D01*
X111609048Y-69435771D02*
X111704286Y-69388152D01*
X111704286Y-69388152D02*
X111847143Y-69388152D01*
X111847143Y-69388152D02*
X111942381Y-69435771D01*
X111942381Y-69435771D02*
X111990000Y-69483390D01*
X111990000Y-69483390D02*
X112037619Y-69578628D01*
X112037619Y-69578628D02*
X112037619Y-69864342D01*
X112037619Y-69864342D02*
X111990000Y-69959580D01*
X111990000Y-69959580D02*
X111942381Y-70007200D01*
X111942381Y-70007200D02*
X111847143Y-70054819D01*
X111847143Y-70054819D02*
X111704286Y-70054819D01*
X112370953Y-70054819D02*
X112894762Y-69388152D01*
X112370953Y-69388152D02*
X112894762Y-70054819D01*
X81558095Y-52374819D02*
X81558095Y-51374819D01*
X81558095Y-51374819D02*
X81796190Y-51374819D01*
X81796190Y-51374819D02*
X81939047Y-51422438D01*
X81939047Y-51422438D02*
X82034285Y-51517676D01*
X82034285Y-51517676D02*
X82081904Y-51612914D01*
X82081904Y-51612914D02*
X82129523Y-51803390D01*
X82129523Y-51803390D02*
X82129523Y-51946247D01*
X82129523Y-51946247D02*
X82081904Y-52136723D01*
X82081904Y-52136723D02*
X82034285Y-52231961D01*
X82034285Y-52231961D02*
X81939047Y-52327200D01*
X81939047Y-52327200D02*
X81796190Y-52374819D01*
X81796190Y-52374819D02*
X81558095Y-52374819D01*
X83081904Y-52374819D02*
X82510476Y-52374819D01*
X82796190Y-52374819D02*
X82796190Y-51374819D01*
X82796190Y-51374819D02*
X82700952Y-51517676D01*
X82700952Y-51517676D02*
X82605714Y-51612914D01*
X82605714Y-51612914D02*
X82510476Y-51660533D01*
X84415238Y-52374819D02*
X84320000Y-52327200D01*
X84320000Y-52327200D02*
X84272381Y-52231961D01*
X84272381Y-52231961D02*
X84272381Y-51374819D01*
X85177143Y-52327200D02*
X85081905Y-52374819D01*
X85081905Y-52374819D02*
X84891429Y-52374819D01*
X84891429Y-52374819D02*
X84796191Y-52327200D01*
X84796191Y-52327200D02*
X84748572Y-52231961D01*
X84748572Y-52231961D02*
X84748572Y-51851009D01*
X84748572Y-51851009D02*
X84796191Y-51755771D01*
X84796191Y-51755771D02*
X84891429Y-51708152D01*
X84891429Y-51708152D02*
X85081905Y-51708152D01*
X85081905Y-51708152D02*
X85177143Y-51755771D01*
X85177143Y-51755771D02*
X85224762Y-51851009D01*
X85224762Y-51851009D02*
X85224762Y-51946247D01*
X85224762Y-51946247D02*
X84748572Y-52041485D01*
X86081905Y-52374819D02*
X86081905Y-51374819D01*
X86081905Y-52327200D02*
X85986667Y-52374819D01*
X85986667Y-52374819D02*
X85796191Y-52374819D01*
X85796191Y-52374819D02*
X85700953Y-52327200D01*
X85700953Y-52327200D02*
X85653334Y-52279580D01*
X85653334Y-52279580D02*
X85605715Y-52184342D01*
X85605715Y-52184342D02*
X85605715Y-51898628D01*
X85605715Y-51898628D02*
X85653334Y-51803390D01*
X85653334Y-51803390D02*
X85700953Y-51755771D01*
X85700953Y-51755771D02*
X85796191Y-51708152D01*
X85796191Y-51708152D02*
X85986667Y-51708152D01*
X85986667Y-51708152D02*
X86081905Y-51755771D01*
D11*
%TO.C,R1 220R*%
X90170000Y-56920000D02*
X90170000Y-57690000D01*
X90170000Y-65000000D02*
X90170000Y-64230000D01*
X88800000Y-64230000D02*
X91540000Y-64230000D01*
X91540000Y-57690000D02*
X88800000Y-57690000D01*
X91540000Y-64230000D02*
X91540000Y-57690000D01*
X88800000Y-57690000D02*
X88800000Y-64230000D01*
%TO.C,J6 XH*%
X82350000Y-60990000D02*
X82350000Y-61740000D01*
X82350000Y-61740000D02*
X85300000Y-61740000D01*
X85300000Y-61740000D02*
X85300000Y-64790000D01*
X82350000Y-67840000D02*
X85300000Y-67840000D01*
X80100000Y-64290000D02*
X80100000Y-65290000D01*
X80100000Y-65290000D02*
X80850000Y-65290000D01*
X80850000Y-65290000D02*
X80850000Y-64290000D01*
X80850000Y-62790000D02*
X80850000Y-60990000D01*
X80100000Y-60990000D02*
X80100000Y-62790000D01*
X79800000Y-68890000D02*
X81050000Y-68890000D01*
X80090000Y-68600000D02*
X86060000Y-68600000D01*
X80100000Y-68590000D02*
X80850000Y-68590000D01*
X86060000Y-68600000D02*
X86060000Y-60980000D01*
X80850000Y-64290000D02*
X80100000Y-64290000D01*
X82350000Y-68590000D02*
X82350000Y-67840000D01*
X80850000Y-68590000D02*
X80850000Y-66790000D01*
X79800000Y-67640000D02*
X79800000Y-68890000D01*
X80850000Y-60990000D02*
X80100000Y-60990000D01*
X80100000Y-66790000D02*
X80100000Y-68590000D01*
X80090000Y-60980000D02*
X80090000Y-68600000D01*
X85300000Y-67840000D02*
X85300000Y-64790000D01*
X80100000Y-62790000D02*
X80850000Y-62790000D01*
X86060000Y-60980000D02*
X80090000Y-60980000D01*
X80850000Y-66790000D02*
X80100000Y-66790000D01*
%TO.C,J5*%
X93920000Y-57090000D02*
X93920000Y-59750000D01*
X99060000Y-57090000D02*
X93920000Y-57090000D01*
X100330000Y-57090000D02*
X101660000Y-57090000D01*
X99060000Y-59750000D02*
X93920000Y-59750000D01*
X101660000Y-57090000D02*
X101660000Y-58420000D01*
X99060000Y-57090000D02*
X99060000Y-59750000D01*
%TO.C,J4*%
X93920000Y-59630000D02*
X93920000Y-62290000D01*
X99060000Y-59630000D02*
X93920000Y-59630000D01*
X100330000Y-59630000D02*
X101660000Y-59630000D01*
X99060000Y-62290000D02*
X93920000Y-62290000D01*
X101660000Y-59630000D02*
X101660000Y-60960000D01*
X99060000Y-59630000D02*
X99060000Y-62290000D01*
%TO.C,J3*%
X93920000Y-62170000D02*
X93920000Y-64830000D01*
X99060000Y-62170000D02*
X93920000Y-62170000D01*
X100330000Y-62170000D02*
X101660000Y-62170000D01*
X99060000Y-64830000D02*
X93920000Y-64830000D01*
X101660000Y-62170000D02*
X101660000Y-63500000D01*
X99060000Y-62170000D02*
X99060000Y-64830000D01*
%TO.C,J2*%
X99060000Y-64710000D02*
X99060000Y-67370000D01*
X101660000Y-64710000D02*
X101660000Y-66040000D01*
X99060000Y-67370000D02*
X93920000Y-67370000D01*
X100330000Y-64710000D02*
X101660000Y-64710000D01*
X99060000Y-64710000D02*
X93920000Y-64710000D01*
X93920000Y-64710000D02*
X93920000Y-67370000D01*
%TO.C,J1 box*%
X113740000Y-58910000D02*
X113740000Y-58910000D01*
X113740000Y-67410000D02*
X107240000Y-67410000D01*
X107240000Y-54510000D02*
X113740000Y-54510000D01*
X116440000Y-64000000D02*
X116440000Y-63000000D01*
X113740000Y-54510000D02*
X113740000Y-58910000D01*
X113740000Y-63010000D02*
X113740000Y-67410000D01*
X115050000Y-68710000D02*
X105930000Y-68710000D01*
X105930000Y-53210000D02*
X115050000Y-53210000D01*
X115050000Y-63010000D02*
X113740000Y-63010000D01*
X107240000Y-67410000D02*
X107240000Y-54510000D01*
X115440000Y-63500000D02*
X116440000Y-64000000D01*
X115050000Y-53210000D02*
X115050000Y-68710000D01*
X105930000Y-68710000D02*
X105930000Y-53210000D01*
X116440000Y-63000000D02*
X115440000Y-63500000D01*
X113740000Y-58910000D02*
X115050000Y-58910000D01*
%TO.C,D1 led*%
X81260000Y-54335000D02*
X81260000Y-57425000D01*
X81260000Y-57424830D02*
G75*
G03*
X86810000Y-55879538I2560000J1544830D01*
G01*
X86809999Y-55880462D02*
G75*
G03*
X81260001Y-54335170I-2989999J462D01*
G01*
X86320000Y-55880000D02*
G75*
G03*
X86320000Y-55880000I-2500000J0D01*
G01*
%TD*%
M02*
