M48
; DRILL file {KiCad 7.0.7} date Sat Dec 21 21:31:04 2024
; FORMAT={-:-/ absolute / metric / decimal}
; #@! TF.CreationDate,2024-12-21T21:31:04+01:00
; #@! TF.GenerationSoftware,Kicad,Pcbnew,7.0.7
; #@! TF.FileFunction,Plated,1,2,PTH
FMAT,2
METRIC
; #@! TA.AperFunction,Plated,PTH,ComponentDrill
T1C0.800
; #@! TA.AperFunction,Plated,PTH,ComponentDrill
T2C0.900
; #@! TA.AperFunction,Plated,PTH,ComponentDrill
T3C1.000
%
G90
G05
T1
X90.17Y-55.88
X90.17Y-66.04
T2
X82.55Y-55.88
X85.09Y-55.88
T3
X82.55Y-63.54
X82.55Y-66.04
X95.25Y-58.42
X95.25Y-60.96
X95.25Y-63.5
X95.25Y-66.04
X97.79Y-58.42
X97.79Y-60.96
X97.79Y-63.5
X97.79Y-66.04
X100.33Y-58.42
X100.33Y-60.96
X100.33Y-63.5
X100.33Y-66.04
X109.22Y-58.42
X109.22Y-60.96
X109.22Y-63.5
X111.76Y-58.42
X111.76Y-60.96
X111.76Y-63.5
T0
M30
