%TF.GenerationSoftware,KiCad,Pcbnew,7.0.7*%
%TF.CreationDate,2024-12-21T21:31:14+01:00*%
%TF.ProjectId,servo_board,73657276-6f5f-4626-9f61-72642e6b6963,1.0*%
%TF.SameCoordinates,Original*%
%TF.FileFunction,Drillmap*%
%TF.FilePolarity,Positive*%
%FSLAX45Y45*%
G04 Gerber Fmt 4.5, Leading zero omitted, Abs format (unit mm)*
G04 Created by KiCad (PCBNEW 7.0.7) date 2024-12-21 21:31:14*
%MOMM*%
%LPD*%
G01*
G04 APERTURE LIST*
%ADD10C,0.100000*%
%ADD11C,0.200000*%
G04 APERTURE END LIST*
D10*
X7700000Y-5100000D02*
X11800000Y-5100000D01*
X7500000Y-6900000D02*
X7500000Y-5300000D01*
X11800000Y-7100000D02*
X7700000Y-7100000D01*
X12000000Y-5300000D02*
X12000000Y-6900000D01*
X12000000Y-5300000D02*
G75*
G03*
X11800000Y-5100000I-200000J0D01*
G01*
X11800000Y-7100000D02*
G75*
G03*
X12000000Y-6900000I0J200000D01*
G01*
X7500000Y-6900000D02*
G75*
G03*
X7700000Y-7100000I200000J0D01*
G01*
X7700000Y-5100000D02*
G75*
G03*
X7500000Y-5300000I0J-200000D01*
G01*
D11*
X7755777Y-7416484D02*
X7755777Y-7216484D01*
X7755777Y-7216484D02*
X7803396Y-7216484D01*
X7803396Y-7216484D02*
X7831967Y-7226008D01*
X7831967Y-7226008D02*
X7851015Y-7245055D01*
X7851015Y-7245055D02*
X7860539Y-7264103D01*
X7860539Y-7264103D02*
X7870062Y-7302198D01*
X7870062Y-7302198D02*
X7870062Y-7330769D01*
X7870062Y-7330769D02*
X7860539Y-7368865D01*
X7860539Y-7368865D02*
X7851015Y-7387912D01*
X7851015Y-7387912D02*
X7831967Y-7406960D01*
X7831967Y-7406960D02*
X7803396Y-7416484D01*
X7803396Y-7416484D02*
X7755777Y-7416484D01*
X7955777Y-7416484D02*
X7955777Y-7283150D01*
X7955777Y-7321246D02*
X7965301Y-7302198D01*
X7965301Y-7302198D02*
X7974824Y-7292674D01*
X7974824Y-7292674D02*
X7993872Y-7283150D01*
X7993872Y-7283150D02*
X8012920Y-7283150D01*
X8079586Y-7416484D02*
X8079586Y-7283150D01*
X8079586Y-7216484D02*
X8070062Y-7226008D01*
X8070062Y-7226008D02*
X8079586Y-7235531D01*
X8079586Y-7235531D02*
X8089110Y-7226008D01*
X8089110Y-7226008D02*
X8079586Y-7216484D01*
X8079586Y-7216484D02*
X8079586Y-7235531D01*
X8203396Y-7416484D02*
X8184348Y-7406960D01*
X8184348Y-7406960D02*
X8174824Y-7387912D01*
X8174824Y-7387912D02*
X8174824Y-7216484D01*
X8308158Y-7416484D02*
X8289110Y-7406960D01*
X8289110Y-7406960D02*
X8279586Y-7387912D01*
X8279586Y-7387912D02*
X8279586Y-7216484D01*
X8536729Y-7416484D02*
X8536729Y-7216484D01*
X8536729Y-7216484D02*
X8603396Y-7359341D01*
X8603396Y-7359341D02*
X8670063Y-7216484D01*
X8670063Y-7216484D02*
X8670063Y-7416484D01*
X8851015Y-7416484D02*
X8851015Y-7311722D01*
X8851015Y-7311722D02*
X8841491Y-7292674D01*
X8841491Y-7292674D02*
X8822444Y-7283150D01*
X8822444Y-7283150D02*
X8784348Y-7283150D01*
X8784348Y-7283150D02*
X8765301Y-7292674D01*
X8851015Y-7406960D02*
X8831967Y-7416484D01*
X8831967Y-7416484D02*
X8784348Y-7416484D01*
X8784348Y-7416484D02*
X8765301Y-7406960D01*
X8765301Y-7406960D02*
X8755777Y-7387912D01*
X8755777Y-7387912D02*
X8755777Y-7368865D01*
X8755777Y-7368865D02*
X8765301Y-7349817D01*
X8765301Y-7349817D02*
X8784348Y-7340293D01*
X8784348Y-7340293D02*
X8831967Y-7340293D01*
X8831967Y-7340293D02*
X8851015Y-7330769D01*
X8946253Y-7283150D02*
X8946253Y-7483150D01*
X8946253Y-7292674D02*
X8965301Y-7283150D01*
X8965301Y-7283150D02*
X9003396Y-7283150D01*
X9003396Y-7283150D02*
X9022444Y-7292674D01*
X9022444Y-7292674D02*
X9031967Y-7302198D01*
X9031967Y-7302198D02*
X9041491Y-7321246D01*
X9041491Y-7321246D02*
X9041491Y-7378388D01*
X9041491Y-7378388D02*
X9031967Y-7397436D01*
X9031967Y-7397436D02*
X9022444Y-7406960D01*
X9022444Y-7406960D02*
X9003396Y-7416484D01*
X9003396Y-7416484D02*
X8965301Y-7416484D01*
X8965301Y-7416484D02*
X8946253Y-7406960D01*
X9127205Y-7397436D02*
X9136729Y-7406960D01*
X9136729Y-7406960D02*
X9127205Y-7416484D01*
X9127205Y-7416484D02*
X9117682Y-7406960D01*
X9117682Y-7406960D02*
X9127205Y-7397436D01*
X9127205Y-7397436D02*
X9127205Y-7416484D01*
X9127205Y-7292674D02*
X9136729Y-7302198D01*
X9136729Y-7302198D02*
X9127205Y-7311722D01*
X9127205Y-7311722D02*
X9117682Y-7302198D01*
X9117682Y-7302198D02*
X9127205Y-7292674D01*
X9127205Y-7292674D02*
X9127205Y-7311722D01*
M02*
